<?xml version="1.0" encoding="UTF-8"?>
<svg xmlns="http://www.w3.org/2000/svg" xmlns:xlink="http://www.w3.org/1999/xlink" version="1.2" >
<font id="Proxima Nova">
<font-face  font-family="Proxima Nova" units-per-em="1000" ascent="920" descent="-210" font-style="normal" font-weight="400" font-stretch="normal" cap-height="667" x-height="483" underline-position="-123" underline-thickness="20" />
<missing-glyph  horiz-adv-x="507" d="M78 752 L429 752 L429 -90 L78 -90 L78 752 Z M109 722 L109 -60 L397 -60 L397 722 L109 722 Z " />
<glyph glyph-name="NULL" d="" />
<glyph glyph-name="nonmarkingreturn" unicode="&#xd;" d="" />
<glyph glyph-name="space" unicode="&#x20;" horiz-adv-x="258" d="" />
<glyph glyph-name="uni00A0" unicode="&#xa0;" horiz-adv-x="258" d="" />
<glyph glyph-name="uni2009" unicode="&#x2009;" horiz-adv-x="125" d="" />
<glyph glyph-name="zero" unicode="0" horiz-adv-x="612" d="M51 333 Q51 420 78 498.5 Q105 577 162 627 Q219 677 306 677 Q392 677 449.5 627 Q507 577 534 498.5 Q561 420 561 333 Q561 246 534 167.5 Q507 89 449.5 38.5 Q392 -12 306 -12 Q220 -12 162.5 38.5 Q105 89 78 167.5 Q51 246 51 333 Z M476 333 Q476 446 435 524.5 Q394 603 306 603 Q218 603 177 524.5 Q136 446 136 333 Q136 219 177 140.5 Q218 62 306 62 Q394 62 435 140.5 Q476 219 476 333 Z " />
<glyph glyph-name="one" unicode="1" horiz-adv-x="339" d="M178 557 L71 444 L21 495 L188 667 L261 667 L261 0 L178 0 L178 557 Z " />
<glyph glyph-name="two" unicode="2" horiz-adv-x="588" d="M54 66 Q192 175 267.5 241.5 Q343 308 383.5 367 Q424 426 424 481 Q424 541 383 572 Q342 603 285 603 Q227 603 180.5 580.5 Q134 558 104 519 L53 572 Q91 622 152.5 649.5 Q214 677 285 677 Q343 677 394 655 Q445 633 477 588.5 Q509 544 509 481 Q509 416 469 351.5 Q429 287 361 223 Q293 159 185 74 L512 74 L512 0 L54 0 L54 66 Z " />
<glyph glyph-name="three" unicode="3" horiz-adv-x="557" d="M78 150 Q108 110 157 86 Q206 62 264 62 Q337 62 378.5 95.5 Q420 129 420 187 Q420 247 375.5 276 Q331 305 254 305 Q195 305 185 304 L185 380 Q196 379 254 379 Q322 379 365.5 406.5 Q409 434 409 489 Q409 542 366.5 572.5 Q324 603 260 603 Q207 603 164.5 583 Q122 563 84 522 L38 574 Q77 621 135 649 Q193 677 266 677 Q365 677 428.5 629.5 Q492 582 492 499 Q492 433 448 393.5 Q404 354 348 344 Q382 341 417.5 321.5 Q453 302 477.5 266 Q502 230 502 180 Q502 124 473.5 80.5 Q445 37 391.5 12.5 Q338 -12 266 -12 Q186 -12 124 19 Q62 50 29 98 L78 150 Z " />
<glyph glyph-name="four" unicode="4" horiz-adv-x="558" d="M349 169 L32 169 L32 238 L318 667 L432 667 L432 242 L526 242 L526 169 L432 169 L432 0 L349 0 L349 169 Z M115 242 L349 242 L349 590 L115 242 Z " />
<glyph glyph-name="five" unicode="5" horiz-adv-x="590" d="M117 150 Q186 62 301 62 Q369 62 412 103 Q455 144 455 205 Q455 270 412.5 309.5 Q370 349 302 349 Q212 349 148 286 L87 307 L87 667 L495 667 L495 593 L170 593 L170 361 Q196 387 237 404 Q278 421 326 421 Q383 421 431.5 396 Q480 371 509 322.5 Q538 274 538 208 Q538 142 507 92 Q476 42 422 15 Q368 -12 301 -12 Q220 -12 162.5 15.5 Q105 43 66 95 L117 150 Z " />
<glyph glyph-name="six" unicode="6" horiz-adv-x="591" d="M51 332 Q51 426 80.5 504.5 Q110 583 171 630 Q232 677 322 677 Q437 677 507 597 L465 535 Q437 568 404 585.5 Q371 603 322 603 Q260 603 218 566 Q176 529 155 469.5 Q134 410 134 341 Q134 324 135 315 Q160 355 212.5 387 Q265 419 324 419 Q385 419 434.5 395 Q484 371 513 323 Q542 275 542 206 Q542 147 513.5 97.5 Q485 48 432 18 Q379 -12 308 -12 Q177 -12 114 85.5 Q51 183 51 332 Z M458 203 Q458 273 415 310 Q372 347 304 347 Q255 347 210 319.5 Q165 292 137 247 Q144 173 185 117.5 Q226 62 305 62 Q354 62 388.5 83 Q423 104 440.5 136.5 Q458 169 458 203 Z " />
<glyph glyph-name="seven" unicode="7" horiz-adv-x="515" d="M390 593 L31 593 L31 667 L486 667 L486 610 L213 0 L121 0 L390 593 Z " />
<glyph glyph-name="eight" unicode="8" horiz-adv-x="581" d="M52 169 Q52 232 97.5 278 Q143 324 211 344 Q147 362 105 402.5 Q63 443 63 504 Q63 561 95.5 600 Q128 639 180.5 658 Q233 677 291 677 Q349 677 401.5 658 Q454 639 487 600 Q520 561 520 504 Q520 443 478 402.5 Q436 362 371 344 Q439 324 484.5 278 Q530 232 530 169 Q530 114 498 73 Q466 32 411.5 10 Q357 -12 291 -12 Q224 -12 169.5 10 Q115 32 83.5 73 Q52 114 52 169 Z M436 493 Q436 543 394.5 573 Q353 603 291 603 Q228 603 187 573 Q146 543 146 493 Q146 440 193 413.5 Q240 387 291 378 Q342 387 389 413.5 Q436 440 436 493 Z M446 178 Q446 218 418 246 Q390 274 354 289 Q318 304 291 307 Q264 304 227.5 289 Q191 274 163 246 Q135 218 135 178 Q135 126 180.5 94 Q226 62 291 62 Q355 62 400.5 94 Q446 126 446 178 Z " />
<glyph glyph-name="nine" unicode="9" horiz-adv-x="591" d="M126 131 Q154 98 187.5 80.5 Q221 63 269 63 Q333 63 375.5 100.5 Q418 138 437.5 197.5 Q457 257 457 324 Q457 342 456 351 Q431 311 379 279 Q327 247 268 247 Q207 247 157 271 Q107 295 78 343 Q49 391 49 460 Q49 518 77.5 568 Q106 618 159 648 Q212 678 282 678 Q414 678 477 580.5 Q540 483 540 333 Q540 239 510.5 161 Q481 83 420 36 Q359 -11 269 -11 Q154 -11 84 69 L126 131 Z M453 418 Q447 492 406 548 Q365 604 286 604 Q238 604 203 582.5 Q168 561 150.5 528.5 Q133 496 133 463 Q133 393 176 356 Q219 319 287 319 Q336 319 381.5 346 Q427 373 453 418 Z " />
<glyph glyph-name="A" unicode="A" horiz-adv-x="658" d="M498 148 L160 148 L101 0 L9 0 L277 667 L380 667 L649 0 L557 0 L498 148 Z M184 222 L473 222 L329 593 L184 222 Z " />
<glyph glyph-name="B" unicode="B" horiz-adv-x="629" d="M78 667 L375 667 Q461 667 511.5 620 Q562 573 562 497 Q562 437 528 395.5 Q494 354 445 344 Q480 339 510 315 Q540 291 557.5 255 Q575 219 575 180 Q575 99 523.5 49.5 Q472 0 382 0 L78 0 L78 667 Z M361 378 Q416 378 446 408 Q476 438 476 485 Q476 532 445.5 562.5 Q415 593 361 593 L161 593 L161 378 L361 378 Z M365 74 Q423 74 456 105 Q489 136 489 189 Q489 238 456.5 271 Q424 304 365 304 L161 304 L161 74 L365 74 Z " />
<glyph glyph-name="C" unicode="C" horiz-adv-x="676" d="M391 -12 Q297 -12 219 31.5 Q141 75 96 154 Q51 233 51 333 Q51 433 96 512 Q141 591 219 634.5 Q297 678 391 678 Q477 678 540.5 642.5 Q604 607 647 546 L577 507 Q548 550 498.5 577 Q449 604 391 604 Q320 604 262 569.5 Q204 535 170.5 473 Q137 411 137 333 Q137 255 170.5 193.5 Q204 132 262 97 Q320 62 391 62 Q449 62 498.5 88.5 Q548 115 577 159 L648 120 Q551 -12 391 -12 Z " />
<glyph glyph-name="D" unicode="D" horiz-adv-x="700" d="M78 667 L306 667 Q407 667 485 623.5 Q563 580 605.5 503.5 Q648 427 648 333 Q648 238 605.5 162.5 Q563 87 485 43.5 Q407 0 306 0 L78 0 L78 667 Z M306 74 Q385 74 443 108.5 Q501 143 531.5 202 Q562 261 562 333 Q562 406 532 465 Q502 524 444 558.5 Q386 593 306 593 L161 593 L161 74 L306 74 Z " />
<glyph glyph-name="E" unicode="E" horiz-adv-x="569" d="M78 667 L515 667 L515 593 L161 593 L161 378 L508 378 L508 304 L161 304 L161 74 L515 74 L515 0 L78 0 L78 667 Z " />
<glyph glyph-name="F" unicode="F" horiz-adv-x="550" d="M78 667 L515 667 L515 593 L161 593 L161 378 L508 378 L508 304 L161 304 L161 0 L78 0 L78 667 Z " />
<glyph glyph-name="G" unicode="G" horiz-adv-x="713" d="M51 333 Q51 434 96.5 512.5 Q142 591 220.5 634.5 Q299 678 394 678 Q552 678 653 553 L587 512 Q555 554 503.5 579 Q452 604 394 604 Q322 604 263 569.5 Q204 535 170.5 473 Q137 411 137 333 Q137 255 170.5 193 Q204 131 263 96 Q322 61 394 61 Q449 61 496.5 82.5 Q544 104 573 133 L573 269 L344 269 L344 343 L656 343 L656 102 Q608 48 540.5 17.5 Q473 -13 394 -13 Q299 -13 220.5 30.5 Q142 74 96.5 153 Q51 232 51 333 Z " />
<glyph glyph-name="H" unicode="H" horiz-adv-x="712" d="M551 306 L161 306 L161 0 L78 0 L78 667 L161 667 L161 380 L551 380 L551 667 L634 667 L634 0 L551 0 L551 306 Z " />
<glyph glyph-name="I" unicode="I" horiz-adv-x="239" d="M78 667 L161 667 L161 0 L78 0 L78 667 Z " />
<glyph glyph-name="J" unicode="J" horiz-adv-x="475" d="M54 128 Q109 62 180 62 Q241 62 277.5 100.5 Q314 139 314 202 L314 667 L397 667 L397 201 Q397 97 338 42.5 Q279 -12 185 -12 Q131 -12 88 6.5 Q45 25 11 65 L54 128 Z " />
<glyph glyph-name="K" unicode="K" horiz-adv-x="601" d="M228 300 L161 224 L161 0 L78 0 L78 667 L161 667 L161 322 L456 667 L560 667 L282 350 L584 0 L481 0 L228 300 Z " />
<glyph glyph-name="L" unicode="L" horiz-adv-x="510" d="M78 667 L161 667 L161 74 L471 74 L471 0 L78 0 L78 667 Z " />
<glyph glyph-name="M" unicode="M" horiz-adv-x="809" d="M648 555 L421 0 L387 0 L161 555 L161 0 L78 0 L78 667 L197 667 L404 159 L612 667 L731 667 L731 0 L648 0 L648 555 Z " />
<glyph glyph-name="N" unicode="N" horiz-adv-x="708" d="M161 538 L161 0 L78 0 L78 667 L163 667 L547 140 L547 667 L630 667 L630 0 L550 0 L161 538 Z " />
<glyph glyph-name="O" unicode="O" horiz-adv-x="765" d="M51 333 Q51 431 92.5 509.5 Q134 588 209.5 633 Q285 678 382 678 Q479 678 554 633 Q629 588 671 509.5 Q713 431 713 333 Q713 235 671 156.5 Q629 78 554 33 Q479 -12 382 -12 Q285 -12 209.5 33 Q134 78 92.5 156.5 Q51 235 51 333 Z M627 333 Q627 411 596.5 472.5 Q566 534 510.5 569 Q455 604 382 604 Q308 604 252.5 569 Q197 534 167 472.5 Q137 411 137 333 Q137 256 167 194 Q197 132 253 97 Q309 62 382 62 Q455 62 510.5 97 Q566 132 596.5 194 Q627 256 627 333 Z " />
<glyph glyph-name="P" unicode="P" horiz-adv-x="587" d="M78 667 L346 667 Q411 667 458.5 640 Q506 613 530.5 567 Q555 521 555 466 Q555 411 530 365 Q505 319 457.5 292 Q410 265 346 265 L161 265 L161 0 L78 0 L78 667 Z M469 466 Q469 522 432 557.5 Q395 593 336 593 L161 593 L161 339 L336 339 Q395 339 432 374.5 Q469 410 469 466 Z " />
<glyph glyph-name="Q" unicode="Q" horiz-adv-x="765" d="M713 333 Q713 260 689.5 196.5 Q666 133 622 87 L685 19 L627 -31 L563 38 Q483 -12 382 -12 Q285 -12 209.5 33 Q134 78 92.5 156.5 Q51 235 51 333 Q51 431 92.5 509.5 Q134 588 209.5 633 Q285 678 382 678 Q479 678 554 633 Q629 588 671 509.5 Q713 431 713 333 Z M382 62 Q451 62 509 96 L414 199 L472 248 L566 147 Q595 183 611 230.5 Q627 278 627 333 Q627 411 596.5 472.5 Q566 534 510.5 569 Q455 604 382 604 Q308 604 252.5 569 Q197 534 167 472.5 Q137 411 137 333 Q137 256 167 194 Q197 132 253 97 Q309 62 382 62 Z " />
<glyph glyph-name="R" unicode="R" horiz-adv-x="608" d="M294 265 L161 265 L161 0 L78 0 L78 667 L346 667 Q407 667 454.5 642.5 Q502 618 528.5 572 Q555 526 555 466 Q555 408 531.5 365.5 Q508 323 468.5 299.5 Q429 276 382 272 L562 0 L464 0 L294 265 Z M469 466 Q469 522 432 557.5 Q395 593 336 593 L161 593 L161 338 L336 338 Q395 338 432 374 Q469 410 469 466 Z " />
<glyph glyph-name="S" unicode="S" horiz-adv-x="586" d="M87 157 Q124 116 178 89 Q232 62 297 62 Q378 62 416 96.5 Q454 131 454 177 Q454 214 431.5 237.5 Q409 261 376 274 Q343 287 285 303 Q211 322 166.5 340 Q122 358 90.5 394.5 Q59 431 59 492 Q59 546 89 588 Q119 630 171 653.5 Q223 677 288 677 Q437 677 525 584 L475 523 Q439 563 389 583 Q339 603 282 603 Q222 603 183.5 573.5 Q145 544 145 497 Q145 466 166.5 445.5 Q188 425 219 413.5 Q250 402 307 387 Q381 367 427.5 347.5 Q474 328 507 288.5 Q540 249 540 184 Q540 132 515 87.5 Q490 43 434.5 15.5 Q379 -12 294 -12 Q211 -12 146.5 16.5 Q82 45 38 94 L87 157 Z " />
<glyph glyph-name="T" unicode="T" horiz-adv-x="570" d="M243 593 L32 593 L32 667 L538 667 L538 593 L326 593 L326 0 L243 0 L243 593 Z " />
<glyph glyph-name="U" unicode="U" horiz-adv-x="700" d="M78 667 L161 667 L161 261 Q161 168 210 115 Q259 62 350 62 Q441 62 490 115 Q539 168 539 261 L539 667 L622 667 L622 260 Q622 133 552.5 60.5 Q483 -12 350 -12 Q217 -12 147.5 60.5 Q78 133 78 259 L78 667 Z " />
<glyph glyph-name="V" unicode="V" horiz-adv-x="658" d="M9 667 L104 667 L329 91 L554 667 L649 667 L380 0 L277 0 L9 667 Z " />
<glyph glyph-name="W" unicode="W" horiz-adv-x="883" d="M441 538 L294 0 L204 0 L14 667 L106 667 L254 111 L407 667 L476 667 L629 111 L776 667 L868 667 L678 0 L588 0 L441 538 Z " />
<glyph glyph-name="X" unicode="X" horiz-adv-x="652" d="M326 284 L113 0 L12 0 L272 342 L27 667 L128 667 L326 400 L523 667 L624 667 L380 343 L639 0 L539 0 L326 284 Z " />
<glyph glyph-name="Y" unicode="Y" horiz-adv-x="626" d="M272 282 L9 667 L106 667 L313 357 L520 667 L617 667 L355 282 L355 0 L272 0 L272 282 Z " />
<glyph glyph-name="Z" unicode="Z" horiz-adv-x="585" d="M48 69 L423 593 L48 593 L48 667 L529 667 L529 598 L154 74 L536 74 L536 0 L48 0 L48 69 Z " />
<glyph glyph-name="a" unicode="a" horiz-adv-x="527" d="M377 55 Q316 -12 217 -12 Q174 -12 135.5 6.5 Q97 25 72.5 61.5 Q48 98 48 148 Q48 199 72.5 235 Q97 271 135.5 289 Q174 307 217 307 Q320 307 377 241 L377 328 Q377 376 343 403 Q309 430 255 430 Q211 430 175 413.5 Q139 397 107 363 L72 415 Q111 456 158.5 475.5 Q206 495 265 495 Q348 495 400 455 Q452 415 452 332 L452 0 L377 0 L377 55 Z M377 193 Q356 222 320.5 237.5 Q285 253 244 253 Q192 253 158.5 223.5 Q125 194 125 147 Q125 101 158.5 71.5 Q192 42 244 42 Q285 42 320.5 57.5 Q356 73 377 102 L377 193 Z " />
<glyph glyph-name="b" unicode="b" horiz-adv-x="575" d="M75 667 L150 667 L150 410 Q180 450 222 472.5 Q264 495 313 495 Q376 495 424.5 463.5 Q473 432 500.5 374.5 Q528 317 528 241 Q528 164 500.5 106.5 Q473 49 424.5 18.5 Q376 -12 313 -12 Q264 -12 221 11 Q178 34 150 72 L150 0 L75 0 L75 667 Z M150 131 Q170 99 210.5 77 Q251 55 294 55 Q366 55 408 107 Q450 159 450 241 Q450 323 408 375.5 Q366 428 294 428 Q251 428 210.5 405.5 Q170 383 150 350 L150 131 Z " />
<glyph glyph-name="c" unicode="c" horiz-adv-x="495" d="M47 242 Q47 313 77.5 371 Q108 429 162.5 462 Q217 495 288 495 Q350 495 392 473 Q434 451 465 411 L415 365 Q369 428 292 428 Q216 428 170.5 376 Q125 324 125 242 Q125 160 170.5 107.5 Q216 55 292 55 Q368 55 415 118 L465 72 Q434 32 392 10 Q350 -12 288 -12 Q217 -12 162.5 21 Q108 54 77.5 112 Q47 170 47 242 Z " />
<glyph glyph-name="d" unicode="d" horiz-adv-x="575" d="M425 72 Q397 34 354 11 Q311 -12 262 -12 Q199 -12 150.5 18.5 Q102 49 74.5 106.5 Q47 164 47 241 Q47 317 74 374.5 Q101 432 150 463.5 Q199 495 262 495 Q310 495 352.5 472.5 Q395 450 425 410 L425 667 L500 667 L500 0 L425 0 L425 72 Z M425 350 Q404 383 363.5 405.5 Q323 428 280 428 Q209 428 167 375.5 Q125 323 125 241 Q125 159 167 107 Q209 55 280 55 Q324 55 364 77 Q404 99 425 131 L425 350 Z " />
<glyph glyph-name="e" unicode="e" horiz-adv-x="563" d="M47 242 Q47 311 78 369 Q109 427 163 461 Q217 495 285 495 Q356 495 408.5 461 Q461 427 489 368 Q517 309 517 236 L517 217 L126 217 Q131 146 178 98 Q225 50 300 50 Q342 50 381.5 66 Q421 82 449 111 L485 62 Q411 -12 293 -12 Q222 -12 166 20 Q110 52 78.5 110 Q47 168 47 242 Z M284 433 Q235 433 200 409 Q165 385 146.5 348 Q128 311 126 272 L443 272 Q442 311 424.5 348 Q407 385 371.5 409 Q336 433 284 433 Z " />
<glyph glyph-name="f" unicode="f" horiz-adv-x="283" d="M96 417 L16 417 L16 483 L96 483 L96 520 Q96 594 134 635.5 Q172 677 236 677 Q282 677 309 660 L290 604 Q271 615 247 615 Q210 615 190.5 590.5 Q171 566 171 520 L171 483 L269 483 L269 417 L171 417 L171 0 L96 0 L96 417 Z " />
<glyph glyph-name="g" unicode="g" horiz-adv-x="574" d="M112 -68 Q141 -103 178.5 -118.5 Q216 -134 269 -134 Q336 -134 380 -98.5 Q424 -63 424 11 L424 80 Q397 42 354 18 Q311 -6 262 -6 Q199 -6 150.5 24 Q102 54 74.5 110.5 Q47 167 47 244 Q47 320 74 377 Q101 434 150 464.5 Q199 495 262 495 Q310 495 352 472.5 Q394 450 424 410 L424 483 L499 483 L499 14 Q499 -97 434 -146.5 Q369 -196 269 -196 Q205 -196 160 -180.5 Q115 -165 74 -124 L112 -68 Z M424 350 Q404 383 364 405.5 Q324 428 280 428 Q208 428 166.5 377 Q125 326 125 244 Q125 163 167 111.5 Q209 60 280 60 Q323 60 363.5 83 Q404 106 424 139 L424 350 Z " />
<glyph glyph-name="h" unicode="h" horiz-adv-x="552" d="M402 318 Q402 378 374 403 Q346 428 293 428 Q252 428 212.5 406 Q173 384 150 353 L150 0 L75 0 L75 667 L150 667 L150 413 Q178 446 225 470.5 Q272 495 323 495 Q477 495 477 341 L477 0 L402 0 L402 318 Z " />
<glyph glyph-name="i" unicode="i" horiz-adv-x="225" d="M112 561 Q92 561 77 575.5 Q62 590 62 611 Q62 632 77 647 Q92 662 112 662 Q133 662 148 647 Q163 632 163 611 Q163 590 148 575.5 Q133 561 112 561 Z M75 483 L150 483 L150 0 L75 0 L75 483 Z " />
<glyph glyph-name="j" unicode="j" horiz-adv-x="225" d="M112 561 Q92 561 77 575.5 Q62 590 62 611 Q62 632 77 647 Q92 662 112 662 Q133 662 148 647 Q163 632 163 611 Q163 590 148 575.5 Q133 561 112 561 Z M150 -47 Q150 -118 113 -157 Q76 -196 8 -196 Q-24 -196 -46 -189 L-36 -126 Q-24 -131 0 -131 Q75 -131 75 -47 L75 483 L150 483 L150 -47 Z " />
<glyph glyph-name="k" unicode="k" horiz-adv-x="514" d="M230 217 L150 138 L150 0 L75 0 L75 667 L150 667 L150 226 L404 483 L499 483 L285 264 L500 0 L404 0 L230 217 Z " />
<glyph glyph-name="l" unicode="l" horiz-adv-x="225" d="M75 667 L150 667 L150 0 L75 0 L75 667 Z " />
<glyph glyph-name="m" unicode="m" horiz-adv-x="808" d="M658 328 Q658 375 636 401.5 Q614 428 569 428 Q533 428 497 406 Q461 384 441 354 L441 0 L366 0 L366 328 Q366 428 277 428 Q242 428 206.5 406 Q171 384 150 353 L150 0 L75 0 L75 483 L150 483 L150 413 Q168 441 213 468 Q258 495 306 495 Q359 495 392 470 Q425 445 436 405 Q458 441 503 468 Q548 495 598 495 Q664 495 698.5 458 Q733 421 733 349 L733 0 L658 0 L658 328 Z " />
<glyph glyph-name="n" unicode="n" horiz-adv-x="551" d="M401 316 Q401 377 373 402.5 Q345 428 293 428 Q251 428 211.5 406 Q172 384 150 353 L150 0 L75 0 L75 483 L150 483 L150 413 Q178 446 225 470.5 Q272 495 322 495 Q476 495 476 339 L476 0 L401 0 L401 316 Z " />
<glyph glyph-name="o" unicode="o" horiz-adv-x="572" d="M286 -12 Q214 -12 160 22 Q106 56 76.5 114 Q47 172 47 242 Q47 312 76.5 370 Q106 428 160 461.5 Q214 495 286 495 Q358 495 412 461.5 Q466 428 495.5 370 Q525 312 525 242 Q525 172 495.5 114 Q466 56 412 22 Q358 -12 286 -12 Z M286 55 Q336 55 372 80.5 Q408 106 427 149 Q446 192 446 242 Q446 292 427 334.5 Q408 377 372 402.5 Q336 428 286 428 Q236 428 199.5 402.5 Q163 377 144 334.5 Q125 292 125 242 Q125 192 144 149 Q163 106 199.5 80.5 Q236 55 286 55 Z " />
<glyph glyph-name="p" unicode="p" horiz-adv-x="574" d="M75 -184 L75 483 L150 483 L150 411 Q177 449 220 472 Q263 495 313 495 Q376 495 425 464.5 Q474 434 501 376.5 Q528 319 528 242 Q528 165 501 107.5 Q474 50 425 19 Q376 -12 313 -12 Q264 -12 221.5 10 Q179 32 150 73 L150 -184 L75 -184 Z M449 242 Q449 324 407 376 Q365 428 294 428 Q251 428 210.5 405.5 Q170 383 150 351 L150 133 Q170 100 210.5 77.5 Q251 55 294 55 Q365 55 407 107.5 Q449 160 449 242 Z " />
<glyph glyph-name="q" unicode="q" horiz-adv-x="574" d="M424 -184 L424 73 Q395 32 353 10 Q311 -12 262 -12 Q199 -12 150 19 Q101 50 74 107.5 Q47 165 47 242 Q47 319 74 376.5 Q101 434 150 464.5 Q199 495 262 495 Q312 495 354.5 472 Q397 449 424 411 L424 483 L499 483 L499 -184 L424 -184 Z M424 351 Q404 384 364 406 Q324 428 280 428 Q209 428 167 376 Q125 324 125 242 Q125 160 167 107.5 Q209 55 280 55 Q324 55 364 77.5 Q404 100 424 133 L424 351 Z " />
<glyph glyph-name="r" unicode="r" horiz-adv-x="330" d="M75 483 L150 483 L150 405 Q181 445 222.5 469 Q264 493 311 493 L311 416 Q297 419 281 419 Q247 419 207 395 Q167 371 150 342 L150 0 L75 0 L75 483 Z " />
<glyph glyph-name="s" unicode="s" horiz-adv-x="465" d="M72 118 Q97 89 140.5 69 Q184 49 231 49 Q285 49 315 71 Q345 93 345 129 Q345 165 314 182.5 Q283 200 221 215 Q165 228 130.5 241 Q96 254 71 282 Q46 310 46 356 Q46 394 67.5 425.5 Q89 457 129.5 476 Q170 495 226 495 Q335 495 405 425 L370 373 Q347 400 309 417 Q271 434 226 434 Q177 434 148 414 Q119 394 119 361 Q119 329 148.5 313.5 Q178 298 237 284 Q293 271 329.5 257 Q366 243 392 213.5 Q418 184 418 134 Q418 70 368 29 Q318 -12 228 -12 Q105 -12 33 64 L72 118 Z " />
<glyph glyph-name="t" unicode="t" horiz-adv-x="294" d="M197 -12 Q144 -12 117 17 Q90 46 90 101 L90 417 L10 417 L10 483 L90 483 L90 615 L165 615 L165 483 L263 483 L263 417 L165 417 L165 117 Q165 89 177.5 72 Q190 55 214 55 Q229 55 243 60.5 Q257 66 265 75 L287 19 Q254 -12 197 -12 Z " />
<glyph glyph-name="u" unicode="u" horiz-adv-x="551" d="M401 68 Q371 34 325.5 11 Q280 -12 229 -12 Q75 -12 75 142 L75 483 L150 483 L150 165 Q150 105 177.5 80 Q205 55 258 55 Q300 55 339.5 76 Q379 97 401 128 L401 483 L476 483 L476 0 L401 0 L401 68 Z " />
<glyph glyph-name="v" unicode="v" horiz-adv-x="490" d="M3 483 L84 483 L245 87 L405 483 L487 483 L286 0 L204 0 L3 483 Z " />
<glyph glyph-name="w" unicode="w" horiz-adv-x="734" d="M367 388 L241 0 L166 0 L12 483 L90 483 L208 98 L335 483 L399 483 L526 98 L644 483 L722 483 L568 0 L493 0 L367 388 Z " />
<glyph glyph-name="x" unicode="x" horiz-adv-x="486" d="M243 198 L98 0 L12 0 L197 248 L22 483 L109 483 L243 299 L377 483 L464 483 L289 248 L475 0 L388 0 L243 198 Z " />
<glyph glyph-name="y" unicode="y" horiz-adv-x="490" d="M60 -121 Q78 -129 101 -129 Q127 -129 144 -118 Q161 -107 173 -78 L205 -5 L3 483 L84 483 L245 87 L405 483 L487 483 L245 -98 Q224 -149 188.5 -172 Q153 -195 103 -196 Q73 -196 48 -189 L60 -121 Z " />
<glyph glyph-name="z" unicode="z" horiz-adv-x="472" d="M52 58 L318 417 L52 417 L52 483 L416 483 L416 426 L148 65 L420 65 L420 0 L52 0 L52 58 Z " />
<glyph glyph-name="Aacute" unicode="&#xc1;" horiz-adv-x="658" d="M498 148 L160 148 L101 0 L9 0 L277 667 L380 667 L649 0 L557 0 L498 148 Z M184 222 L473 222 L329 593 L184 222 Z M298 723 L446 867 L524 867 L355 723 L298 723 Z " />
<glyph glyph-name="Abreve" unicode="&#x102;" horiz-adv-x="658" d="M498 148 L160 148 L101 0 L9 0 L277 667 L380 667 L649 0 L557 0 L498 148 Z M184 222 L473 222 L329 593 L184 222 Z M329 717 Q276 717 230 740.5 Q184 764 153 805 L190 837 Q215 803 250.5 784 Q286 765 329 765 Q372 765 407.5 784 Q443 803 467 837 L504 805 Q473 764 427.5 740.5 Q382 717 329 717 Z " />
<glyph glyph-name="Acircumflex" unicode="&#xc2;" horiz-adv-x="658" d="M498 148 L160 148 L101 0 L9 0 L277 667 L380 667 L649 0 L557 0 L498 148 Z M184 222 L473 222 L329 593 L184 222 Z M329 829 L249 723 L198 723 L293 867 L365 867 L463 723 L412 723 L329 829 Z " />
<glyph glyph-name="Adieresis" unicode="&#xc4;" horiz-adv-x="658" d="M498 148 L160 148 L101 0 L9 0 L277 667 L380 667 L649 0 L557 0 L498 148 Z M184 222 L473 222 L329 593 L184 222 Z M226 733 Q207 733 193.5 747 Q180 761 180 780 Q180 799 193.5 812.5 Q207 826 226 826 Q245 826 258.5 812.5 Q272 799 272 780 Q272 760 258.5 746.5 Q245 733 226 733 Z M433 733 Q414 733 400 747 Q386 761 386 780 Q386 799 400 812.5 Q414 826 433 826 Q452 826 465.5 812.5 Q479 799 479 780 Q479 761 465.5 747 Q452 733 433 733 Z " />
<glyph glyph-name="Agrave" unicode="&#xc0;" horiz-adv-x="658" d="M498 148 L160 148 L101 0 L9 0 L277 667 L380 667 L649 0 L557 0 L498 148 Z M184 222 L473 222 L329 593 L184 222 Z M131 867 L209 867 L357 723 L300 723 L131 867 Z " />
<glyph glyph-name="Amacron" unicode="&#x100;" horiz-adv-x="658" d="M498 148 L160 148 L101 0 L9 0 L277 667 L380 667 L649 0 L557 0 L498 148 Z M184 222 L473 222 L329 593 L184 222 Z M175 787 L482 787 L482 739 L175 739 L175 787 Z " />
<glyph glyph-name="Aogonek" unicode="&#x104;" horiz-adv-x="658" d="M634 0 Q590 -19 565 -43 Q540 -67 540 -94 Q540 -112 552 -122.5 Q564 -133 582 -133 Q599 -133 614 -124 L634 -169 Q607 -186 566 -186 Q526 -186 497 -166.5 Q468 -147 468 -111 Q468 -79 496.5 -50 Q525 -21 571 0 L557 0 L498 148 L160 148 L101 0 L9 0 L277 667 L380 667 L649 0 L634 0 Z M473 222 L329 593 L184 222 L473 222 Z " />
<glyph glyph-name="Aring" unicode="&#xc5;" horiz-adv-x="658" d="M498 148 L160 148 L101 0 L9 0 L277 667 L380 667 L649 0 L557 0 L498 148 Z M184 222 L473 222 L329 593 L184 222 Z M231 808 Q231 849 260 878 Q289 907 329 907 Q369 907 398 878 Q427 849 427 808 Q427 768 398.5 739 Q370 710 329 710 Q289 710 260 739 Q231 768 231 808 Z M387 808 Q387 833 370.5 850 Q354 867 329 867 Q305 867 288 850 Q271 833 271 808 Q271 784 288 766.5 Q305 749 329 749 Q353 749 370 766.5 Q387 784 387 808 Z " />
<glyph glyph-name="Atilde" unicode="&#xc3;" horiz-adv-x="658" d="M498 148 L160 148 L101 0 L9 0 L277 667 L380 667 L649 0 L557 0 L498 148 Z M184 222 L473 222 L329 593 L184 222 Z M313 774 Q300 794 290.5 803.5 Q281 813 266 813 Q245 813 231.5 791.5 Q218 770 218 727 L173 727 Q173 787 198.5 824 Q224 861 270 861 Q296 861 311.5 847.5 Q327 834 345 808 Q360 787 369 778 Q378 769 393 769 Q414 769 427.5 790.5 Q441 812 441 855 L486 855 Q486 795 460.5 758 Q435 721 389 721 Q362 721 346.5 734.5 Q331 748 313 774 Z " />
<glyph glyph-name="uni1EA0" unicode="&#x1ea0;" horiz-adv-x="658" d="M498 148 L160 148 L101 0 L9 0 L277 667 L380 667 L649 0 L557 0 L498 148 Z M184 222 L473 222 L329 593 L184 222 Z M282 -129 Q282 -110 296 -96 Q310 -82 329 -82 Q348 -82 361.5 -95.5 Q375 -109 375 -129 Q375 -149 361.5 -162.5 Q348 -176 329 -176 Q310 -176 296 -162 Q282 -148 282 -129 Z " />
<glyph glyph-name="uni1EA2" unicode="&#x1ea2;" horiz-adv-x="658" d="M498 148 L160 148 L101 0 L9 0 L277 667 L380 667 L649 0 L557 0 L498 148 Z M184 222 L473 222 L329 593 L184 222 Z M228 813 Q238 844 263 863.5 Q288 883 323 883 Q362 883 388.5 860.5 Q415 838 415 793 Q415 774 409.5 758 Q404 742 391 724 L340 724 Q369 756 369 792 Q369 817 356.5 829.5 Q344 842 323 842 Q285 842 270 800 L228 813 Z " />
<glyph glyph-name="uni1EA4" unicode="&#x1ea4;" horiz-adv-x="658" d="M431 780 L579 888 L657 888 L488 780 L431 780 Z M329 784 L249 705 L198 705 L293 813 L365 813 L463 705 L412 705 L329 784 Z M498 148 L160 148 L101 0 L9 0 L277 667 L380 667 L649 0 L557 0 L498 148 Z M184 222 L473 222 L329 593 L184 222 Z " />
<glyph glyph-name="uni1EAC" unicode="&#x1eac;" horiz-adv-x="658" d="M498 148 L160 148 L101 0 L9 0 L277 667 L380 667 L649 0 L557 0 L498 148 Z M184 222 L473 222 L329 593 L184 222 Z M282 -129 Q282 -110 296 -96 Q310 -82 329 -82 Q348 -82 361.5 -95.5 Q375 -109 375 -129 Q375 -149 361.5 -162.5 Q348 -176 329 -176 Q310 -176 296 -162 Q282 -148 282 -129 Z M329 829 L249 723 L198 723 L293 867 L365 867 L463 723 L412 723 L329 829 Z " />
<glyph glyph-name="uni1EA6" unicode="&#x1ea6;" horiz-adv-x="658" d="M5 888 L83 888 L231 780 L174 780 L5 888 Z M329 784 L249 705 L198 705 L293 813 L365 813 L463 705 L412 705 L329 784 Z M498 148 L160 148 L101 0 L9 0 L277 667 L380 667 L649 0 L557 0 L498 148 Z M184 222 L473 222 L329 593 L184 222 Z " />
<glyph glyph-name="uni1EA8" unicode="&#x1ea8;" horiz-adv-x="658" d="M319 846 Q329 870 354 884.5 Q379 899 414 899 Q453 899 479.5 882 Q506 865 506 832 Q506 817 500.5 805 Q495 793 482 780 L431 780 Q460 803 460 831 Q460 849 447.5 859 Q435 869 414 869 Q375 869 361 837 L319 846 Z M329 784 L249 705 L198 705 L293 813 L365 813 L463 705 L412 705 L329 784 Z M498 148 L160 148 L101 0 L9 0 L277 667 L380 667 L649 0 L557 0 L498 148 Z M184 222 L473 222 L329 593 L184 222 Z " />
<glyph glyph-name="uni1EAE" unicode="&#x1eae;" horiz-adv-x="658" d="M298 807 L446 915 L524 915 L355 807 L298 807 Z M329 707 Q276 707 230 726.5 Q184 746 153 781 L190 808 Q215 779 250.5 763 Q286 747 329 747 Q372 747 407.5 763.5 Q443 780 467 808 L504 781 Q474 746 428 726.5 Q382 707 329 707 Z M498 148 L160 148 L101 0 L9 0 L277 667 L380 667 L649 0 L557 0 L498 148 Z M184 222 L473 222 L329 593 L184 222 Z " />
<glyph glyph-name="uni1EAA" unicode="&#x1eaa;" horiz-adv-x="658" d="M313 864 Q301 879 291 886.5 Q281 894 266 894 Q245 894 231.5 877.5 Q218 861 218 829 L173 829 Q173 874 198.5 902 Q224 930 270 930 Q296 930 311.5 920 Q327 910 345 890 Q358 875 368 868 Q378 861 393 861 Q415 861 428 877 Q441 893 441 925 L486 925 Q486 880 460.5 852.5 Q435 825 389 825 Q362 825 346 835 Q330 845 313 864 Z M329 784 L249 705 L198 705 L293 813 L365 813 L463 705 L412 705 L329 784 Z M498 148 L160 148 L101 0 L9 0 L277 667 L380 667 L649 0 L557 0 L498 148 Z M184 222 L473 222 L329 593 L184 222 Z " />
<glyph glyph-name="uni1EB0" unicode="&#x1eb0;" horiz-adv-x="658" d="M131 915 L209 915 L357 807 L300 807 L131 915 Z M329 707 Q276 707 230 726.5 Q184 746 153 781 L190 808 Q215 779 250.5 763 Q286 747 329 747 Q372 747 407.5 763.5 Q443 780 467 808 L504 781 Q474 746 428 726.5 Q382 707 329 707 Z M498 148 L160 148 L101 0 L9 0 L277 667 L380 667 L649 0 L557 0 L498 148 Z M184 222 L473 222 L329 593 L184 222 Z " />
<glyph glyph-name="uni1EB2" unicode="&#x1eb2;" horiz-adv-x="658" d="M228 874 Q238 898 263 912.5 Q288 927 323 927 Q362 927 388.5 910 Q415 893 415 860 Q415 845 409.5 833 Q404 821 391 808 L340 808 Q369 831 369 859 Q369 877 356.5 887 Q344 897 323 897 Q284 897 270 865 L228 874 Z M329 707 Q276 707 230 726.5 Q184 746 153 781 L190 808 Q215 779 250.5 763 Q286 747 329 747 Q372 747 407.5 763.5 Q443 780 467 808 L504 781 Q474 746 428 726.5 Q382 707 329 707 Z M498 148 L160 148 L101 0 L9 0 L277 667 L380 667 L649 0 L557 0 L498 148 Z M184 222 L473 222 L329 593 L184 222 Z " />
<glyph glyph-name="uni1EB4" unicode="&#x1eb4;" horiz-adv-x="658" d="M313 833 Q301 848 291 855.5 Q281 863 266 863 Q245 863 231.5 846.5 Q218 830 218 798 L173 798 Q173 843 198.5 871 Q224 899 270 899 Q296 899 311.5 889 Q327 879 345 859 Q358 844 368 837 Q378 830 393 830 Q415 830 428 846 Q441 862 441 894 L486 894 Q486 849 460.5 821.5 Q435 794 389 794 Q362 794 346 804 Q330 814 313 833 Z M329 701 Q276 701 230 718.5 Q184 736 153 767 L190 790 Q215 765 250.5 751 Q286 737 329 737 Q372 737 407.5 751 Q443 765 467 790 L504 767 Q474 736 428 718.5 Q382 701 329 701 Z M498 148 L160 148 L101 0 L9 0 L277 667 L380 667 L649 0 L557 0 L498 148 Z M184 222 L473 222 L329 593 L184 222 Z " />
<glyph glyph-name="uni1EB6" unicode="&#x1eb6;" horiz-adv-x="658" d="M498 148 L160 148 L101 0 L9 0 L277 667 L380 667 L649 0 L557 0 L498 148 Z M184 222 L473 222 L329 593 L184 222 Z M329 717 Q276 717 230 740.5 Q184 764 153 805 L190 837 Q215 803 250.5 784 Q286 765 329 765 Q372 765 407.5 784 Q443 803 467 837 L504 805 Q473 764 427.5 740.5 Q382 717 329 717 Z M282 -129 Q282 -110 296 -96 Q310 -82 329 -82 Q348 -82 361.5 -95.5 Q375 -109 375 -129 Q375 -149 361.5 -162.5 Q348 -176 329 -176 Q310 -176 296 -162 Q282 -148 282 -129 Z " />
<glyph glyph-name="AE" unicode="&#xc6;" horiz-adv-x="947" d="M456 148 L190 148 L99 0 L7 0 L423 667 L893 667 L893 593 L539 593 L539 378 L886 378 L886 304 L539 304 L539 74 L893 74 L893 0 L456 0 L456 148 Z M231 222 L456 222 L456 593 L231 222 Z " />
<glyph glyph-name="AEacute" unicode="&#x1fc;" horiz-adv-x="947" d="M456 148 L190 148 L99 0 L7 0 L423 667 L893 667 L893 593 L539 593 L539 378 L886 378 L886 304 L539 304 L539 74 L893 74 L893 0 L456 0 L456 148 Z M231 222 L456 222 L456 593 L231 222 Z M465 723 L613 867 L691 867 L522 723 L465 723 Z " />
<glyph glyph-name="uni1E02" unicode="&#x1e02;" horiz-adv-x="629" d="M78 667 L375 667 Q461 667 511.5 620 Q562 573 562 497 Q562 437 528 395.5 Q494 354 445 344 Q480 339 510 315 Q540 291 557.5 255 Q575 219 575 180 Q575 99 523.5 49.5 Q472 0 382 0 L78 0 L78 667 Z M361 378 Q416 378 446 408 Q476 438 476 485 Q476 532 445.5 562.5 Q415 593 361 593 L161 593 L161 378 L361 378 Z M365 74 Q423 74 456 105 Q489 136 489 189 Q489 238 456.5 271 Q424 304 365 304 L161 304 L161 74 L365 74 Z M264 778 Q264 797 278 811 Q292 825 311 825 Q330 825 343.5 811.5 Q357 798 357 778 Q357 758 343.5 744.5 Q330 731 311 731 Q292 731 278 745 Q264 759 264 778 Z " />
<glyph glyph-name="Cacute" unicode="&#x106;" horiz-adv-x="676" d="M391 -12 Q297 -12 219 31.5 Q141 75 96 154 Q51 233 51 333 Q51 433 96 512 Q141 591 219 634.5 Q297 678 391 678 Q477 678 540.5 642.5 Q604 607 647 546 L577 507 Q548 550 498.5 577 Q449 604 391 604 Q320 604 262 569.5 Q204 535 170.5 473 Q137 411 137 333 Q137 255 170.5 193.5 Q204 132 262 97 Q320 62 391 62 Q449 62 498.5 88.5 Q548 115 577 159 L648 120 Q551 -12 391 -12 Z M360 723 L508 867 L586 867 L417 723 L360 723 Z " />
<glyph glyph-name="Ccedilla" unicode="&#xc7;" horiz-adv-x="676" d="M648 120 Q555 -5 406 -12 L389 -55 Q405 -44 426 -44 Q455 -44 473.5 -62 Q492 -80 492 -109 Q492 -146 462 -168.5 Q432 -191 388 -191 Q357 -191 330 -182.5 Q303 -174 287 -161 L306 -123 Q341 -152 386 -152 Q412 -152 429.5 -140.5 Q447 -129 447 -108 Q447 -93 437.5 -84 Q428 -75 410 -75 Q400 -75 389.5 -79.5 Q379 -84 372 -92 L339 -73 L362 -11 Q274 -4 203 41 Q132 86 91.5 162 Q51 238 51 333 Q51 433 96 512 Q141 591 219 634.5 Q297 678 391 678 Q477 678 540.5 642.5 Q604 607 647 546 L577 507 Q548 550 498.5 577 Q449 604 391 604 Q320 604 262 569.5 Q204 535 170.5 473 Q137 411 137 333 Q137 255 170.5 193.5 Q204 132 262 97 Q320 62 391 62 Q449 62 498.5 88.5 Q548 115 577 159 L648 120 Z " />
<glyph glyph-name="Ccircumflex" unicode="&#x108;" horiz-adv-x="676" d="M391 -12 Q297 -12 219 31.5 Q141 75 96 154 Q51 233 51 333 Q51 433 96 512 Q141 591 219 634.5 Q297 678 391 678 Q477 678 540.5 642.5 Q604 607 647 546 L577 507 Q548 550 498.5 577 Q449 604 391 604 Q320 604 262 569.5 Q204 535 170.5 473 Q137 411 137 333 Q137 255 170.5 193.5 Q204 132 262 97 Q320 62 391 62 Q449 62 498.5 88.5 Q548 115 577 159 L648 120 Q551 -12 391 -12 Z M391 829 L311 723 L260 723 L355 867 L427 867 L525 723 L474 723 L391 829 Z " />
<glyph glyph-name="Cdotaccent" unicode="&#x10a;" horiz-adv-x="676" d="M391 -12 Q297 -12 219 31.5 Q141 75 96 154 Q51 233 51 333 Q51 433 96 512 Q141 591 219 634.5 Q297 678 391 678 Q477 678 540.5 642.5 Q604 607 647 546 L577 507 Q548 550 498.5 577 Q449 604 391 604 Q320 604 262 569.5 Q204 535 170.5 473 Q137 411 137 333 Q137 255 170.5 193.5 Q204 132 262 97 Q320 62 391 62 Q449 62 498.5 88.5 Q548 115 577 159 L648 120 Q551 -12 391 -12 Z M344 778 Q344 797 358 811 Q372 825 391 825 Q410 825 423.5 811.5 Q437 798 437 778 Q437 758 423.5 744.5 Q410 731 391 731 Q372 731 358 745 Q344 759 344 778 Z " />
<glyph glyph-name="Ccaron" unicode="&#x10c;" horiz-adv-x="676" d="M391 -12 Q297 -12 219 31.5 Q141 75 96 154 Q51 233 51 333 Q51 433 96 512 Q141 591 219 634.5 Q297 678 391 678 Q477 678 540.5 642.5 Q604 607 647 546 L577 507 Q548 550 498.5 577 Q449 604 391 604 Q320 604 262 569.5 Q204 535 170.5 473 Q137 411 137 333 Q137 255 170.5 193.5 Q204 132 262 97 Q320 62 391 62 Q449 62 498.5 88.5 Q548 115 577 159 L648 120 Q551 -12 391 -12 Z M257 867 L308 867 L391 761 L471 867 L522 867 L427 723 L355 723 L257 867 Z " />
<glyph glyph-name="Dcaron" unicode="&#x10e;" horiz-adv-x="700" d="M78 667 L306 667 Q407 667 485 623.5 Q563 580 605.5 503.5 Q648 427 648 333 Q648 238 605.5 162.5 Q563 87 485 43.5 Q407 0 306 0 L78 0 L78 667 Z M306 74 Q385 74 443 108.5 Q501 143 531.5 202 Q562 261 562 333 Q562 406 532 465 Q502 524 444 558.5 Q386 593 306 593 L161 593 L161 74 L306 74 Z M218 867 L269 867 L352 761 L432 867 L483 867 L388 723 L316 723 L218 867 Z " />
<glyph glyph-name="Dcroat" unicode="&#x110;" horiz-adv-x="728" d="M334 667 Q435 667 513 623.5 Q591 580 633.5 503.5 Q676 427 676 333 Q676 238 633.5 162.5 Q591 87 513 43.5 Q435 0 334 0 L106 0 L106 298 L10 298 L10 361 L106 361 L106 667 L334 667 Z M334 74 Q413 74 471 108.5 Q529 143 559.5 202 Q590 261 590 333 Q590 406 560 465 Q530 524 472 558.5 Q414 593 334 593 L189 593 L189 361 L359 361 L359 298 L189 298 L189 74 L334 74 Z " />
<glyph glyph-name="uni1E0A" unicode="&#x1e0a;" horiz-adv-x="700" d="M78 667 L306 667 Q407 667 485 623.5 Q563 580 605.5 503.5 Q648 427 648 333 Q648 238 605.5 162.5 Q563 87 485 43.5 Q407 0 306 0 L78 0 L78 667 Z M306 74 Q385 74 443 108.5 Q501 143 531.5 202 Q562 261 562 333 Q562 406 532 465 Q502 524 444 558.5 Q386 593 306 593 L161 593 L161 74 L306 74 Z M305 778 Q305 797 319 811 Q333 825 352 825 Q371 825 384.5 811.5 Q398 798 398 778 Q398 758 384.5 744.5 Q371 731 352 731 Q333 731 319 745 Q305 759 305 778 Z " />
<glyph glyph-name="Eacute" unicode="&#xc9;" horiz-adv-x="569" d="M78 667 L515 667 L515 593 L161 593 L161 378 L508 378 L508 304 L161 304 L161 74 L515 74 L515 0 L78 0 L78 667 Z M271 723 L419 867 L497 867 L328 723 L271 723 Z " />
<glyph glyph-name="Ebreve" unicode="&#x114;" horiz-adv-x="569" d="M78 667 L515 667 L515 593 L161 593 L161 378 L508 378 L508 304 L161 304 L161 74 L515 74 L515 0 L78 0 L78 667 Z M302 717 Q249 717 203 740.5 Q157 764 126 805 L163 837 Q188 803 223.5 784 Q259 765 302 765 Q345 765 380.5 784 Q416 803 440 837 L477 805 Q446 764 400.5 740.5 Q355 717 302 717 Z " />
<glyph glyph-name="Ecircumflex" unicode="&#xca;" horiz-adv-x="569" d="M78 667 L515 667 L515 593 L161 593 L161 378 L508 378 L508 304 L161 304 L161 74 L515 74 L515 0 L78 0 L78 667 Z M302 829 L222 723 L171 723 L266 867 L338 867 L436 723 L385 723 L302 829 Z " />
<glyph glyph-name="Edieresis" unicode="&#xcb;" horiz-adv-x="569" d="M78 667 L515 667 L515 593 L161 593 L161 378 L508 378 L508 304 L161 304 L161 74 L515 74 L515 0 L78 0 L78 667 Z M199 733 Q180 733 166.5 747 Q153 761 153 780 Q153 799 166.5 812.5 Q180 826 199 826 Q218 826 231.5 812.5 Q245 799 245 780 Q245 760 231.5 746.5 Q218 733 199 733 Z M406 733 Q387 733 373 747 Q359 761 359 780 Q359 799 373 812.5 Q387 826 406 826 Q425 826 438.5 812.5 Q452 799 452 780 Q452 761 438.5 747 Q425 733 406 733 Z " />
<glyph glyph-name="Edotaccent" unicode="&#x116;" horiz-adv-x="569" d="M78 667 L515 667 L515 593 L161 593 L161 378 L508 378 L508 304 L161 304 L161 74 L515 74 L515 0 L78 0 L78 667 Z M255 778 Q255 797 269 811 Q283 825 302 825 Q321 825 334.5 811.5 Q348 798 348 778 Q348 758 334.5 744.5 Q321 731 302 731 Q283 731 269 745 Q255 759 255 778 Z " />
<glyph glyph-name="Egrave" unicode="&#xc8;" horiz-adv-x="569" d="M78 667 L515 667 L515 593 L161 593 L161 378 L508 378 L508 304 L161 304 L161 74 L515 74 L515 0 L78 0 L78 667 Z M104 867 L182 867 L330 723 L273 723 L104 867 Z " />
<glyph glyph-name="Emacron" unicode="&#x112;" horiz-adv-x="569" d="M78 667 L515 667 L515 593 L161 593 L161 378 L508 378 L508 304 L161 304 L161 74 L515 74 L515 0 L78 0 L78 667 Z M148 787 L455 787 L455 739 L148 739 L148 787 Z " />
<glyph glyph-name="Eogonek" unicode="&#x118;" horiz-adv-x="569" d="M161 593 L161 378 L508 378 L508 304 L161 304 L161 74 L515 74 L515 0 Q471 -19 446 -43 Q421 -67 421 -94 Q421 -112 433 -122.5 Q445 -133 463 -133 Q480 -133 495 -124 L515 -169 Q488 -186 447 -186 Q407 -186 378 -166.5 Q349 -147 349 -111 Q349 -79 377.5 -50 Q406 -21 452 0 L78 0 L78 667 L515 667 L515 593 L161 593 Z " />
<glyph glyph-name="Ecaron" unicode="&#x11a;" horiz-adv-x="569" d="M78 667 L515 667 L515 593 L161 593 L161 378 L508 378 L508 304 L161 304 L161 74 L515 74 L515 0 L78 0 L78 667 Z M168 867 L219 867 L302 761 L382 867 L433 867 L338 723 L266 723 L168 867 Z " />
<glyph glyph-name="uni1EB8" unicode="&#x1eb8;" horiz-adv-x="569" d="M78 667 L515 667 L515 593 L161 593 L161 378 L508 378 L508 304 L161 304 L161 74 L515 74 L515 0 L78 0 L78 667 Z M255 -129 Q255 -110 269 -96 Q283 -82 302 -82 Q321 -82 334.5 -95.5 Q348 -109 348 -129 Q348 -149 334.5 -162.5 Q321 -176 302 -176 Q283 -176 269 -162 Q255 -148 255 -129 Z " />
<glyph glyph-name="uni1EBA" unicode="&#x1eba;" horiz-adv-x="569" d="M78 667 L515 667 L515 593 L161 593 L161 378 L508 378 L508 304 L161 304 L161 74 L515 74 L515 0 L78 0 L78 667 Z M201 813 Q211 844 236 863.5 Q261 883 296 883 Q335 883 361.5 860.5 Q388 838 388 793 Q388 774 382.5 758 Q377 742 364 724 L313 724 Q342 756 342 792 Q342 817 329.5 829.5 Q317 842 296 842 Q258 842 243 800 L201 813 Z " />
<glyph glyph-name="uni1EBC" unicode="&#x1ebc;" horiz-adv-x="569" d="M78 667 L515 667 L515 593 L161 593 L161 378 L508 378 L508 304 L161 304 L161 74 L515 74 L515 0 L78 0 L78 667 Z M286 774 Q273 794 263.5 803.5 Q254 813 239 813 Q218 813 204.5 791.5 Q191 770 191 727 L146 727 Q146 787 171.5 824 Q197 861 243 861 Q269 861 284.5 847.5 Q300 834 318 808 Q333 787 342 778 Q351 769 366 769 Q387 769 400.5 790.5 Q414 812 414 855 L459 855 Q459 795 433.5 758 Q408 721 362 721 Q335 721 319.5 734.5 Q304 748 286 774 Z " />
<glyph glyph-name="uni1EBE" unicode="&#x1ebe;" horiz-adv-x="569" d="M404 780 L552 888 L630 888 L461 780 L404 780 Z M302 784 L222 705 L171 705 L266 813 L338 813 L436 705 L385 705 L302 784 Z M78 667 L515 667 L515 593 L161 593 L161 378 L508 378 L508 304 L161 304 L161 74 L515 74 L515 0 L78 0 L78 667 Z " />
<glyph glyph-name="uni1EC0" unicode="&#x1ec0;" horiz-adv-x="569" d="M-22 888 L56 888 L204 780 L147 780 L-22 888 Z M302 784 L222 705 L171 705 L266 813 L338 813 L436 705 L385 705 L302 784 Z M78 667 L515 667 L515 593 L161 593 L161 378 L508 378 L508 304 L161 304 L161 74 L515 74 L515 0 L78 0 L78 667 Z " />
<glyph glyph-name="uni1EC2" unicode="&#x1ec2;" horiz-adv-x="569" d="M292 846 Q302 870 327 884.5 Q352 899 387 899 Q426 899 452.5 882 Q479 865 479 832 Q479 817 473.5 805 Q468 793 455 780 L404 780 Q433 803 433 831 Q433 849 420.5 859 Q408 869 387 869 Q348 869 334 837 L292 846 Z M302 784 L222 705 L171 705 L266 813 L338 813 L436 705 L385 705 L302 784 Z M78 667 L515 667 L515 593 L161 593 L161 378 L508 378 L508 304 L161 304 L161 74 L515 74 L515 0 L78 0 L78 667 Z " />
<glyph glyph-name="uni1EC4" unicode="&#x1ec4;" horiz-adv-x="569" d="M286 864 Q274 879 264 886.5 Q254 894 239 894 Q218 894 204.5 877.5 Q191 861 191 829 L146 829 Q146 874 171.5 902 Q197 930 243 930 Q269 930 284.5 920 Q300 910 318 890 Q331 875 341 868 Q351 861 366 861 Q388 861 401 877 Q414 893 414 925 L459 925 Q459 880 433.5 852.5 Q408 825 362 825 Q335 825 319 835 Q303 845 286 864 Z M302 784 L222 705 L171 705 L266 813 L338 813 L436 705 L385 705 L302 784 Z M78 667 L515 667 L515 593 L161 593 L161 378 L508 378 L508 304 L161 304 L161 74 L515 74 L515 0 L78 0 L78 667 Z " />
<glyph glyph-name="uni1EC6" unicode="&#x1ec6;" horiz-adv-x="569" d="M78 667 L515 667 L515 593 L161 593 L161 378 L508 378 L508 304 L161 304 L161 74 L515 74 L515 0 L78 0 L78 667 Z M255 -129 Q255 -110 269 -96 Q283 -82 302 -82 Q321 -82 334.5 -95.5 Q348 -109 348 -129 Q348 -149 334.5 -162.5 Q321 -176 302 -176 Q283 -176 269 -162 Q255 -148 255 -129 Z M302 829 L222 723 L171 723 L266 867 L338 867 L436 723 L385 723 L302 829 Z " />
<glyph glyph-name="uni1E1E" unicode="&#x1e1e;" horiz-adv-x="550" d="M78 667 L515 667 L515 593 L161 593 L161 378 L508 378 L508 304 L161 304 L161 0 L78 0 L78 667 Z M254 778 Q254 797 268 811 Q282 825 301 825 Q320 825 333.5 811.5 Q347 798 347 778 Q347 758 333.5 744.5 Q320 731 301 731 Q282 731 268 745 Q254 759 254 778 Z " />
<glyph glyph-name="Gcircumflex" unicode="&#x11c;" horiz-adv-x="713" d="M51 333 Q51 434 96.5 512.5 Q142 591 220.5 634.5 Q299 678 394 678 Q552 678 653 553 L587 512 Q555 554 503.5 579 Q452 604 394 604 Q322 604 263 569.5 Q204 535 170.5 473 Q137 411 137 333 Q137 255 170.5 193 Q204 131 263 96 Q322 61 394 61 Q449 61 496.5 82.5 Q544 104 573 133 L573 269 L344 269 L344 343 L656 343 L656 102 Q608 48 540.5 17.5 Q473 -13 394 -13 Q299 -13 220.5 30.5 Q142 74 96.5 153 Q51 232 51 333 Z M393 829 L313 723 L262 723 L357 867 L429 867 L527 723 L476 723 L393 829 Z " />
<glyph glyph-name="Gbreve" unicode="&#x11e;" horiz-adv-x="713" d="M51 333 Q51 434 96.5 512.5 Q142 591 220.5 634.5 Q299 678 394 678 Q552 678 653 553 L587 512 Q555 554 503.5 579 Q452 604 394 604 Q322 604 263 569.5 Q204 535 170.5 473 Q137 411 137 333 Q137 255 170.5 193 Q204 131 263 96 Q322 61 394 61 Q449 61 496.5 82.5 Q544 104 573 133 L573 269 L344 269 L344 343 L656 343 L656 102 Q608 48 540.5 17.5 Q473 -13 394 -13 Q299 -13 220.5 30.5 Q142 74 96.5 153 Q51 232 51 333 Z M393 717 Q340 717 294 740.5 Q248 764 217 805 L254 837 Q279 803 314.5 784 Q350 765 393 765 Q436 765 471.5 784 Q507 803 531 837 L568 805 Q537 764 491.5 740.5 Q446 717 393 717 Z " />
<glyph glyph-name="Gdotaccent" unicode="&#x120;" horiz-adv-x="713" d="M51 333 Q51 434 96.5 512.5 Q142 591 220.5 634.5 Q299 678 394 678 Q552 678 653 553 L587 512 Q555 554 503.5 579 Q452 604 394 604 Q322 604 263 569.5 Q204 535 170.5 473 Q137 411 137 333 Q137 255 170.5 193 Q204 131 263 96 Q322 61 394 61 Q449 61 496.5 82.5 Q544 104 573 133 L573 269 L344 269 L344 343 L656 343 L656 102 Q608 48 540.5 17.5 Q473 -13 394 -13 Q299 -13 220.5 30.5 Q142 74 96.5 153 Q51 232 51 333 Z M347 -129 Q347 -110 361 -96 Q375 -82 394 -82 Q413 -82 426.5 -95.5 Q440 -109 440 -129 Q440 -149 426.5 -162.5 Q413 -176 394 -176 Q375 -176 361 -162 Q347 -148 347 -129 Z " />
<glyph glyph-name="uni0122" unicode="&#x122;" horiz-adv-x="713" d="M51 333 Q51 434 96.5 512.5 Q142 591 220.5 634.5 Q299 678 394 678 Q552 678 653 553 L587 512 Q555 554 503.5 579 Q452 604 394 604 Q322 604 263 569.5 Q204 535 170.5 473 Q137 411 137 333 Q137 255 170.5 193 Q204 131 263 96 Q322 61 394 61 Q449 61 496.5 82.5 Q544 104 573 133 L573 269 L344 269 L344 343 L656 343 L656 102 Q608 48 540.5 17.5 Q473 -13 394 -13 Q299 -13 220.5 30.5 Q142 74 96.5 153 Q51 232 51 333 Z M343 -246 Q366 -231 382.5 -206.5 Q399 -182 401 -160 Q399 -162 390 -162 Q372 -162 360 -149.5 Q348 -137 348 -118 Q348 -98 361.5 -84.5 Q375 -71 394 -71 Q416 -71 431.5 -89 Q447 -107 447 -138 Q447 -177 427 -213 Q407 -249 376 -272 L343 -246 Z " />
<glyph glyph-name="Hbar" unicode="&#x126;" horiz-adv-x="731" d="M723 498 L644 498 L644 0 L561 0 L561 306 L171 306 L171 0 L88 0 L88 498 L10 498 L10 546 L88 546 L88 667 L171 667 L171 546 L561 546 L561 667 L644 667 L644 546 L723 546 L723 498 Z M561 498 L171 498 L171 380 L561 380 L561 498 Z " />
<glyph glyph-name="Hcircumflex" unicode="&#x124;" horiz-adv-x="712" d="M551 306 L161 306 L161 0 L78 0 L78 667 L161 667 L161 380 L551 380 L551 667 L634 667 L634 0 L551 0 L551 306 Z M356 829 L276 723 L225 723 L320 867 L392 867 L490 723 L439 723 L356 829 Z " />
<glyph glyph-name="uni1E22" unicode="&#x1e22;" horiz-adv-x="712" d="M551 306 L161 306 L161 0 L78 0 L78 667 L161 667 L161 380 L551 380 L551 667 L634 667 L634 0 L551 0 L551 306 Z M309 778 Q309 797 323 811 Q337 825 356 825 Q375 825 388.5 811.5 Q402 798 402 778 Q402 758 388.5 744.5 Q375 731 356 731 Q337 731 323 745 Q309 759 309 778 Z " />
<glyph glyph-name="Iacute" unicode="&#xcd;" horiz-adv-x="239" d="M78 667 L161 667 L161 0 L78 0 L78 667 Z M89 723 L237 867 L315 867 L146 723 L89 723 Z " />
<glyph glyph-name="Ibreve" unicode="&#x12c;" horiz-adv-x="239" d="M78 667 L161 667 L161 0 L78 0 L78 667 Z M120 717 Q67 717 21 740.5 Q-25 764 -56 805 L-19 837 Q6 803 41.5 784 Q77 765 120 765 Q163 765 198.5 784 Q234 803 258 837 L295 805 Q264 764 218.5 740.5 Q173 717 120 717 Z " />
<glyph glyph-name="Icircumflex" unicode="&#xce;" horiz-adv-x="239" d="M78 667 L161 667 L161 0 L78 0 L78 667 Z M120 829 L40 723 L-11 723 L84 867 L156 867 L254 723 L203 723 L120 829 Z " />
<glyph glyph-name="Idieresis" unicode="&#xcf;" horiz-adv-x="239" d="M78 667 L161 667 L161 0 L78 0 L78 667 Z M16 733 Q-3 733 -16.5 747 Q-30 761 -30 780 Q-30 799 -16.5 812.5 Q-3 826 16 826 Q35 826 48.5 812.5 Q62 799 62 780 Q62 760 48.5 746.5 Q35 733 16 733 Z M223 733 Q204 733 190 747 Q176 761 176 780 Q176 799 190 812.5 Q204 826 223 826 Q242 826 255.5 812.5 Q269 799 269 780 Q269 761 255.5 747 Q242 733 223 733 Z " />
<glyph glyph-name="Idot" unicode="&#x130;" horiz-adv-x="239" d="M78 667 L161 667 L161 0 L78 0 L78 667 Z M73 778 Q73 797 87 811 Q101 825 120 825 Q139 825 152.5 811.5 Q166 798 166 778 Q166 758 152.5 744.5 Q139 731 120 731 Q101 731 87 745 Q73 759 73 778 Z " />
<glyph glyph-name="Igrave" unicode="&#xcc;" horiz-adv-x="239" d="M78 667 L161 667 L161 0 L78 0 L78 667 Z M-78 867 L0 867 L148 723 L91 723 L-78 867 Z " />
<glyph glyph-name="Imacron" unicode="&#x12a;" horiz-adv-x="239" d="M78 667 L161 667 L161 0 L78 0 L78 667 Z M-34 787 L273 787 L273 739 L-34 739 L-34 787 Z " />
<glyph glyph-name="Iogonek" unicode="&#x12e;" horiz-adv-x="239" d="M109 -133 Q126 -133 141 -124 L161 -169 Q134 -186 93 -186 Q53 -186 24 -166.5 Q-5 -147 -5 -111 Q-5 -79 23.5 -50 Q52 -21 98 0 L78 0 L78 667 L161 667 L161 0 Q117 -19 92 -43 Q67 -67 67 -94 Q67 -112 79 -122.5 Q91 -133 109 -133 Z " />
<glyph glyph-name="Itilde" unicode="&#x128;" horiz-adv-x="239" d="M78 667 L161 667 L161 0 L78 0 L78 667 Z M104 774 Q91 794 81.5 803.5 Q72 813 57 813 Q36 813 22.5 791.5 Q9 770 9 727 L-36 727 Q-36 787 -10.5 824 Q15 861 61 861 Q87 861 102.5 847.5 Q118 834 136 808 Q151 787 160 778 Q169 769 184 769 Q205 769 218.5 790.5 Q232 812 232 855 L277 855 Q277 795 251.5 758 Q226 721 180 721 Q153 721 137.5 734.5 Q122 748 104 774 Z " />
<glyph glyph-name="uni1EC8" unicode="&#x1ec8;" horiz-adv-x="239" d="M78 667 L161 667 L161 0 L78 0 L78 667 Z M19 813 Q29 844 54 863.5 Q79 883 114 883 Q153 883 179.5 860.5 Q206 838 206 793 Q206 774 200.5 758 Q195 742 182 724 L131 724 Q160 756 160 792 Q160 817 147.5 829.5 Q135 842 114 842 Q76 842 61 800 L19 813 Z " />
<glyph glyph-name="uni1ECA" unicode="&#x1eca;" horiz-adv-x="239" d="M78 667 L161 667 L161 0 L78 0 L78 667 Z M73 -129 Q73 -110 87 -96 Q101 -82 120 -82 Q139 -82 152.5 -95.5 Q166 -109 166 -129 Q166 -149 152.5 -162.5 Q139 -176 120 -176 Q101 -176 87 -162 Q73 -148 73 -129 Z " />
<glyph glyph-name="IJ" unicode="&#x132;" horiz-adv-x="713" d="M78 667 L161 667 L161 0 L78 0 L78 667 Z M293 128 Q348 62 419 62 Q480 62 516.5 100.5 Q553 139 553 202 L553 667 L636 667 L636 201 Q636 97 577 42.5 Q518 -12 424 -12 Q370 -12 327 6.5 Q284 25 250 65 L293 128 Z " />
<glyph glyph-name="Jcircumflex" unicode="&#x134;" horiz-adv-x="475" d="M54 128 Q109 62 180 62 Q241 62 277.5 100.5 Q314 139 314 202 L314 667 L397 667 L397 201 Q397 97 338 42.5 Q279 -12 185 -12 Q131 -12 88 6.5 Q45 25 11 65 L54 128 Z M357 846 L277 740 L226 740 L321 884 L393 884 L491 740 L440 740 L357 846 Z " />
<glyph glyph-name="uni0136" unicode="&#x136;" horiz-adv-x="601" d="M228 300 L161 224 L161 0 L78 0 L78 667 L161 667 L161 322 L456 667 L560 667 L282 350 L584 0 L481 0 L228 300 Z M259 -246 Q282 -231 298.5 -206.5 Q315 -182 317 -160 Q315 -162 306 -162 Q288 -162 276 -149.5 Q264 -137 264 -118 Q264 -98 277.5 -84.5 Q291 -71 310 -71 Q332 -71 347.5 -89 Q363 -107 363 -138 Q363 -177 343 -213 Q323 -249 292 -272 L259 -246 Z " />
<glyph glyph-name="Lacute" unicode="&#x139;" horiz-adv-x="510" d="M78 667 L161 667 L161 74 L471 74 L471 0 L78 0 L78 667 Z M244 723 L392 867 L470 867 L301 723 L244 723 Z " />
<glyph glyph-name="Lcaron" unicode="&#x13d;" horiz-adv-x="510" d="M78 667 L161 667 L161 74 L471 74 L471 0 L78 0 L78 667 Z M250 505 Q273 520 289.5 544.5 Q306 569 308 591 Q306 589 297 589 Q279 589 267 601.5 Q255 614 255 633 Q255 653 268.5 666.5 Q282 680 301 680 Q323 680 338.5 662 Q354 644 354 613 Q354 574 334 538 Q314 502 283 479 L250 505 Z " />
<glyph glyph-name="uni013B" unicode="&#x13b;" horiz-adv-x="510" d="M78 667 L161 667 L161 74 L471 74 L471 0 L78 0 L78 667 Z M224 -246 Q247 -231 263.5 -206.5 Q280 -182 282 -160 Q280 -162 271 -162 Q253 -162 241 -149.5 Q229 -137 229 -118 Q229 -98 242.5 -84.5 Q256 -71 275 -71 Q297 -71 312.5 -89 Q328 -107 328 -138 Q328 -177 308 -213 Q288 -249 257 -272 L224 -246 Z " />
<glyph glyph-name="Ldot" unicode="&#x13f;" horiz-adv-x="510" d="M78 667 L161 667 L161 74 L471 74 L471 0 L78 0 L78 667 Z M369 287 Q347 287 330.5 303 Q314 319 314 341 Q314 364 330.5 380 Q347 396 369 396 Q392 396 408 380 Q424 364 424 341 Q424 319 407.5 303 Q391 287 369 287 Z " />
<glyph glyph-name="Lslash" unicode="&#x141;" horiz-adv-x="529" d="M490 74 L490 0 L97 0 L97 271 L10 221 L10 293 L97 343 L97 667 L180 667 L180 391 L277 447 L277 375 L180 319 L180 74 L490 74 Z " />
<glyph glyph-name="Nacute" unicode="&#x143;" horiz-adv-x="708" d="M161 538 L161 0 L78 0 L78 667 L163 667 L547 140 L547 667 L630 667 L630 0 L550 0 L161 538 Z M323 723 L471 867 L549 867 L380 723 L323 723 Z " />
<glyph glyph-name="Ncaron" unicode="&#x147;" horiz-adv-x="708" d="M161 538 L161 0 L78 0 L78 667 L163 667 L547 140 L547 667 L630 667 L630 0 L550 0 L161 538 Z M220 867 L271 867 L354 761 L434 867 L485 867 L390 723 L318 723 L220 867 Z " />
<glyph glyph-name="uni0145" unicode="&#x145;" horiz-adv-x="708" d="M161 538 L161 0 L78 0 L78 667 L163 667 L547 140 L547 667 L630 667 L630 0 L550 0 L161 538 Z M298 -246 Q321 -231 337.5 -206.5 Q354 -182 356 -160 Q354 -162 345 -162 Q327 -162 315 -149.5 Q303 -137 303 -118 Q303 -98 316.5 -84.5 Q330 -71 349 -71 Q371 -71 386.5 -89 Q402 -107 402 -138 Q402 -177 382 -213 Q362 -249 331 -272 L298 -246 Z " />
<glyph glyph-name="Ntilde" unicode="&#xd1;" horiz-adv-x="708" d="M161 538 L161 0 L78 0 L78 667 L163 667 L547 140 L547 667 L630 667 L630 0 L550 0 L161 538 Z M338 774 Q325 794 315.5 803.5 Q306 813 291 813 Q270 813 256.5 791.5 Q243 770 243 727 L198 727 Q198 787 223.5 824 Q249 861 295 861 Q321 861 336.5 847.5 Q352 834 370 808 Q385 787 394 778 Q403 769 418 769 Q439 769 452.5 790.5 Q466 812 466 855 L511 855 Q511 795 485.5 758 Q460 721 414 721 Q387 721 371.5 734.5 Q356 748 338 774 Z " />
<glyph glyph-name="Eng" unicode="&#x14a;" horiz-adv-x="708" d="M630 667 L630 15 Q630 -89 571 -142.5 Q512 -196 418 -196 Q310 -196 244 -119 L288 -56 Q341 -122 413 -122 Q471 -122 507 -87.5 Q543 -53 547 4 L161 538 L161 0 L78 0 L78 667 L163 667 L547 140 L547 667 L630 667 Z " />
<glyph glyph-name="Oacute" unicode="&#xd3;" horiz-adv-x="765" d="M51 333 Q51 431 92.5 509.5 Q134 588 209.5 633 Q285 678 382 678 Q479 678 554 633 Q629 588 671 509.5 Q713 431 713 333 Q713 235 671 156.5 Q629 78 554 33 Q479 -12 382 -12 Q285 -12 209.5 33 Q134 78 92.5 156.5 Q51 235 51 333 Z M627 333 Q627 411 596.5 472.5 Q566 534 510.5 569 Q455 604 382 604 Q308 604 252.5 569 Q197 534 167 472.5 Q137 411 137 333 Q137 256 167 194 Q197 132 253 97 Q309 62 382 62 Q455 62 510.5 97 Q566 132 596.5 194 Q627 256 627 333 Z M350 723 L498 867 L576 867 L407 723 L350 723 Z " />
<glyph glyph-name="Obreve" unicode="&#x14e;" horiz-adv-x="765" d="M51 333 Q51 431 92.5 509.5 Q134 588 209.5 633 Q285 678 382 678 Q479 678 554 633 Q629 588 671 509.5 Q713 431 713 333 Q713 235 671 156.5 Q629 78 554 33 Q479 -12 382 -12 Q285 -12 209.5 33 Q134 78 92.5 156.5 Q51 235 51 333 Z M627 333 Q627 411 596.5 472.5 Q566 534 510.5 569 Q455 604 382 604 Q308 604 252.5 569 Q197 534 167 472.5 Q137 411 137 333 Q137 256 167 194 Q197 132 253 97 Q309 62 382 62 Q455 62 510.5 97 Q566 132 596.5 194 Q627 256 627 333 Z M381 717 Q328 717 282 740.5 Q236 764 205 805 L242 837 Q267 803 302.5 784 Q338 765 381 765 Q424 765 459.5 784 Q495 803 519 837 L556 805 Q525 764 479.5 740.5 Q434 717 381 717 Z " />
<glyph glyph-name="Ocircumflex" unicode="&#xd4;" horiz-adv-x="765" d="M51 333 Q51 431 92.5 509.5 Q134 588 209.5 633 Q285 678 382 678 Q479 678 554 633 Q629 588 671 509.5 Q713 431 713 333 Q713 235 671 156.5 Q629 78 554 33 Q479 -12 382 -12 Q285 -12 209.5 33 Q134 78 92.5 156.5 Q51 235 51 333 Z M627 333 Q627 411 596.5 472.5 Q566 534 510.5 569 Q455 604 382 604 Q308 604 252.5 569 Q197 534 167 472.5 Q137 411 137 333 Q137 256 167 194 Q197 132 253 97 Q309 62 382 62 Q455 62 510.5 97 Q566 132 596.5 194 Q627 256 627 333 Z M381 829 L301 723 L250 723 L345 867 L417 867 L515 723 L464 723 L381 829 Z " />
<glyph glyph-name="Odieresis" unicode="&#xd6;" horiz-adv-x="765" d="M51 333 Q51 431 92.5 509.5 Q134 588 209.5 633 Q285 678 382 678 Q479 678 554 633 Q629 588 671 509.5 Q713 431 713 333 Q713 235 671 156.5 Q629 78 554 33 Q479 -12 382 -12 Q285 -12 209.5 33 Q134 78 92.5 156.5 Q51 235 51 333 Z M627 333 Q627 411 596.5 472.5 Q566 534 510.5 569 Q455 604 382 604 Q308 604 252.5 569 Q197 534 167 472.5 Q137 411 137 333 Q137 256 167 194 Q197 132 253 97 Q309 62 382 62 Q455 62 510.5 97 Q566 132 596.5 194 Q627 256 627 333 Z M278 733 Q259 733 245.5 747 Q232 761 232 780 Q232 799 245.5 812.5 Q259 826 278 826 Q297 826 310.5 812.5 Q324 799 324 780 Q324 760 310.5 746.5 Q297 733 278 733 Z M485 733 Q466 733 452 747 Q438 761 438 780 Q438 799 452 812.5 Q466 826 485 826 Q504 826 517.5 812.5 Q531 799 531 780 Q531 761 517.5 747 Q504 733 485 733 Z " />
<glyph glyph-name="Ograve" unicode="&#xd2;" horiz-adv-x="765" d="M51 333 Q51 431 92.5 509.5 Q134 588 209.5 633 Q285 678 382 678 Q479 678 554 633 Q629 588 671 509.5 Q713 431 713 333 Q713 235 671 156.5 Q629 78 554 33 Q479 -12 382 -12 Q285 -12 209.5 33 Q134 78 92.5 156.5 Q51 235 51 333 Z M627 333 Q627 411 596.5 472.5 Q566 534 510.5 569 Q455 604 382 604 Q308 604 252.5 569 Q197 534 167 472.5 Q137 411 137 333 Q137 256 167 194 Q197 132 253 97 Q309 62 382 62 Q455 62 510.5 97 Q566 132 596.5 194 Q627 256 627 333 Z M184 867 L262 867 L410 723 L353 723 L184 867 Z " />
<glyph glyph-name="Ohungarumlaut" unicode="&#x150;" horiz-adv-x="765" d="M51 333 Q51 431 92.5 509.5 Q134 588 209.5 633 Q285 678 382 678 Q479 678 554 633 Q629 588 671 509.5 Q713 431 713 333 Q713 235 671 156.5 Q629 78 554 33 Q479 -12 382 -12 Q285 -12 209.5 33 Q134 78 92.5 156.5 Q51 235 51 333 Z M627 333 Q627 411 596.5 472.5 Q566 534 510.5 569 Q455 604 382 604 Q308 604 252.5 569 Q197 534 167 472.5 Q137 411 137 333 Q137 256 167 194 Q197 132 253 97 Q309 62 382 62 Q455 62 510.5 97 Q566 132 596.5 194 Q627 256 627 333 Z M283 723 L377 867 L446 867 L331 723 L283 723 Z M425 723 L519 867 L588 867 L473 723 L425 723 Z " />
<glyph glyph-name="Omacron" unicode="&#x14c;" horiz-adv-x="765" d="M51 333 Q51 431 92.5 509.5 Q134 588 209.5 633 Q285 678 382 678 Q479 678 554 633 Q629 588 671 509.5 Q713 431 713 333 Q713 235 671 156.5 Q629 78 554 33 Q479 -12 382 -12 Q285 -12 209.5 33 Q134 78 92.5 156.5 Q51 235 51 333 Z M627 333 Q627 411 596.5 472.5 Q566 534 510.5 569 Q455 604 382 604 Q308 604 252.5 569 Q197 534 167 472.5 Q137 411 137 333 Q137 256 167 194 Q197 132 253 97 Q309 62 382 62 Q455 62 510.5 97 Q566 132 596.5 194 Q627 256 627 333 Z M227 787 L534 787 L534 739 L227 739 L227 787 Z " />
<glyph glyph-name="Oslash" unicode="&#xd8;" horiz-adv-x="765" d="M594 605 Q651 558 682 487.5 Q713 417 713 333 Q713 235 671 156.5 Q629 78 554 33 Q479 -12 382 -12 Q285 -12 209 33 L187 0 L121 0 L165 65 Q111 113 81 182 Q51 251 51 333 Q51 431 92.5 509.5 Q134 588 209.5 633 Q285 678 382 678 Q474 678 549 636 L570 667 L636 667 L594 605 Z M137 333 Q137 272 156 220.5 Q175 169 210 132 L506 572 Q448 604 382 604 Q308 604 252.5 569 Q197 534 167 472.5 Q137 411 137 333 Z M382 62 Q455 62 510.5 97 Q566 132 596.5 194 Q627 256 627 333 Q627 396 607 449 Q587 502 550 538 L253 97 Q310 62 382 62 Z " />
<glyph glyph-name="Oslashacute" unicode="&#x1fe;" horiz-adv-x="765" d="M383 723 L326 723 L474 867 L552 867 L383 723 Z M594 605 Q651 558 682 487.5 Q713 417 713 333 Q713 235 671 156.5 Q629 78 554 33 Q479 -12 382 -12 Q285 -12 209 33 L187 0 L121 0 L165 65 Q111 113 81 182 Q51 251 51 333 Q51 431 92.5 509.5 Q134 588 209.5 633 Q285 678 382 678 Q474 678 549 636 L570 667 L636 667 L594 605 Z M137 333 Q137 272 156 220.5 Q175 169 210 132 L506 572 Q448 604 382 604 Q308 604 252.5 569 Q197 534 167 472.5 Q137 411 137 333 Z M382 62 Q455 62 510.5 97 Q566 132 596.5 194 Q627 256 627 333 Q627 396 607 449 Q587 502 550 538 L253 97 Q310 62 382 62 Z " />
<glyph glyph-name="Otilde" unicode="&#xd5;" horiz-adv-x="765" d="M51 333 Q51 431 92.5 509.5 Q134 588 209.5 633 Q285 678 382 678 Q479 678 554 633 Q629 588 671 509.5 Q713 431 713 333 Q713 235 671 156.5 Q629 78 554 33 Q479 -12 382 -12 Q285 -12 209.5 33 Q134 78 92.5 156.5 Q51 235 51 333 Z M627 333 Q627 411 596.5 472.5 Q566 534 510.5 569 Q455 604 382 604 Q308 604 252.5 569 Q197 534 167 472.5 Q137 411 137 333 Q137 256 167 194 Q197 132 253 97 Q309 62 382 62 Q455 62 510.5 97 Q566 132 596.5 194 Q627 256 627 333 Z M365 774 Q352 794 342.5 803.5 Q333 813 318 813 Q297 813 283.5 791.5 Q270 770 270 727 L225 727 Q225 787 250.5 824 Q276 861 322 861 Q348 861 363.5 847.5 Q379 834 397 808 Q412 787 421 778 Q430 769 445 769 Q466 769 479.5 790.5 Q493 812 493 855 L538 855 Q538 795 512.5 758 Q487 721 441 721 Q414 721 398.5 734.5 Q383 748 365 774 Z " />
<glyph glyph-name="uni1ECC" unicode="&#x1ecc;" horiz-adv-x="765" d="M51 333 Q51 431 92.5 509.5 Q134 588 209.5 633 Q285 678 382 678 Q479 678 554 633 Q629 588 671 509.5 Q713 431 713 333 Q713 235 671 156.5 Q629 78 554 33 Q479 -12 382 -12 Q285 -12 209.5 33 Q134 78 92.5 156.5 Q51 235 51 333 Z M627 333 Q627 411 596.5 472.5 Q566 534 510.5 569 Q455 604 382 604 Q308 604 252.5 569 Q197 534 167 472.5 Q137 411 137 333 Q137 256 167 194 Q197 132 253 97 Q309 62 382 62 Q455 62 510.5 97 Q566 132 596.5 194 Q627 256 627 333 Z M334 -129 Q334 -110 348 -96 Q362 -82 381 -82 Q400 -82 413.5 -95.5 Q427 -109 427 -129 Q427 -149 413.5 -162.5 Q400 -176 381 -176 Q362 -176 348 -162 Q334 -148 334 -129 Z " />
<glyph glyph-name="uni1ECE" unicode="&#x1ece;" horiz-adv-x="765" d="M51 333 Q51 431 92.5 509.5 Q134 588 209.5 633 Q285 678 382 678 Q479 678 554 633 Q629 588 671 509.5 Q713 431 713 333 Q713 235 671 156.5 Q629 78 554 33 Q479 -12 382 -12 Q285 -12 209.5 33 Q134 78 92.5 156.5 Q51 235 51 333 Z M627 333 Q627 411 596.5 472.5 Q566 534 510.5 569 Q455 604 382 604 Q308 604 252.5 569 Q197 534 167 472.5 Q137 411 137 333 Q137 256 167 194 Q197 132 253 97 Q309 62 382 62 Q455 62 510.5 97 Q566 132 596.5 194 Q627 256 627 333 Z M280 813 Q290 844 315 863.5 Q340 883 375 883 Q414 883 440.5 860.5 Q467 838 467 793 Q467 774 461.5 758 Q456 742 443 724 L392 724 Q421 756 421 792 Q421 817 408.5 829.5 Q396 842 375 842 Q337 842 322 800 L280 813 Z " />
<glyph glyph-name="uni1ED0" unicode="&#x1ed0;" horiz-adv-x="765" d="M483 780 L631 888 L709 888 L540 780 L483 780 Z M381 784 L301 705 L250 705 L345 813 L417 813 L515 705 L464 705 L381 784 Z M51 333 Q51 431 92.5 509.5 Q134 588 209.5 633 Q285 678 382 678 Q479 678 554 633 Q629 588 671 509.5 Q713 431 713 333 Q713 235 671 156.5 Q629 78 554 33 Q479 -12 382 -12 Q285 -12 209.5 33 Q134 78 92.5 156.5 Q51 235 51 333 Z M627 333 Q627 411 596.5 472.5 Q566 534 510.5 569 Q455 604 382 604 Q308 604 252.5 569 Q197 534 167 472.5 Q137 411 137 333 Q137 256 167 194 Q197 132 253 97 Q309 62 382 62 Q455 62 510.5 97 Q566 132 596.5 194 Q627 256 627 333 Z " />
<glyph glyph-name="uni1ED2" unicode="&#x1ed2;" horiz-adv-x="765" d="M57 888 L135 888 L283 780 L226 780 L57 888 Z M381 784 L301 705 L250 705 L345 813 L417 813 L515 705 L464 705 L381 784 Z M51 333 Q51 431 92.5 509.5 Q134 588 209.5 633 Q285 678 382 678 Q479 678 554 633 Q629 588 671 509.5 Q713 431 713 333 Q713 235 671 156.5 Q629 78 554 33 Q479 -12 382 -12 Q285 -12 209.5 33 Q134 78 92.5 156.5 Q51 235 51 333 Z M627 333 Q627 411 596.5 472.5 Q566 534 510.5 569 Q455 604 382 604 Q308 604 252.5 569 Q197 534 167 472.5 Q137 411 137 333 Q137 256 167 194 Q197 132 253 97 Q309 62 382 62 Q455 62 510.5 97 Q566 132 596.5 194 Q627 256 627 333 Z " />
<glyph glyph-name="uni1ED4" unicode="&#x1ed4;" horiz-adv-x="765" d="M372 846 Q382 870 407 884.5 Q432 899 467 899 Q506 899 532.5 882 Q559 865 559 832 Q559 817 553.5 805 Q548 793 535 780 L484 780 Q513 803 513 831 Q513 849 500.5 859 Q488 869 467 869 Q428 869 414 837 L372 846 Z M381 784 L301 705 L250 705 L345 813 L417 813 L515 705 L464 705 L381 784 Z M51 333 Q51 431 92.5 509.5 Q134 588 209.5 633 Q285 678 382 678 Q479 678 554 633 Q629 588 671 509.5 Q713 431 713 333 Q713 235 671 156.5 Q629 78 554 33 Q479 -12 382 -12 Q285 -12 209.5 33 Q134 78 92.5 156.5 Q51 235 51 333 Z M627 333 Q627 411 596.5 472.5 Q566 534 510.5 569 Q455 604 382 604 Q308 604 252.5 569 Q197 534 167 472.5 Q137 411 137 333 Q137 256 167 194 Q197 132 253 97 Q309 62 382 62 Q455 62 510.5 97 Q566 132 596.5 194 Q627 256 627 333 Z " />
<glyph glyph-name="uni1ED6" unicode="&#x1ed6;" horiz-adv-x="765" d="M365 864 Q353 879 343 886.5 Q333 894 318 894 Q297 894 283.5 877.5 Q270 861 270 829 L225 829 Q225 874 250.5 902 Q276 930 322 930 Q348 930 363.5 920 Q379 910 397 890 Q410 875 420 868 Q430 861 445 861 Q467 861 480 877 Q493 893 493 925 L538 925 Q538 880 512.5 852.5 Q487 825 441 825 Q414 825 398 835 Q382 845 365 864 Z M381 784 L301 705 L250 705 L345 813 L417 813 L515 705 L464 705 L381 784 Z M51 333 Q51 431 92.5 509.5 Q134 588 209.5 633 Q285 678 382 678 Q479 678 554 633 Q629 588 671 509.5 Q713 431 713 333 Q713 235 671 156.5 Q629 78 554 33 Q479 -12 382 -12 Q285 -12 209.5 33 Q134 78 92.5 156.5 Q51 235 51 333 Z M627 333 Q627 411 596.5 472.5 Q566 534 510.5 569 Q455 604 382 604 Q308 604 252.5 569 Q197 534 167 472.5 Q137 411 137 333 Q137 256 167 194 Q197 132 253 97 Q309 62 382 62 Q455 62 510.5 97 Q566 132 596.5 194 Q627 256 627 333 Z " />
<glyph glyph-name="uni1ED8" unicode="&#x1ed8;" horiz-adv-x="765" d="M51 333 Q51 431 92.5 509.5 Q134 588 209.5 633 Q285 678 382 678 Q479 678 554 633 Q629 588 671 509.5 Q713 431 713 333 Q713 235 671 156.5 Q629 78 554 33 Q479 -12 382 -12 Q285 -12 209.5 33 Q134 78 92.5 156.5 Q51 235 51 333 Z M627 333 Q627 411 596.5 472.5 Q566 534 510.5 569 Q455 604 382 604 Q308 604 252.5 569 Q197 534 167 472.5 Q137 411 137 333 Q137 256 167 194 Q197 132 253 97 Q309 62 382 62 Q455 62 510.5 97 Q566 132 596.5 194 Q627 256 627 333 Z M334 -129 Q334 -110 348 -96 Q362 -82 381 -82 Q400 -82 413.5 -95.5 Q427 -109 427 -129 Q427 -149 413.5 -162.5 Q400 -176 381 -176 Q362 -176 348 -162 Q334 -148 334 -129 Z M381 829 L301 723 L250 723 L345 867 L417 867 L515 723 L464 723 L381 829 Z " />
<glyph glyph-name="Ohorn" unicode="&#x1a0;" horiz-adv-x="765" d="M719 664 Q719 627 701 593.5 Q683 560 654 538 Q713 451 713 333 Q713 235 671 156.5 Q629 78 554 33 Q479 -12 382 -12 Q285 -12 209.5 33 Q134 78 92.5 156.5 Q51 235 51 333 Q51 431 92.5 509.5 Q134 588 209.5 633 Q285 678 382 678 Q458 678 522.5 649 Q587 620 632 568 Q650 583 662.5 604 Q675 625 677 644 Q675 642 666 642 Q649 642 638 654 Q627 666 627 683 Q627 701 639 714 Q651 727 669 727 Q690 727 704.5 710 Q719 693 719 664 Z M382 62 Q455 62 510.5 97 Q566 132 596.5 194 Q627 256 627 333 Q627 411 596.5 472.5 Q566 534 510.5 569 Q455 604 382 604 Q308 604 252.5 569 Q197 534 167 472.5 Q137 411 137 333 Q137 256 167 194 Q197 132 253 97 Q309 62 382 62 Z " />
<glyph glyph-name="uni1EDA" unicode="&#x1eda;" horiz-adv-x="765" d="M719 664 Q719 627 701 593.5 Q683 560 654 538 Q713 451 713 333 Q713 235 671 156.5 Q629 78 554 33 Q479 -12 382 -12 Q285 -12 209.5 33 Q134 78 92.5 156.5 Q51 235 51 333 Q51 431 92.5 509.5 Q134 588 209.5 633 Q285 678 382 678 Q458 678 522.5 649 Q587 620 632 568 Q650 583 662.5 604 Q675 625 677 644 Q675 642 666 642 Q649 642 638 654 Q627 666 627 683 Q627 701 639 714 Q651 727 669 727 Q690 727 704.5 710 Q719 693 719 664 Z M382 62 Q455 62 510.5 97 Q566 132 596.5 194 Q627 256 627 333 Q627 411 596.5 472.5 Q566 534 510.5 569 Q455 604 382 604 Q308 604 252.5 569 Q197 534 167 472.5 Q137 411 137 333 Q137 256 167 194 Q197 132 253 97 Q309 62 382 62 Z M350 723 L498 867 L576 867 L407 723 L350 723 Z " />
<glyph glyph-name="uni1EDC" unicode="&#x1edc;" horiz-adv-x="765" d="M719 664 Q719 627 701 593.5 Q683 560 654 538 Q713 451 713 333 Q713 235 671 156.5 Q629 78 554 33 Q479 -12 382 -12 Q285 -12 209.5 33 Q134 78 92.5 156.5 Q51 235 51 333 Q51 431 92.5 509.5 Q134 588 209.5 633 Q285 678 382 678 Q458 678 522.5 649 Q587 620 632 568 Q650 583 662.5 604 Q675 625 677 644 Q675 642 666 642 Q649 642 638 654 Q627 666 627 683 Q627 701 639 714 Q651 727 669 727 Q690 727 704.5 710 Q719 693 719 664 Z M382 62 Q455 62 510.5 97 Q566 132 596.5 194 Q627 256 627 333 Q627 411 596.5 472.5 Q566 534 510.5 569 Q455 604 382 604 Q308 604 252.5 569 Q197 534 167 472.5 Q137 411 137 333 Q137 256 167 194 Q197 132 253 97 Q309 62 382 62 Z M184 867 L262 867 L410 723 L353 723 L184 867 Z " />
<glyph glyph-name="uni1EDE" unicode="&#x1ede;" horiz-adv-x="765" d="M719 664 Q719 627 701 593.5 Q683 560 654 538 Q713 451 713 333 Q713 235 671 156.5 Q629 78 554 33 Q479 -12 382 -12 Q285 -12 209.5 33 Q134 78 92.5 156.5 Q51 235 51 333 Q51 431 92.5 509.5 Q134 588 209.5 633 Q285 678 382 678 Q458 678 522.5 649 Q587 620 632 568 Q650 583 662.5 604 Q675 625 677 644 Q675 642 666 642 Q649 642 638 654 Q627 666 627 683 Q627 701 639 714 Q651 727 669 727 Q690 727 704.5 710 Q719 693 719 664 Z M382 62 Q455 62 510.5 97 Q566 132 596.5 194 Q627 256 627 333 Q627 411 596.5 472.5 Q566 534 510.5 569 Q455 604 382 604 Q308 604 252.5 569 Q197 534 167 472.5 Q137 411 137 333 Q137 256 167 194 Q197 132 253 97 Q309 62 382 62 Z M280 813 Q290 844 315 863.5 Q340 883 375 883 Q414 883 440.5 860.5 Q467 838 467 793 Q467 774 461.5 758 Q456 742 443 724 L392 724 Q421 756 421 792 Q421 817 408.5 829.5 Q396 842 375 842 Q337 842 322 800 L280 813 Z " />
<glyph glyph-name="uni1EE0" unicode="&#x1ee0;" horiz-adv-x="765" d="M719 664 Q719 627 701 593.5 Q683 560 654 538 Q713 451 713 333 Q713 235 671 156.5 Q629 78 554 33 Q479 -12 382 -12 Q285 -12 209.5 33 Q134 78 92.5 156.5 Q51 235 51 333 Q51 431 92.5 509.5 Q134 588 209.5 633 Q285 678 382 678 Q458 678 522.5 649 Q587 620 632 568 Q650 583 662.5 604 Q675 625 677 644 Q675 642 666 642 Q649 642 638 654 Q627 666 627 683 Q627 701 639 714 Q651 727 669 727 Q690 727 704.5 710 Q719 693 719 664 Z M382 62 Q455 62 510.5 97 Q566 132 596.5 194 Q627 256 627 333 Q627 411 596.5 472.5 Q566 534 510.5 569 Q455 604 382 604 Q308 604 252.5 569 Q197 534 167 472.5 Q137 411 137 333 Q137 256 167 194 Q197 132 253 97 Q309 62 382 62 Z M365 774 Q352 794 342.5 803.5 Q333 813 318 813 Q297 813 283.5 791.5 Q270 770 270 727 L225 727 Q225 787 250.5 824 Q276 861 322 861 Q348 861 363.5 847.5 Q379 834 397 808 Q412 787 421 778 Q430 769 445 769 Q466 769 479.5 790.5 Q493 812 493 855 L538 855 Q538 795 512.5 758 Q487 721 441 721 Q414 721 398.5 734.5 Q383 748 365 774 Z " />
<glyph glyph-name="uni1EE2" unicode="&#x1ee2;" horiz-adv-x="765" d="M719 664 Q719 627 701 593.5 Q683 560 654 538 Q713 451 713 333 Q713 235 671 156.5 Q629 78 554 33 Q479 -12 382 -12 Q285 -12 209.5 33 Q134 78 92.5 156.5 Q51 235 51 333 Q51 431 92.5 509.5 Q134 588 209.5 633 Q285 678 382 678 Q458 678 522.5 649 Q587 620 632 568 Q650 583 662.5 604 Q675 625 677 644 Q675 642 666 642 Q649 642 638 654 Q627 666 627 683 Q627 701 639 714 Q651 727 669 727 Q690 727 704.5 710 Q719 693 719 664 Z M382 62 Q455 62 510.5 97 Q566 132 596.5 194 Q627 256 627 333 Q627 411 596.5 472.5 Q566 534 510.5 569 Q455 604 382 604 Q308 604 252.5 569 Q197 534 167 472.5 Q137 411 137 333 Q137 256 167 194 Q197 132 253 97 Q309 62 382 62 Z M334 -129 Q334 -110 348 -96 Q362 -82 381 -82 Q400 -82 413.5 -95.5 Q427 -109 427 -129 Q427 -149 413.5 -162.5 Q400 -176 381 -176 Q362 -176 348 -162 Q334 -148 334 -129 Z " />
<glyph glyph-name="OE" unicode="&#x152;" horiz-adv-x="1105" d="M613 120 Q577 57 512.5 22.5 Q448 -12 375 -12 Q280 -12 206 33 Q132 78 91.5 156.5 Q51 235 51 333 Q51 431 91.5 509.5 Q132 588 206 632.5 Q280 677 375 677 Q448 677 512.5 643 Q577 609 613 546 L613 667 L1051 667 L1051 593 L696 593 L696 378 L1044 378 L1044 304 L696 304 L696 74 L1051 74 L1051 0 L613 0 L613 120 Z M613 443 Q584 521 523.5 562 Q463 603 384 603 Q309 603 253 568.5 Q197 534 167 472.5 Q137 411 137 333 Q137 255 167 193.5 Q197 132 253 97 Q309 62 384 62 Q463 62 523.5 103.5 Q584 145 613 223 L613 443 Z " />
<glyph glyph-name="uni1E56" unicode="&#x1e56;" horiz-adv-x="587" d="M78 667 L346 667 Q411 667 458.5 640 Q506 613 530.5 567 Q555 521 555 466 Q555 411 530 365 Q505 319 457.5 292 Q410 265 346 265 L161 265 L161 0 L78 0 L78 667 Z M469 466 Q469 522 432 557.5 Q395 593 336 593 L161 593 L161 339 L336 339 Q395 339 432 374.5 Q469 410 469 466 Z M259 778 Q259 797 273 811 Q287 825 306 825 Q325 825 338.5 811.5 Q352 798 352 778 Q352 758 338.5 744.5 Q325 731 306 731 Q287 731 273 745 Q259 759 259 778 Z " />
<glyph glyph-name="Racute" unicode="&#x154;" horiz-adv-x="608" d="M294 265 L161 265 L161 0 L78 0 L78 667 L346 667 Q407 667 454.5 642.5 Q502 618 528.5 572 Q555 526 555 466 Q555 408 531.5 365.5 Q508 323 468.5 299.5 Q429 276 382 272 L562 0 L464 0 L294 265 Z M469 466 Q469 522 432 557.5 Q395 593 336 593 L161 593 L161 338 L336 338 Q395 338 432 374 Q469 410 469 466 Z M275 723 L423 867 L501 867 L332 723 L275 723 Z " />
<glyph glyph-name="Rcaron" unicode="&#x158;" horiz-adv-x="608" d="M294 265 L161 265 L161 0 L78 0 L78 667 L346 667 Q407 667 454.5 642.5 Q502 618 528.5 572 Q555 526 555 466 Q555 408 531.5 365.5 Q508 323 468.5 299.5 Q429 276 382 272 L562 0 L464 0 L294 265 Z M469 466 Q469 522 432 557.5 Q395 593 336 593 L161 593 L161 338 L336 338 Q395 338 432 374 Q469 410 469 466 Z M172 867 L223 867 L306 761 L386 867 L437 867 L342 723 L270 723 L172 867 Z " />
<glyph glyph-name="uni0156" unicode="&#x156;" horiz-adv-x="608" d="M294 265 L161 265 L161 0 L78 0 L78 667 L346 667 Q407 667 454.5 642.5 Q502 618 528.5 572 Q555 526 555 466 Q555 408 531.5 365.5 Q508 323 468.5 299.5 Q429 276 382 272 L562 0 L464 0 L294 265 Z M469 466 Q469 522 432 557.5 Q395 593 336 593 L161 593 L161 338 L336 338 Q395 338 432 374 Q469 410 469 466 Z M255 -246 Q278 -231 294.5 -206.5 Q311 -182 313 -160 Q311 -162 302 -162 Q284 -162 272 -149.5 Q260 -137 260 -118 Q260 -98 273.5 -84.5 Q287 -71 306 -71 Q328 -71 343.5 -89 Q359 -107 359 -138 Q359 -177 339 -213 Q319 -249 288 -272 L255 -246 Z " />
<glyph glyph-name="Sacute" unicode="&#x15a;" horiz-adv-x="586" d="M87 157 Q124 116 178 89 Q232 62 297 62 Q378 62 416 96.5 Q454 131 454 177 Q454 214 431.5 237.5 Q409 261 376 274 Q343 287 285 303 Q211 322 166.5 340 Q122 358 90.5 394.5 Q59 431 59 492 Q59 546 89 588 Q119 630 171 653.5 Q223 677 288 677 Q437 677 525 584 L475 523 Q439 563 389 583 Q339 603 282 603 Q222 603 183.5 573.5 Q145 544 145 497 Q145 466 166.5 445.5 Q188 425 219 413.5 Q250 402 307 387 Q381 367 427.5 347.5 Q474 328 507 288.5 Q540 249 540 184 Q540 132 515 87.5 Q490 43 434.5 15.5 Q379 -12 294 -12 Q211 -12 146.5 16.5 Q82 45 38 94 L87 157 Z M257 723 L405 867 L483 867 L314 723 L257 723 Z " />
<glyph glyph-name="Scaron" unicode="&#x160;" horiz-adv-x="586" d="M87 157 Q124 116 178 89 Q232 62 297 62 Q378 62 416 96.5 Q454 131 454 177 Q454 214 431.5 237.5 Q409 261 376 274 Q343 287 285 303 Q211 322 166.5 340 Q122 358 90.5 394.5 Q59 431 59 492 Q59 546 89 588 Q119 630 171 653.5 Q223 677 288 677 Q437 677 525 584 L475 523 Q439 563 389 583 Q339 603 282 603 Q222 603 183.5 573.5 Q145 544 145 497 Q145 466 166.5 445.5 Q188 425 219 413.5 Q250 402 307 387 Q381 367 427.5 347.5 Q474 328 507 288.5 Q540 249 540 184 Q540 132 515 87.5 Q490 43 434.5 15.5 Q379 -12 294 -12 Q211 -12 146.5 16.5 Q82 45 38 94 L87 157 Z M154 867 L205 867 L288 761 L368 867 L419 867 L324 723 L252 723 L154 867 Z " />
<glyph glyph-name="Scircumflex" unicode="&#x15c;" horiz-adv-x="586" d="M87 157 Q124 116 178 89 Q232 62 297 62 Q378 62 416 96.5 Q454 131 454 177 Q454 214 431.5 237.5 Q409 261 376 274 Q343 287 285 303 Q211 322 166.5 340 Q122 358 90.5 394.5 Q59 431 59 492 Q59 546 89 588 Q119 630 171 653.5 Q223 677 288 677 Q437 677 525 584 L475 523 Q439 563 389 583 Q339 603 282 603 Q222 603 183.5 573.5 Q145 544 145 497 Q145 466 166.5 445.5 Q188 425 219 413.5 Q250 402 307 387 Q381 367 427.5 347.5 Q474 328 507 288.5 Q540 249 540 184 Q540 132 515 87.5 Q490 43 434.5 15.5 Q379 -12 294 -12 Q211 -12 146.5 16.5 Q82 45 38 94 L87 157 Z M288 829 L208 723 L157 723 L252 867 L324 867 L422 723 L371 723 L288 829 Z " />
<glyph glyph-name="uni015E" unicode="&#x15e;" horiz-adv-x="586" d="M540 184 Q540 134 516.5 90.5 Q493 47 441.5 19 Q390 -9 310 -12 L293 -55 Q309 -44 330 -44 Q359 -44 377.5 -62 Q396 -80 396 -109 Q396 -146 366 -168.5 Q336 -191 292 -191 Q261 -191 234 -182.5 Q207 -174 191 -161 L210 -123 Q245 -152 290 -152 Q316 -152 333.5 -140.5 Q351 -129 351 -108 Q351 -93 341.5 -84 Q332 -75 314 -75 Q304 -75 293.5 -79.5 Q283 -84 276 -92 L243 -73 L266 -11 Q193 -7 135 21 Q77 49 38 94 L87 157 Q124 116 178 89 Q232 62 297 62 Q378 62 416 96.5 Q454 131 454 177 Q454 214 431.5 237.5 Q409 261 376 274 Q343 287 285 303 Q211 322 166.5 340 Q122 358 90.5 394.5 Q59 431 59 492 Q59 546 89 588 Q119 630 171 653.5 Q223 677 288 677 Q437 677 525 584 L475 523 Q439 563 389 583 Q339 603 282 603 Q222 603 183.5 573.5 Q145 544 145 497 Q145 466 166.5 445.5 Q188 425 219 413.5 Q250 402 307 387 Q381 367 427.5 347.5 Q474 328 507 288.5 Q540 249 540 184 Z " />
<glyph glyph-name="uni0218" unicode="&#x218;" horiz-adv-x="586" d="M87 157 Q124 116 178 89 Q232 62 297 62 Q378 62 416 96.5 Q454 131 454 177 Q454 214 431.5 237.5 Q409 261 376 274 Q343 287 285 303 Q211 322 166.5 340 Q122 358 90.5 394.5 Q59 431 59 492 Q59 546 89 588 Q119 630 171 653.5 Q223 677 288 677 Q437 677 525 584 L475 523 Q439 563 389 583 Q339 603 282 603 Q222 603 183.5 573.5 Q145 544 145 497 Q145 466 166.5 445.5 Q188 425 219 413.5 Q250 402 307 387 Q381 367 427.5 347.5 Q474 328 507 288.5 Q540 249 540 184 Q540 132 515 87.5 Q490 43 434.5 15.5 Q379 -12 294 -12 Q211 -12 146.5 16.5 Q82 45 38 94 L87 157 Z M238 -246 Q261 -231 277.5 -206.5 Q294 -182 296 -160 Q294 -162 285 -162 Q267 -162 255 -149.5 Q243 -137 243 -118 Q243 -98 256.5 -84.5 Q270 -71 289 -71 Q311 -71 326.5 -89 Q342 -107 342 -138 Q342 -177 322 -213 Q302 -249 271 -272 L238 -246 Z " />
<glyph glyph-name="uni1E60" unicode="&#x1e60;" horiz-adv-x="586" d="M87 157 Q124 116 178 89 Q232 62 297 62 Q378 62 416 96.5 Q454 131 454 177 Q454 214 431.5 237.5 Q409 261 376 274 Q343 287 285 303 Q211 322 166.5 340 Q122 358 90.5 394.5 Q59 431 59 492 Q59 546 89 588 Q119 630 171 653.5 Q223 677 288 677 Q437 677 525 584 L475 523 Q439 563 389 583 Q339 603 282 603 Q222 603 183.5 573.5 Q145 544 145 497 Q145 466 166.5 445.5 Q188 425 219 413.5 Q250 402 307 387 Q381 367 427.5 347.5 Q474 328 507 288.5 Q540 249 540 184 Q540 132 515 87.5 Q490 43 434.5 15.5 Q379 -12 294 -12 Q211 -12 146.5 16.5 Q82 45 38 94 L87 157 Z M241 778 Q241 797 255 811 Q269 825 288 825 Q307 825 320.5 811.5 Q334 798 334 778 Q334 758 320.5 744.5 Q307 731 288 731 Q269 731 255 745 Q241 759 241 778 Z " />
<glyph glyph-name="uni1E9E" unicode="&#x1e9e;" horiz-adv-x="672" d="M404 392 Q511 387 575.5 338 Q640 289 640 192 Q640 133 610.5 86.5 Q581 40 529.5 14 Q478 -12 413 -12 Q291 -12 221 62 L272 120 Q300 92 334 77 Q368 62 413 62 Q477 62 515.5 97 Q554 132 554 192 Q554 263 498.5 293.5 Q443 324 341 324 L304 324 L304 395 L467 571 Q420 604 350 604 Q259 604 210 551 Q161 498 161 405 L161 0 L78 0 L78 407 Q78 533 147.5 605.5 Q217 678 350 678 Q425 678 482.5 653.5 Q540 629 575 579 L404 392 Z " />
<glyph glyph-name="Tbar" unicode="&#x166;" horiz-adv-x="570" d="M326 593 L326 342 L477 342 L477 294 L326 294 L326 0 L243 0 L243 294 L93 294 L93 342 L243 342 L243 593 L32 593 L32 667 L538 667 L538 593 L326 593 Z " />
<glyph glyph-name="Tcaron" unicode="&#x164;" horiz-adv-x="570" d="M243 593 L32 593 L32 667 L538 667 L538 593 L326 593 L326 0 L243 0 L243 593 Z M151 867 L202 867 L285 761 L365 867 L416 867 L321 723 L249 723 L151 867 Z " />
<glyph glyph-name="uni0162" unicode="&#x162;" horiz-adv-x="570" d="M243 593 L32 593 L32 667 L538 667 L538 593 L326 593 L326 0 L243 0 L243 593 Z M235 -246 Q258 -231 274.5 -206.5 Q291 -182 293 -160 Q291 -162 282 -162 Q264 -162 252 -149.5 Q240 -137 240 -118 Q240 -98 253.5 -84.5 Q267 -71 286 -71 Q308 -71 323.5 -89 Q339 -107 339 -138 Q339 -177 319 -213 Q299 -249 268 -272 L235 -246 Z " />
<glyph glyph-name="uni021A" unicode="&#x21a;" horiz-adv-x="570" d="M243 593 L32 593 L32 667 L538 667 L538 593 L326 593 L326 0 L243 0 L243 593 Z M235 -246 Q258 -231 274.5 -206.5 Q291 -182 293 -160 Q291 -162 282 -162 Q264 -162 252 -149.5 Q240 -137 240 -118 Q240 -98 253.5 -84.5 Q267 -71 286 -71 Q308 -71 323.5 -89 Q339 -107 339 -138 Q339 -177 319 -213 Q299 -249 268 -272 L235 -246 Z " />
<glyph glyph-name="uni1E6A" unicode="&#x1e6a;" horiz-adv-x="570" d="M243 593 L32 593 L32 667 L538 667 L538 593 L326 593 L326 0 L243 0 L243 593 Z M238 778 Q238 797 252 811 Q266 825 285 825 Q304 825 317.5 811.5 Q331 798 331 778 Q331 758 317.5 744.5 Q304 731 285 731 Q266 731 252 745 Q238 759 238 778 Z " />
<glyph glyph-name="Uacute" unicode="&#xda;" horiz-adv-x="700" d="M78 667 L161 667 L161 261 Q161 168 210 115 Q259 62 350 62 Q441 62 490 115 Q539 168 539 261 L539 667 L622 667 L622 260 Q622 133 552.5 60.5 Q483 -12 350 -12 Q217 -12 147.5 60.5 Q78 133 78 259 L78 667 Z M319 723 L467 867 L545 867 L376 723 L319 723 Z " />
<glyph glyph-name="Ubreve" unicode="&#x16c;" horiz-adv-x="700" d="M78 667 L161 667 L161 261 Q161 168 210 115 Q259 62 350 62 Q441 62 490 115 Q539 168 539 261 L539 667 L622 667 L622 260 Q622 133 552.5 60.5 Q483 -12 350 -12 Q217 -12 147.5 60.5 Q78 133 78 259 L78 667 Z M350 717 Q297 717 251 740.5 Q205 764 174 805 L211 837 Q236 803 271.5 784 Q307 765 350 765 Q393 765 428.5 784 Q464 803 488 837 L525 805 Q494 764 448.5 740.5 Q403 717 350 717 Z " />
<glyph glyph-name="Ucircumflex" unicode="&#xdb;" horiz-adv-x="700" d="M78 667 L161 667 L161 261 Q161 168 210 115 Q259 62 350 62 Q441 62 490 115 Q539 168 539 261 L539 667 L622 667 L622 260 Q622 133 552.5 60.5 Q483 -12 350 -12 Q217 -12 147.5 60.5 Q78 133 78 259 L78 667 Z M350 829 L270 723 L219 723 L314 867 L386 867 L484 723 L433 723 L350 829 Z " />
<glyph glyph-name="Udieresis" unicode="&#xdc;" horiz-adv-x="700" d="M78 667 L161 667 L161 261 Q161 168 210 115 Q259 62 350 62 Q441 62 490 115 Q539 168 539 261 L539 667 L622 667 L622 260 Q622 133 552.5 60.5 Q483 -12 350 -12 Q217 -12 147.5 60.5 Q78 133 78 259 L78 667 Z M247 733 Q228 733 214.5 747 Q201 761 201 780 Q201 799 214.5 812.5 Q228 826 247 826 Q266 826 279.5 812.5 Q293 799 293 780 Q293 760 279.5 746.5 Q266 733 247 733 Z M454 733 Q435 733 421 747 Q407 761 407 780 Q407 799 421 812.5 Q435 826 454 826 Q473 826 486.5 812.5 Q500 799 500 780 Q500 761 486.5 747 Q473 733 454 733 Z " />
<glyph glyph-name="Ugrave" unicode="&#xd9;" horiz-adv-x="700" d="M78 667 L161 667 L161 261 Q161 168 210 115 Q259 62 350 62 Q441 62 490 115 Q539 168 539 261 L539 667 L622 667 L622 260 Q622 133 552.5 60.5 Q483 -12 350 -12 Q217 -12 147.5 60.5 Q78 133 78 259 L78 667 Z M153 867 L231 867 L379 723 L322 723 L153 867 Z " />
<glyph glyph-name="Uhungarumlaut" unicode="&#x170;" horiz-adv-x="700" d="M78 667 L161 667 L161 261 Q161 168 210 115 Q259 62 350 62 Q441 62 490 115 Q539 168 539 261 L539 667 L622 667 L622 260 Q622 133 552.5 60.5 Q483 -12 350 -12 Q217 -12 147.5 60.5 Q78 133 78 259 L78 667 Z M252 723 L346 867 L415 867 L300 723 L252 723 Z M394 723 L488 867 L557 867 L442 723 L394 723 Z " />
<glyph glyph-name="Umacron" unicode="&#x16a;" horiz-adv-x="700" d="M78 667 L161 667 L161 261 Q161 168 210 115 Q259 62 350 62 Q441 62 490 115 Q539 168 539 261 L539 667 L622 667 L622 260 Q622 133 552.5 60.5 Q483 -12 350 -12 Q217 -12 147.5 60.5 Q78 133 78 259 L78 667 Z M196 787 L503 787 L503 739 L196 739 L196 787 Z " />
<glyph glyph-name="Uogonek" unicode="&#x172;" horiz-adv-x="700" d="M78 667 L161 667 L161 261 Q161 168 210 115 Q259 62 350 62 Q441 62 490 115 Q539 168 539 261 L539 667 L622 667 L622 260 Q622 162 582 97.5 Q542 33 464 5 Q411 -13 381.5 -39 Q352 -65 352 -94 Q352 -112 364 -122.5 Q376 -133 394 -133 Q411 -133 427 -124 L446 -169 Q421 -186 378 -186 Q338 -186 309 -166.5 Q280 -147 280 -111 Q280 -82 302.5 -56.5 Q325 -31 363 -12 L350 -12 Q217 -12 147.5 60.5 Q78 133 78 259 L78 667 Z " />
<glyph glyph-name="Uring" unicode="&#x16e;" horiz-adv-x="700" d="M78 667 L161 667 L161 261 Q161 168 210 115 Q259 62 350 62 Q441 62 490 115 Q539 168 539 261 L539 667 L622 667 L622 260 Q622 133 552.5 60.5 Q483 -12 350 -12 Q217 -12 147.5 60.5 Q78 133 78 259 L78 667 Z M253 808 Q253 849 282 878 Q311 907 351 907 Q391 907 420 878 Q449 849 449 808 Q449 768 420.5 739 Q392 710 351 710 Q311 710 282 739 Q253 768 253 808 Z M409 808 Q409 833 392.5 850 Q376 867 351 867 Q327 867 310 850 Q293 833 293 808 Q293 784 310 766.5 Q327 749 351 749 Q375 749 392 766.5 Q409 784 409 808 Z " />
<glyph glyph-name="Utilde" unicode="&#x168;" horiz-adv-x="700" d="M78 667 L161 667 L161 261 Q161 168 210 115 Q259 62 350 62 Q441 62 490 115 Q539 168 539 261 L539 667 L622 667 L622 260 Q622 133 552.5 60.5 Q483 -12 350 -12 Q217 -12 147.5 60.5 Q78 133 78 259 L78 667 Z M334 774 Q321 794 311.5 803.5 Q302 813 287 813 Q266 813 252.5 791.5 Q239 770 239 727 L194 727 Q194 787 219.5 824 Q245 861 291 861 Q317 861 332.5 847.5 Q348 834 366 808 Q381 787 390 778 Q399 769 414 769 Q435 769 448.5 790.5 Q462 812 462 855 L507 855 Q507 795 481.5 758 Q456 721 410 721 Q383 721 367.5 734.5 Q352 748 334 774 Z " />
<glyph glyph-name="uni1EE4" unicode="&#x1ee4;" horiz-adv-x="700" d="M78 667 L161 667 L161 261 Q161 168 210 115 Q259 62 350 62 Q441 62 490 115 Q539 168 539 261 L539 667 L622 667 L622 260 Q622 133 552.5 60.5 Q483 -12 350 -12 Q217 -12 147.5 60.5 Q78 133 78 259 L78 667 Z M303 -129 Q303 -110 317 -96 Q331 -82 350 -82 Q369 -82 382.5 -95.5 Q396 -109 396 -129 Q396 -149 382.5 -162.5 Q369 -176 350 -176 Q331 -176 317 -162 Q303 -148 303 -129 Z " />
<glyph glyph-name="Uhorn" unicode="&#x1af;" horiz-adv-x="700" d="M738 728 Q738 680 706.5 638 Q675 596 622 575 L622 260 Q622 133 552.5 60.5 Q483 -12 350 -12 Q217 -12 147.5 60.5 Q78 133 78 259 L78 667 L161 667 L161 261 Q161 168 210 115 Q259 62 350 62 Q441 62 490 115 Q539 168 539 261 L539 667 L622 667 L622 614 Q652 629 673 655 Q694 681 695 708 L684 707 Q667 707 656 718.5 Q645 730 645 748 Q645 766 657.5 778.5 Q670 791 688 791 Q709 791 723.5 774 Q738 757 738 728 Z " />
<glyph glyph-name="uni1EE6" unicode="&#x1ee6;" horiz-adv-x="700" d="M78 667 L161 667 L161 261 Q161 168 210 115 Q259 62 350 62 Q441 62 490 115 Q539 168 539 261 L539 667 L622 667 L622 260 Q622 133 552.5 60.5 Q483 -12 350 -12 Q217 -12 147.5 60.5 Q78 133 78 259 L78 667 Z M249 813 Q259 844 284 863.5 Q309 883 344 883 Q383 883 409.5 860.5 Q436 838 436 793 Q436 774 430.5 758 Q425 742 412 724 L361 724 Q390 756 390 792 Q390 817 377.5 829.5 Q365 842 344 842 Q306 842 291 800 L249 813 Z " />
<glyph glyph-name="uni1EE8" unicode="&#x1ee8;" horiz-adv-x="700" d="M738 728 Q738 680 706.5 638 Q675 596 622 575 L622 260 Q622 133 552.5 60.5 Q483 -12 350 -12 Q217 -12 147.5 60.5 Q78 133 78 259 L78 667 L161 667 L161 261 Q161 168 210 115 Q259 62 350 62 Q441 62 490 115 Q539 168 539 261 L539 667 L622 667 L622 614 Q652 629 673 655 Q694 681 695 708 L684 707 Q667 707 656 718.5 Q645 730 645 748 Q645 766 657.5 778.5 Q670 791 688 791 Q709 791 723.5 774 Q738 757 738 728 Z M319 723 L467 867 L545 867 L376 723 L319 723 Z " />
<glyph glyph-name="uni1EEA" unicode="&#x1eea;" horiz-adv-x="700" d="M738 728 Q738 680 706.5 638 Q675 596 622 575 L622 260 Q622 133 552.5 60.5 Q483 -12 350 -12 Q217 -12 147.5 60.5 Q78 133 78 259 L78 667 L161 667 L161 261 Q161 168 210 115 Q259 62 350 62 Q441 62 490 115 Q539 168 539 261 L539 667 L622 667 L622 614 Q652 629 673 655 Q694 681 695 708 L684 707 Q667 707 656 718.5 Q645 730 645 748 Q645 766 657.5 778.5 Q670 791 688 791 Q709 791 723.5 774 Q738 757 738 728 Z M153 867 L231 867 L379 723 L322 723 L153 867 Z " />
<glyph glyph-name="uni1EEC" unicode="&#x1eec;" horiz-adv-x="700" d="M738 728 Q738 680 706.5 638 Q675 596 622 575 L622 260 Q622 133 552.5 60.5 Q483 -12 350 -12 Q217 -12 147.5 60.5 Q78 133 78 259 L78 667 L161 667 L161 261 Q161 168 210 115 Q259 62 350 62 Q441 62 490 115 Q539 168 539 261 L539 667 L622 667 L622 614 Q652 629 673 655 Q694 681 695 708 L684 707 Q667 707 656 718.5 Q645 730 645 748 Q645 766 657.5 778.5 Q670 791 688 791 Q709 791 723.5 774 Q738 757 738 728 Z M249 813 Q259 844 284 863.5 Q309 883 344 883 Q383 883 409.5 860.5 Q436 838 436 793 Q436 774 430.5 758 Q425 742 412 724 L361 724 Q390 756 390 792 Q390 817 377.5 829.5 Q365 842 344 842 Q306 842 291 800 L249 813 Z " />
<glyph glyph-name="uni1EEE" unicode="&#x1eee;" horiz-adv-x="700" d="M738 728 Q738 680 706.5 638 Q675 596 622 575 L622 260 Q622 133 552.5 60.5 Q483 -12 350 -12 Q217 -12 147.5 60.5 Q78 133 78 259 L78 667 L161 667 L161 261 Q161 168 210 115 Q259 62 350 62 Q441 62 490 115 Q539 168 539 261 L539 667 L622 667 L622 614 Q652 629 673 655 Q694 681 695 708 L684 707 Q667 707 656 718.5 Q645 730 645 748 Q645 766 657.5 778.5 Q670 791 688 791 Q709 791 723.5 774 Q738 757 738 728 Z M334 774 Q321 794 311.5 803.5 Q302 813 287 813 Q266 813 252.5 791.5 Q239 770 239 727 L194 727 Q194 787 219.5 824 Q245 861 291 861 Q317 861 332.5 847.5 Q348 834 366 808 Q381 787 390 778 Q399 769 414 769 Q435 769 448.5 790.5 Q462 812 462 855 L507 855 Q507 795 481.5 758 Q456 721 410 721 Q383 721 367.5 734.5 Q352 748 334 774 Z " />
<glyph glyph-name="uni1EF0" unicode="&#x1ef0;" horiz-adv-x="700" d="M738 728 Q738 680 706.5 638 Q675 596 622 575 L622 260 Q622 133 552.5 60.5 Q483 -12 350 -12 Q217 -12 147.5 60.5 Q78 133 78 259 L78 667 L161 667 L161 261 Q161 168 210 115 Q259 62 350 62 Q441 62 490 115 Q539 168 539 261 L539 667 L622 667 L622 614 Q652 629 673 655 Q694 681 695 708 L684 707 Q667 707 656 718.5 Q645 730 645 748 Q645 766 657.5 778.5 Q670 791 688 791 Q709 791 723.5 774 Q738 757 738 728 Z M303 -129 Q303 -110 317 -96 Q331 -82 350 -82 Q369 -82 382.5 -95.5 Q396 -109 396 -129 Q396 -149 382.5 -162.5 Q369 -176 350 -176 Q331 -176 317 -162 Q303 -148 303 -129 Z " />
<glyph glyph-name="Wacute" unicode="&#x1e82;" horiz-adv-x="883" d="M441 538 L294 0 L204 0 L14 667 L106 667 L254 111 L407 667 L476 667 L629 111 L776 667 L868 667 L678 0 L588 0 L441 538 Z M410 723 L558 867 L636 867 L467 723 L410 723 Z " />
<glyph glyph-name="Wcircumflex" unicode="&#x174;" horiz-adv-x="883" d="M441 538 L294 0 L204 0 L14 667 L106 667 L254 111 L407 667 L476 667 L629 111 L776 667 L868 667 L678 0 L588 0 L441 538 Z M441 829 L361 723 L310 723 L405 867 L477 867 L575 723 L524 723 L441 829 Z " />
<glyph glyph-name="Wdieresis" unicode="&#x1e84;" horiz-adv-x="883" d="M441 538 L294 0 L204 0 L14 667 L106 667 L254 111 L407 667 L476 667 L629 111 L776 667 L868 667 L678 0 L588 0 L441 538 Z M338 733 Q319 733 305.5 747 Q292 761 292 780 Q292 799 305.5 812.5 Q319 826 338 826 Q357 826 370.5 812.5 Q384 799 384 780 Q384 760 370.5 746.5 Q357 733 338 733 Z M545 733 Q526 733 512 747 Q498 761 498 780 Q498 799 512 812.5 Q526 826 545 826 Q564 826 577.5 812.5 Q591 799 591 780 Q591 761 577.5 747 Q564 733 545 733 Z " />
<glyph glyph-name="Wgrave" unicode="&#x1e80;" horiz-adv-x="883" d="M441 538 L294 0 L204 0 L14 667 L106 667 L254 111 L407 667 L476 667 L629 111 L776 667 L868 667 L678 0 L588 0 L441 538 Z M243 867 L321 867 L469 723 L412 723 L243 867 Z " />
<glyph glyph-name="Yacute" unicode="&#xdd;" horiz-adv-x="626" d="M272 282 L9 667 L106 667 L313 357 L520 667 L617 667 L355 282 L355 0 L272 0 L272 282 Z M282 723 L430 867 L508 867 L339 723 L282 723 Z " />
<glyph glyph-name="Ycircumflex" unicode="&#x176;" horiz-adv-x="626" d="M272 282 L9 667 L106 667 L313 357 L520 667 L617 667 L355 282 L355 0 L272 0 L272 282 Z M313 829 L233 723 L182 723 L277 867 L349 867 L447 723 L396 723 L313 829 Z " />
<glyph glyph-name="Ydieresis" unicode="&#x178;" horiz-adv-x="626" d="M272 282 L9 667 L106 667 L313 357 L520 667 L617 667 L355 282 L355 0 L272 0 L272 282 Z M210 733 Q191 733 177.5 747 Q164 761 164 780 Q164 799 177.5 812.5 Q191 826 210 826 Q229 826 242.5 812.5 Q256 799 256 780 Q256 760 242.5 746.5 Q229 733 210 733 Z M417 733 Q398 733 384 747 Q370 761 370 780 Q370 799 384 812.5 Q398 826 417 826 Q436 826 449.5 812.5 Q463 799 463 780 Q463 761 449.5 747 Q436 733 417 733 Z " />
<glyph glyph-name="Ygrave" unicode="&#x1ef2;" horiz-adv-x="626" d="M272 282 L9 667 L106 667 L313 357 L520 667 L617 667 L355 282 L355 0 L272 0 L272 282 Z M116 867 L194 867 L342 723 L285 723 L116 867 Z " />
<glyph glyph-name="uni1EF4" unicode="&#x1ef4;" horiz-adv-x="626" d="M272 282 L9 667 L106 667 L313 357 L520 667 L617 667 L355 282 L355 0 L272 0 L272 282 Z M266 -129 Q266 -110 280 -96 Q294 -82 313 -82 Q332 -82 345.5 -95.5 Q359 -109 359 -129 Q359 -149 345.5 -162.5 Q332 -176 313 -176 Q294 -176 280 -162 Q266 -148 266 -129 Z " />
<glyph glyph-name="uni1EF6" unicode="&#x1ef6;" horiz-adv-x="626" d="M272 282 L9 667 L106 667 L313 357 L520 667 L617 667 L355 282 L355 0 L272 0 L272 282 Z M212 813 Q222 844 247 863.5 Q272 883 307 883 Q346 883 372.5 860.5 Q399 838 399 793 Q399 774 393.5 758 Q388 742 375 724 L324 724 Q353 756 353 792 Q353 817 340.5 829.5 Q328 842 307 842 Q269 842 254 800 L212 813 Z " />
<glyph glyph-name="uni1EF8" unicode="&#x1ef8;" horiz-adv-x="626" d="M272 282 L9 667 L106 667 L313 357 L520 667 L617 667 L355 282 L355 0 L272 0 L272 282 Z M297 774 Q284 794 274.5 803.5 Q265 813 250 813 Q229 813 215.5 791.5 Q202 770 202 727 L157 727 Q157 787 182.5 824 Q208 861 254 861 Q280 861 295.5 847.5 Q311 834 329 808 Q344 787 353 778 Q362 769 377 769 Q398 769 411.5 790.5 Q425 812 425 855 L470 855 Q470 795 444.5 758 Q419 721 373 721 Q346 721 330.5 734.5 Q315 748 297 774 Z " />
<glyph glyph-name="Zacute" unicode="&#x179;" horiz-adv-x="585" d="M48 69 L423 593 L48 593 L48 667 L529 667 L529 598 L154 74 L536 74 L536 0 L48 0 L48 69 Z M262 723 L410 867 L488 867 L319 723 L262 723 Z " />
<glyph glyph-name="Zcaron" unicode="&#x17d;" horiz-adv-x="585" d="M48 69 L423 593 L48 593 L48 667 L529 667 L529 598 L154 74 L536 74 L536 0 L48 0 L48 69 Z M159 867 L210 867 L293 761 L373 867 L424 867 L329 723 L257 723 L159 867 Z " />
<glyph glyph-name="Zdotaccent" unicode="&#x17b;" horiz-adv-x="585" d="M48 69 L423 593 L48 593 L48 667 L529 667 L529 598 L154 74 L536 74 L536 0 L48 0 L48 69 Z M246 778 Q246 797 260 811 Q274 825 293 825 Q312 825 325.5 811.5 Q339 798 339 778 Q339 758 325.5 744.5 Q312 731 293 731 Q274 731 260 745 Q246 759 246 778 Z " />
<glyph glyph-name="Eth" unicode="&#xd0;" horiz-adv-x="728" d="M334 667 Q435 667 513 623.5 Q591 580 633.5 503.5 Q676 427 676 333 Q676 238 633.5 162.5 Q591 87 513 43.5 Q435 0 334 0 L106 0 L106 298 L10 298 L10 361 L106 361 L106 667 L334 667 Z M334 74 Q413 74 471 108.5 Q529 143 559.5 202 Q590 261 590 333 Q590 406 560 465 Q530 524 472 558.5 Q414 593 334 593 L189 593 L189 361 L359 361 L359 298 L189 298 L189 74 L334 74 Z " />
<glyph glyph-name="Thorn" unicode="&#xde;" horiz-adv-x="587" d="M78 667 L161 667 L161 548 L346 548 Q411 548 458.5 521 Q506 494 530.5 447.5 Q555 401 555 346 Q555 291 530 245.5 Q505 200 457.5 173 Q410 146 346 146 L161 146 L161 0 L78 0 L78 667 Z M469 346 Q469 402 432 438 Q395 474 336 474 L161 474 L161 220 L336 220 Q395 220 432 255 Q469 290 469 346 Z " />
<glyph glyph-name="aacute" unicode="&#xe1;" horiz-adv-x="527" d="M377 55 Q316 -12 217 -12 Q174 -12 135.5 6.5 Q97 25 72.5 61.5 Q48 98 48 148 Q48 199 72.5 235 Q97 271 135.5 289 Q174 307 217 307 Q320 307 377 241 L377 328 Q377 376 343 403 Q309 430 255 430 Q211 430 175 413.5 Q139 397 107 363 L72 415 Q111 456 158.5 475.5 Q206 495 265 495 Q348 495 400 455 Q452 415 452 332 L452 0 L377 0 L377 55 Z M377 193 Q356 222 320.5 237.5 Q285 253 244 253 Q192 253 158.5 223.5 Q125 194 125 147 Q125 101 158.5 71.5 Q192 42 244 42 Q285 42 320.5 57.5 Q356 73 377 102 L377 193 Z M235 556 L383 700 L461 700 L292 556 L235 556 Z " />
<glyph glyph-name="abreve" unicode="&#x103;" horiz-adv-x="527" d="M377 55 Q316 -12 217 -12 Q174 -12 135.5 6.5 Q97 25 72.5 61.5 Q48 98 48 148 Q48 199 72.5 235 Q97 271 135.5 289 Q174 307 217 307 Q320 307 377 241 L377 328 Q377 376 343 403 Q309 430 255 430 Q211 430 175 413.5 Q139 397 107 363 L72 415 Q111 456 158.5 475.5 Q206 495 265 495 Q348 495 400 455 Q452 415 452 332 L452 0 L377 0 L377 55 Z M377 193 Q356 222 320.5 237.5 Q285 253 244 253 Q192 253 158.5 223.5 Q125 194 125 147 Q125 101 158.5 71.5 Q192 42 244 42 Q285 42 320.5 57.5 Q356 73 377 102 L377 193 Z M266 550 Q213 550 167 573.5 Q121 597 90 638 L127 670 Q152 636 187.5 617 Q223 598 266 598 Q309 598 344.5 617 Q380 636 404 670 L441 638 Q410 597 364.5 573.5 Q319 550 266 550 Z " />
<glyph glyph-name="acircumflex" unicode="&#xe2;" horiz-adv-x="527" d="M377 55 Q316 -12 217 -12 Q174 -12 135.5 6.5 Q97 25 72.5 61.5 Q48 98 48 148 Q48 199 72.5 235 Q97 271 135.5 289 Q174 307 217 307 Q320 307 377 241 L377 328 Q377 376 343 403 Q309 430 255 430 Q211 430 175 413.5 Q139 397 107 363 L72 415 Q111 456 158.5 475.5 Q206 495 265 495 Q348 495 400 455 Q452 415 452 332 L452 0 L377 0 L377 55 Z M377 193 Q356 222 320.5 237.5 Q285 253 244 253 Q192 253 158.5 223.5 Q125 194 125 147 Q125 101 158.5 71.5 Q192 42 244 42 Q285 42 320.5 57.5 Q356 73 377 102 L377 193 Z M266 662 L186 556 L135 556 L230 700 L302 700 L400 556 L349 556 L266 662 Z " />
<glyph glyph-name="adieresis" unicode="&#xe4;" horiz-adv-x="527" d="M377 55 Q316 -12 217 -12 Q174 -12 135.5 6.5 Q97 25 72.5 61.5 Q48 98 48 148 Q48 199 72.5 235 Q97 271 135.5 289 Q174 307 217 307 Q320 307 377 241 L377 328 Q377 376 343 403 Q309 430 255 430 Q211 430 175 413.5 Q139 397 107 363 L72 415 Q111 456 158.5 475.5 Q206 495 265 495 Q348 495 400 455 Q452 415 452 332 L452 0 L377 0 L377 55 Z M377 193 Q356 222 320.5 237.5 Q285 253 244 253 Q192 253 158.5 223.5 Q125 194 125 147 Q125 101 158.5 71.5 Q192 42 244 42 Q285 42 320.5 57.5 Q356 73 377 102 L377 193 Z M163 566 Q144 566 130.5 580 Q117 594 117 613 Q117 632 130.5 645.5 Q144 659 163 659 Q182 659 195.5 645.5 Q209 632 209 613 Q209 593 195.5 579.5 Q182 566 163 566 Z M370 566 Q351 566 337 580 Q323 594 323 613 Q323 632 337 645.5 Q351 659 370 659 Q389 659 402.5 645.5 Q416 632 416 613 Q416 594 402.5 580 Q389 566 370 566 Z " />
<glyph glyph-name="agrave" unicode="&#xe0;" horiz-adv-x="527" d="M377 55 Q316 -12 217 -12 Q174 -12 135.5 6.5 Q97 25 72.5 61.5 Q48 98 48 148 Q48 199 72.5 235 Q97 271 135.5 289 Q174 307 217 307 Q320 307 377 241 L377 328 Q377 376 343 403 Q309 430 255 430 Q211 430 175 413.5 Q139 397 107 363 L72 415 Q111 456 158.5 475.5 Q206 495 265 495 Q348 495 400 455 Q452 415 452 332 L452 0 L377 0 L377 55 Z M377 193 Q356 222 320.5 237.5 Q285 253 244 253 Q192 253 158.5 223.5 Q125 194 125 147 Q125 101 158.5 71.5 Q192 42 244 42 Q285 42 320.5 57.5 Q356 73 377 102 L377 193 Z M68 700 L146 700 L294 556 L237 556 L68 700 Z " />
<glyph glyph-name="amacron" unicode="&#x101;" horiz-adv-x="527" d="M377 55 Q316 -12 217 -12 Q174 -12 135.5 6.5 Q97 25 72.5 61.5 Q48 98 48 148 Q48 199 72.5 235 Q97 271 135.5 289 Q174 307 217 307 Q320 307 377 241 L377 328 Q377 376 343 403 Q309 430 255 430 Q211 430 175 413.5 Q139 397 107 363 L72 415 Q111 456 158.5 475.5 Q206 495 265 495 Q348 495 400 455 Q452 415 452 332 L452 0 L377 0 L377 55 Z M377 193 Q356 222 320.5 237.5 Q285 253 244 253 Q192 253 158.5 223.5 Q125 194 125 147 Q125 101 158.5 71.5 Q192 42 244 42 Q285 42 320.5 57.5 Q356 73 377 102 L377 193 Z M112 620 L419 620 L419 572 L112 572 L112 620 Z " />
<glyph glyph-name="aogonek" unicode="&#x105;" horiz-adv-x="527" d="M452 0 Q408 -19 383 -43 Q358 -67 358 -94 Q358 -112 370 -122.5 Q382 -133 400 -133 Q417 -133 432 -124 L452 -169 Q425 -186 384 -186 Q344 -186 315 -166.5 Q286 -147 286 -111 Q286 -79 314.5 -50 Q343 -21 389 0 L377 0 L377 55 Q316 -12 217 -12 Q174 -12 135.5 6.5 Q97 25 72.5 61.5 Q48 98 48 148 Q48 199 72.5 235 Q97 271 135.5 289 Q174 307 217 307 Q320 307 377 241 L377 328 Q377 376 343 403 Q309 430 255 430 Q211 430 175 413.5 Q139 397 107 363 L72 415 Q111 456 158.5 475.5 Q206 495 265 495 Q348 495 400 455 Q452 415 452 332 L452 0 Z M377 193 Q356 222 320.5 237.5 Q285 253 244 253 Q192 253 158.5 223.5 Q125 194 125 147 Q125 101 158.5 71.5 Q192 42 244 42 Q285 42 320.5 57.5 Q356 73 377 102 L377 193 Z " />
<glyph glyph-name="aring" unicode="&#xe5;" horiz-adv-x="527" d="M377 55 Q316 -12 217 -12 Q174 -12 135.5 6.5 Q97 25 72.5 61.5 Q48 98 48 148 Q48 199 72.5 235 Q97 271 135.5 289 Q174 307 217 307 Q320 307 377 241 L377 328 Q377 376 343 403 Q309 430 255 430 Q211 430 175 413.5 Q139 397 107 363 L72 415 Q111 456 158.5 475.5 Q206 495 265 495 Q348 495 400 455 Q452 415 452 332 L452 0 L377 0 L377 55 Z M377 193 Q356 222 320.5 237.5 Q285 253 244 253 Q192 253 158.5 223.5 Q125 194 125 147 Q125 101 158.5 71.5 Q192 42 244 42 Q285 42 320.5 57.5 Q356 73 377 102 L377 193 Z M168 641 Q168 682 197 711 Q226 740 266 740 Q306 740 335 711 Q364 682 364 641 Q364 601 335.5 572 Q307 543 266 543 Q226 543 197 572 Q168 601 168 641 Z M324 641 Q324 666 307.5 683 Q291 700 266 700 Q242 700 225 683 Q208 666 208 641 Q208 617 225 599.5 Q242 582 266 582 Q290 582 307 599.5 Q324 617 324 641 Z " />
<glyph glyph-name="atilde" unicode="&#xe3;" horiz-adv-x="527" d="M377 55 Q316 -12 217 -12 Q174 -12 135.5 6.5 Q97 25 72.5 61.5 Q48 98 48 148 Q48 199 72.5 235 Q97 271 135.5 289 Q174 307 217 307 Q320 307 377 241 L377 328 Q377 376 343 403 Q309 430 255 430 Q211 430 175 413.5 Q139 397 107 363 L72 415 Q111 456 158.5 475.5 Q206 495 265 495 Q348 495 400 455 Q452 415 452 332 L452 0 L377 0 L377 55 Z M377 193 Q356 222 320.5 237.5 Q285 253 244 253 Q192 253 158.5 223.5 Q125 194 125 147 Q125 101 158.5 71.5 Q192 42 244 42 Q285 42 320.5 57.5 Q356 73 377 102 L377 193 Z M250 607 Q237 627 227.5 636.5 Q218 646 203 646 Q182 646 168.5 624.5 Q155 603 155 560 L110 560 Q110 620 135.5 657 Q161 694 207 694 Q233 694 248.5 680.5 Q264 667 282 641 Q297 620 306 611 Q315 602 330 602 Q351 602 364.5 623.5 Q378 645 378 688 L423 688 Q423 628 397.5 591 Q372 554 326 554 Q299 554 283.5 567.5 Q268 581 250 607 Z " />
<glyph glyph-name="uni1EA1" unicode="&#x1ea1;" horiz-adv-x="527" d="M377 55 Q316 -12 217 -12 Q174 -12 135.5 6.5 Q97 25 72.5 61.5 Q48 98 48 148 Q48 199 72.5 235 Q97 271 135.5 289 Q174 307 217 307 Q320 307 377 241 L377 328 Q377 376 343 403 Q309 430 255 430 Q211 430 175 413.5 Q139 397 107 363 L72 415 Q111 456 158.5 475.5 Q206 495 265 495 Q348 495 400 455 Q452 415 452 332 L452 0 L377 0 L377 55 Z M377 193 Q356 222 320.5 237.5 Q285 253 244 253 Q192 253 158.5 223.5 Q125 194 125 147 Q125 101 158.5 71.5 Q192 42 244 42 Q285 42 320.5 57.5 Q356 73 377 102 L377 193 Z M219 -129 Q219 -110 233 -96 Q247 -82 266 -82 Q285 -82 298.5 -95.5 Q312 -109 312 -129 Q312 -149 298.5 -162.5 Q285 -176 266 -176 Q247 -176 233 -162 Q219 -148 219 -129 Z " />
<glyph glyph-name="uni1EA3" unicode="&#x1ea3;" horiz-adv-x="527" d="M377 55 Q316 -12 217 -12 Q174 -12 135.5 6.5 Q97 25 72.5 61.5 Q48 98 48 148 Q48 199 72.5 235 Q97 271 135.5 289 Q174 307 217 307 Q320 307 377 241 L377 328 Q377 376 343 403 Q309 430 255 430 Q211 430 175 413.5 Q139 397 107 363 L72 415 Q111 456 158.5 475.5 Q206 495 265 495 Q348 495 400 455 Q452 415 452 332 L452 0 L377 0 L377 55 Z M377 193 Q356 222 320.5 237.5 Q285 253 244 253 Q192 253 158.5 223.5 Q125 194 125 147 Q125 101 158.5 71.5 Q192 42 244 42 Q285 42 320.5 57.5 Q356 73 377 102 L377 193 Z M165 646 Q175 677 200 696.5 Q225 716 260 716 Q299 716 325.5 693.5 Q352 671 352 626 Q352 607 346.5 591 Q341 575 328 557 L277 557 Q306 589 306 625 Q306 650 293.5 662.5 Q281 675 260 675 Q222 675 207 633 L165 646 Z " />
<glyph glyph-name="uni1EA5" unicode="&#x1ea5;" horiz-adv-x="527" d="M377 55 Q316 -12 217 -12 Q174 -12 135.5 6.5 Q97 25 72.5 61.5 Q48 98 48 148 Q48 199 72.5 235 Q97 271 135.5 289 Q174 307 217 307 Q320 307 377 241 L377 328 Q377 376 343 403 Q309 430 255 430 Q211 430 175 413.5 Q139 397 107 363 L72 415 Q111 456 158.5 475.5 Q206 495 265 495 Q348 495 400 455 Q452 415 452 332 L452 0 L377 0 L377 55 Z M377 193 Q356 222 320.5 237.5 Q285 253 244 253 Q192 253 158.5 223.5 Q125 194 125 147 Q125 101 158.5 71.5 Q192 42 244 42 Q285 42 320.5 57.5 Q356 73 377 102 L377 193 Z M266 662 L186 556 L135 556 L230 700 L302 700 L400 556 L349 556 L266 662 Z M368 656 L516 800 L594 800 L425 656 L368 656 Z " />
<glyph glyph-name="uni1EAD" unicode="&#x1ead;" horiz-adv-x="527" d="M377 55 Q316 -12 217 -12 Q174 -12 135.5 6.5 Q97 25 72.5 61.5 Q48 98 48 148 Q48 199 72.5 235 Q97 271 135.5 289 Q174 307 217 307 Q320 307 377 241 L377 328 Q377 376 343 403 Q309 430 255 430 Q211 430 175 413.5 Q139 397 107 363 L72 415 Q111 456 158.5 475.5 Q206 495 265 495 Q348 495 400 455 Q452 415 452 332 L452 0 L377 0 L377 55 Z M377 193 Q356 222 320.5 237.5 Q285 253 244 253 Q192 253 158.5 223.5 Q125 194 125 147 Q125 101 158.5 71.5 Q192 42 244 42 Q285 42 320.5 57.5 Q356 73 377 102 L377 193 Z M219 -129 Q219 -110 233 -96 Q247 -82 266 -82 Q285 -82 298.5 -95.5 Q312 -109 312 -129 Q312 -149 298.5 -162.5 Q285 -176 266 -176 Q247 -176 233 -162 Q219 -148 219 -129 Z M266 662 L186 556 L135 556 L230 700 L302 700 L400 556 L349 556 L266 662 Z " />
<glyph glyph-name="uni1EA7" unicode="&#x1ea7;" horiz-adv-x="527" d="M377 55 Q316 -12 217 -12 Q174 -12 135.5 6.5 Q97 25 72.5 61.5 Q48 98 48 148 Q48 199 72.5 235 Q97 271 135.5 289 Q174 307 217 307 Q320 307 377 241 L377 328 Q377 376 343 403 Q309 430 255 430 Q211 430 175 413.5 Q139 397 107 363 L72 415 Q111 456 158.5 475.5 Q206 495 265 495 Q348 495 400 455 Q452 415 452 332 L452 0 L377 0 L377 55 Z M377 193 Q356 222 320.5 237.5 Q285 253 244 253 Q192 253 158.5 223.5 Q125 194 125 147 Q125 101 158.5 71.5 Q192 42 244 42 Q285 42 320.5 57.5 Q356 73 377 102 L377 193 Z M266 662 L186 556 L135 556 L230 700 L302 700 L400 556 L349 556 L266 662 Z M-58 800 L20 800 L168 656 L111 656 L-58 800 Z " />
<glyph glyph-name="uni1EA9" unicode="&#x1ea9;" horiz-adv-x="527" d="M377 55 Q316 -12 217 -12 Q174 -12 135.5 6.5 Q97 25 72.5 61.5 Q48 98 48 148 Q48 199 72.5 235 Q97 271 135.5 289 Q174 307 217 307 Q320 307 377 241 L377 328 Q377 376 343 403 Q309 430 255 430 Q211 430 175 413.5 Q139 397 107 363 L72 415 Q111 456 158.5 475.5 Q206 495 265 495 Q348 495 400 455 Q452 415 452 332 L452 0 L377 0 L377 55 Z M377 193 Q356 222 320.5 237.5 Q285 253 244 253 Q192 253 158.5 223.5 Q125 194 125 147 Q125 101 158.5 71.5 Q192 42 244 42 Q285 42 320.5 57.5 Q356 73 377 102 L377 193 Z M266 662 L186 556 L135 556 L230 700 L302 700 L400 556 L349 556 L266 662 Z M256 745 Q266 776 291 795.5 Q316 815 351 815 Q390 815 416.5 792.5 Q443 770 443 725 Q443 706 437.5 690 Q432 674 419 656 L368 656 Q397 688 397 724 Q397 749 384.5 761.5 Q372 774 351 774 Q313 774 298 732 L256 745 Z " />
<glyph glyph-name="uni1EAF" unicode="&#x1eaf;" horiz-adv-x="527" d="M377 55 Q316 -12 217 -12 Q174 -12 135.5 6.5 Q97 25 72.5 61.5 Q48 98 48 148 Q48 199 72.5 235 Q97 271 135.5 289 Q174 307 217 307 Q320 307 377 241 L377 328 Q377 376 343 403 Q309 430 255 430 Q211 430 175 413.5 Q139 397 107 363 L72 415 Q111 456 158.5 475.5 Q206 495 265 495 Q348 495 400 455 Q452 415 452 332 L452 0 L377 0 L377 55 Z M377 193 Q356 222 320.5 237.5 Q285 253 244 253 Q192 253 158.5 223.5 Q125 194 125 147 Q125 101 158.5 71.5 Q192 42 244 42 Q285 42 320.5 57.5 Q356 73 377 102 L377 193 Z M266 550 Q213 550 167 573.5 Q121 597 90 638 L127 670 Q152 636 187.5 617 Q223 598 266 598 Q309 598 344.5 617 Q380 636 404 670 L441 638 Q410 597 364.5 573.5 Q319 550 266 550 Z M235 676 L383 820 L461 820 L292 676 L235 676 Z " />
<glyph glyph-name="uni1EAB" unicode="&#x1eab;" horiz-adv-x="527" d="M377 55 Q316 -12 217 -12 Q174 -12 135.5 6.5 Q97 25 72.5 61.5 Q48 98 48 148 Q48 199 72.5 235 Q97 271 135.5 289 Q174 307 217 307 Q320 307 377 241 L377 328 Q377 376 343 403 Q309 430 255 430 Q211 430 175 413.5 Q139 397 107 363 L72 415 Q111 456 158.5 475.5 Q206 495 265 495 Q348 495 400 455 Q452 415 452 332 L452 0 L377 0 L377 55 Z M377 193 Q356 222 320.5 237.5 Q285 253 244 253 Q192 253 158.5 223.5 Q125 194 125 147 Q125 101 158.5 71.5 Q192 42 244 42 Q285 42 320.5 57.5 Q356 73 377 102 L377 193 Z M266 662 L186 556 L135 556 L230 700 L302 700 L400 556 L349 556 L266 662 Z M250 769 Q237 789 227.5 798.5 Q218 808 203 808 Q182 808 168.5 786.5 Q155 765 155 722 L110 722 Q110 782 135.5 819 Q161 856 207 856 Q233 856 248.5 842.5 Q264 829 282 803 Q297 782 306 773 Q315 764 330 764 Q351 764 364.5 785.5 Q378 807 378 850 L423 850 Q423 790 397.5 753 Q372 716 326 716 Q299 716 283.5 729.5 Q268 743 250 769 Z " />
<glyph glyph-name="uni1EB1" unicode="&#x1eb1;" horiz-adv-x="527" d="M377 55 Q316 -12 217 -12 Q174 -12 135.5 6.5 Q97 25 72.5 61.5 Q48 98 48 148 Q48 199 72.5 235 Q97 271 135.5 289 Q174 307 217 307 Q320 307 377 241 L377 328 Q377 376 343 403 Q309 430 255 430 Q211 430 175 413.5 Q139 397 107 363 L72 415 Q111 456 158.5 475.5 Q206 495 265 495 Q348 495 400 455 Q452 415 452 332 L452 0 L377 0 L377 55 Z M377 193 Q356 222 320.5 237.5 Q285 253 244 253 Q192 253 158.5 223.5 Q125 194 125 147 Q125 101 158.5 71.5 Q192 42 244 42 Q285 42 320.5 57.5 Q356 73 377 102 L377 193 Z M266 550 Q213 550 167 573.5 Q121 597 90 638 L127 670 Q152 636 187.5 617 Q223 598 266 598 Q309 598 344.5 617 Q380 636 404 670 L441 638 Q410 597 364.5 573.5 Q319 550 266 550 Z M68 820 L146 820 L294 676 L237 676 L68 820 Z " />
<glyph glyph-name="uni1EB3" unicode="&#x1eb3;" horiz-adv-x="527" d="M377 55 Q316 -12 217 -12 Q174 -12 135.5 6.5 Q97 25 72.5 61.5 Q48 98 48 148 Q48 199 72.5 235 Q97 271 135.5 289 Q174 307 217 307 Q320 307 377 241 L377 328 Q377 376 343 403 Q309 430 255 430 Q211 430 175 413.5 Q139 397 107 363 L72 415 Q111 456 158.5 475.5 Q206 495 265 495 Q348 495 400 455 Q452 415 452 332 L452 0 L377 0 L377 55 Z M377 193 Q356 222 320.5 237.5 Q285 253 244 253 Q192 253 158.5 223.5 Q125 194 125 147 Q125 101 158.5 71.5 Q192 42 244 42 Q285 42 320.5 57.5 Q356 73 377 102 L377 193 Z M266 550 Q213 550 167 573.5 Q121 597 90 638 L127 670 Q152 636 187.5 617 Q223 598 266 598 Q309 598 344.5 617 Q380 636 404 670 L441 638 Q410 597 364.5 573.5 Q319 550 266 550 Z M165 766 Q175 797 200 816.5 Q225 836 260 836 Q299 836 325.5 813.5 Q352 791 352 746 Q352 727 346.5 711 Q341 695 328 677 L277 677 Q306 709 306 745 Q306 770 293.5 782.5 Q281 795 260 795 Q222 795 207 753 L165 766 Z " />
<glyph glyph-name="uni1EB5" unicode="&#x1eb5;" horiz-adv-x="527" d="M377 55 Q316 -12 217 -12 Q174 -12 135.5 6.5 Q97 25 72.5 61.5 Q48 98 48 148 Q48 199 72.5 235 Q97 271 135.5 289 Q174 307 217 307 Q320 307 377 241 L377 328 Q377 376 343 403 Q309 430 255 430 Q211 430 175 413.5 Q139 397 107 363 L72 415 Q111 456 158.5 475.5 Q206 495 265 495 Q348 495 400 455 Q452 415 452 332 L452 0 L377 0 L377 55 Z M377 193 Q356 222 320.5 237.5 Q285 253 244 253 Q192 253 158.5 223.5 Q125 194 125 147 Q125 101 158.5 71.5 Q192 42 244 42 Q285 42 320.5 57.5 Q356 73 377 102 L377 193 Z M266 550 Q213 550 167 573.5 Q121 597 90 638 L127 670 Q152 636 187.5 617 Q223 598 266 598 Q309 598 344.5 617 Q380 636 404 670 L441 638 Q410 597 364.5 573.5 Q319 550 266 550 Z M250 727 Q237 747 227.5 756.5 Q218 766 203 766 Q182 766 168.5 744.5 Q155 723 155 680 L110 680 Q110 740 135.5 777 Q161 814 207 814 Q233 814 248.5 800.5 Q264 787 282 761 Q297 740 306 731 Q315 722 330 722 Q351 722 364.5 743.5 Q378 765 378 808 L423 808 Q423 748 397.5 711 Q372 674 326 674 Q299 674 283.5 687.5 Q268 701 250 727 Z " />
<glyph glyph-name="uni1EB7" unicode="&#x1eb7;" horiz-adv-x="527" d="M377 55 Q316 -12 217 -12 Q174 -12 135.5 6.5 Q97 25 72.5 61.5 Q48 98 48 148 Q48 199 72.5 235 Q97 271 135.5 289 Q174 307 217 307 Q320 307 377 241 L377 328 Q377 376 343 403 Q309 430 255 430 Q211 430 175 413.5 Q139 397 107 363 L72 415 Q111 456 158.5 475.5 Q206 495 265 495 Q348 495 400 455 Q452 415 452 332 L452 0 L377 0 L377 55 Z M377 193 Q356 222 320.5 237.5 Q285 253 244 253 Q192 253 158.5 223.5 Q125 194 125 147 Q125 101 158.5 71.5 Q192 42 244 42 Q285 42 320.5 57.5 Q356 73 377 102 L377 193 Z M266 550 Q213 550 167 573.5 Q121 597 90 638 L127 670 Q152 636 187.5 617 Q223 598 266 598 Q309 598 344.5 617 Q380 636 404 670 L441 638 Q410 597 364.5 573.5 Q319 550 266 550 Z M219 -129 Q219 -110 233 -96 Q247 -82 266 -82 Q285 -82 298.5 -95.5 Q312 -109 312 -129 Q312 -149 298.5 -162.5 Q285 -176 266 -176 Q247 -176 233 -162 Q219 -148 219 -129 Z " />
<glyph glyph-name="ae" unicode="&#xe6;" horiz-adv-x="889" d="M476 217 Q481 146 524 99 Q567 52 637 52 Q677 52 713 67.5 Q749 83 776 113 L812 62 Q777 26 731 7 Q685 -12 634 -12 Q569 -12 519.5 16.5 Q470 45 441 104 Q415 52 361.5 20 Q308 -12 242 -12 Q160 -12 104 30.5 Q48 73 48 148 Q48 198 72.5 234 Q97 270 137.5 288.5 Q178 307 226 307 Q338 307 401 243 L401 329 Q401 376 364.5 403 Q328 430 268 430 Q220 430 181 414 Q142 398 107 363 L72 415 Q151 495 277 495 Q341 495 388 469 Q435 443 448 390 Q475 437 520 466 Q565 495 627 495 Q694 495 743 461 Q792 427 817.5 368 Q843 309 843 236 L843 217 L476 217 Z M769 272 Q768 311 752.5 348 Q737 385 704 409 Q671 433 622 433 Q577 433 544.5 409 Q512 385 495 348 Q478 311 476 272 L769 272 Z M401 192 Q377 221 338 237 Q299 253 256 253 Q197 253 161 225.5 Q125 198 125 152 Q125 107 161 79.5 Q197 52 256 52 Q297 52 330 70.5 Q363 89 382 118.5 Q401 148 401 180 L401 192 Z " />
<glyph glyph-name="aeacute" unicode="&#x1fd;" horiz-adv-x="889" d="M476 217 Q481 146 524 99 Q567 52 637 52 Q677 52 713 67.5 Q749 83 776 113 L812 62 Q777 26 731 7 Q685 -12 634 -12 Q569 -12 519.5 16.5 Q470 45 441 104 Q415 52 361.5 20 Q308 -12 242 -12 Q160 -12 104 30.5 Q48 73 48 148 Q48 198 72.5 234 Q97 270 137.5 288.5 Q178 307 226 307 Q338 307 401 243 L401 329 Q401 376 364.5 403 Q328 430 268 430 Q220 430 181 414 Q142 398 107 363 L72 415 Q151 495 277 495 Q341 495 388 469 Q435 443 448 390 Q475 437 520 466 Q565 495 627 495 Q694 495 743 461 Q792 427 817.5 368 Q843 309 843 236 L843 217 L476 217 Z M769 272 Q768 311 752.5 348 Q737 385 704 409 Q671 433 622 433 Q577 433 544.5 409 Q512 385 495 348 Q478 311 476 272 L769 272 Z M401 192 Q377 221 338 237 Q299 253 256 253 Q197 253 161 225.5 Q125 198 125 152 Q125 107 161 79.5 Q197 52 256 52 Q297 52 330 70.5 Q363 89 382 118.5 Q401 148 401 180 L401 192 Z M410 556 L558 700 L636 700 L467 556 L410 556 Z " />
<glyph glyph-name="uni1E03" unicode="&#x1e03;" horiz-adv-x="575" d="M75 667 L150 667 L150 410 Q180 450 222 472.5 Q264 495 313 495 Q376 495 424.5 463.5 Q473 432 500.5 374.5 Q528 317 528 241 Q528 164 500.5 106.5 Q473 49 424.5 18.5 Q376 -12 313 -12 Q264 -12 221 11 Q178 34 150 72 L150 0 L75 0 L75 667 Z M150 131 Q170 99 210.5 77 Q251 55 294 55 Q366 55 408 107 Q450 159 450 241 Q450 323 408 375.5 Q366 428 294 428 Q251 428 210.5 405.5 Q170 383 150 350 L150 131 Z M247 778 Q247 797 261 811 Q275 825 294 825 Q313 825 326.5 811.5 Q340 798 340 778 Q340 758 326.5 744.5 Q313 731 294 731 Q275 731 261 745 Q247 759 247 778 Z " />
<glyph glyph-name="cacute" unicode="&#x107;" horiz-adv-x="495" d="M47 242 Q47 313 77.5 371 Q108 429 162.5 462 Q217 495 288 495 Q350 495 392 473 Q434 451 465 411 L415 365 Q369 428 292 428 Q216 428 170.5 376 Q125 324 125 242 Q125 160 170.5 107.5 Q216 55 292 55 Q368 55 415 118 L465 72 Q434 32 392 10 Q350 -12 288 -12 Q217 -12 162.5 21 Q108 54 77.5 112 Q47 170 47 242 Z M255 556 L403 700 L481 700 L312 556 L255 556 Z " />
<glyph glyph-name="ccedilla" unicode="&#xe7;" horiz-adv-x="495" d="M292 55 Q368 55 415 118 L465 72 Q437 35 399 13.5 Q361 -8 307 -11 L290 -55 Q306 -44 327 -44 Q356 -44 374.5 -62 Q393 -80 393 -109 Q393 -146 363 -168.5 Q333 -191 289 -191 Q258 -191 231 -182.5 Q204 -174 188 -161 L207 -123 Q242 -152 287 -152 Q313 -152 330.5 -140.5 Q348 -129 348 -108 Q348 -93 338.5 -84 Q329 -75 311 -75 Q301 -75 290.5 -79.5 Q280 -84 273 -92 L240 -73 L263 -11 Q199 -5 150 29.5 Q101 64 74 119.5 Q47 175 47 242 Q47 313 77.5 371 Q108 429 162.5 462 Q217 495 288 495 Q350 495 392 473 Q434 451 465 411 L415 365 Q369 428 292 428 Q216 428 170.5 376 Q125 324 125 242 Q125 160 170.5 107.5 Q216 55 292 55 Z " />
<glyph glyph-name="ccircumflex" unicode="&#x109;" horiz-adv-x="495" d="M47 242 Q47 313 77.5 371 Q108 429 162.5 462 Q217 495 288 495 Q350 495 392 473 Q434 451 465 411 L415 365 Q369 428 292 428 Q216 428 170.5 376 Q125 324 125 242 Q125 160 170.5 107.5 Q216 55 292 55 Q368 55 415 118 L465 72 Q434 32 392 10 Q350 -12 288 -12 Q217 -12 162.5 21 Q108 54 77.5 112 Q47 170 47 242 Z M286 662 L206 556 L155 556 L250 700 L322 700 L420 556 L369 556 L286 662 Z " />
<glyph glyph-name="cdotaccent" unicode="&#x10b;" horiz-adv-x="495" d="M47 242 Q47 313 77.5 371 Q108 429 162.5 462 Q217 495 288 495 Q350 495 392 473 Q434 451 465 411 L415 365 Q369 428 292 428 Q216 428 170.5 376 Q125 324 125 242 Q125 160 170.5 107.5 Q216 55 292 55 Q368 55 415 118 L465 72 Q434 32 392 10 Q350 -12 288 -12 Q217 -12 162.5 21 Q108 54 77.5 112 Q47 170 47 242 Z M239 611 Q239 630 253 644 Q267 658 286 658 Q305 658 318.5 644.5 Q332 631 332 611 Q332 591 318.5 577.5 Q305 564 286 564 Q267 564 253 578 Q239 592 239 611 Z " />
<glyph glyph-name="ccaron" unicode="&#x10d;" horiz-adv-x="495" d="M47 242 Q47 313 77.5 371 Q108 429 162.5 462 Q217 495 288 495 Q350 495 392 473 Q434 451 465 411 L415 365 Q369 428 292 428 Q216 428 170.5 376 Q125 324 125 242 Q125 160 170.5 107.5 Q216 55 292 55 Q368 55 415 118 L465 72 Q434 32 392 10 Q350 -12 288 -12 Q217 -12 162.5 21 Q108 54 77.5 112 Q47 170 47 242 Z M152 700 L203 700 L286 594 L366 700 L417 700 L322 556 L250 556 L152 700 Z " />
<glyph glyph-name="dcaron" unicode="&#x10f;" horiz-adv-x="644" d="M425 72 Q397 34 354 11 Q311 -12 262 -12 Q199 -12 150.5 18.5 Q102 49 74.5 106.5 Q47 164 47 241 Q47 317 74 374.5 Q101 432 150 463.5 Q199 495 262 495 Q310 495 352.5 472.5 Q395 450 425 410 L425 667 L500 667 L500 0 L425 0 L425 72 Z M425 350 Q404 383 363.5 405.5 Q323 428 280 428 Q209 428 167 375.5 Q125 323 125 241 Q125 159 167 107 Q209 55 280 55 Q324 55 364 77 Q404 99 425 131 L425 350 Z M544 505 Q567 520 583.5 544.5 Q600 569 602 591 Q600 589 591 589 Q573 589 561 601.5 Q549 614 549 633 Q549 653 562.5 666.5 Q576 680 595 680 Q617 680 632.5 662 Q648 644 648 613 Q648 574 628 538 Q608 502 577 479 L544 505 Z " />
<glyph glyph-name="dslash" unicode="&#x111;" horiz-adv-x="577" d="M568 535 L500 535 L500 0 L425 0 L425 72 Q397 34 354 11 Q311 -12 262 -12 Q199 -12 150.5 18.5 Q102 49 74.5 106.5 Q47 164 47 241 Q47 317 74 374.5 Q101 432 150 463.5 Q199 495 262 495 Q310 495 352.5 472.5 Q395 450 425 410 L425 535 L268 535 L268 583 L425 583 L425 667 L500 667 L500 583 L568 583 L568 535 Z M425 350 Q404 383 363.5 405.5 Q323 428 280 428 Q209 428 167 375.5 Q125 323 125 241 Q125 159 167 107 Q209 55 280 55 Q324 55 364 77 Q404 99 425 131 L425 350 Z " />
<glyph glyph-name="uni1E0B" unicode="&#x1e0b;" horiz-adv-x="575" d="M425 72 Q397 34 354 11 Q311 -12 262 -12 Q199 -12 150.5 18.5 Q102 49 74.5 106.5 Q47 164 47 241 Q47 317 74 374.5 Q101 432 150 463.5 Q199 495 262 495 Q310 495 352.5 472.5 Q395 450 425 410 L425 667 L500 667 L500 0 L425 0 L425 72 Z M425 350 Q404 383 363.5 405.5 Q323 428 280 428 Q209 428 167 375.5 Q125 323 125 241 Q125 159 167 107 Q209 55 280 55 Q324 55 364 77 Q404 99 425 131 L425 350 Z M243 778 Q243 797 257 811 Q271 825 290 825 Q309 825 322.5 811.5 Q336 798 336 778 Q336 758 322.5 744.5 Q309 731 290 731 Q271 731 257 745 Q243 759 243 778 Z " />
<glyph glyph-name="eacute" unicode="&#xe9;" horiz-adv-x="563" d="M47 242 Q47 311 78 369 Q109 427 163 461 Q217 495 285 495 Q356 495 408.5 461 Q461 427 489 368 Q517 309 517 236 L517 217 L126 217 Q131 146 178 98 Q225 50 300 50 Q342 50 381.5 66 Q421 82 449 111 L485 62 Q411 -12 293 -12 Q222 -12 166 20 Q110 52 78.5 110 Q47 168 47 242 Z M284 433 Q235 433 200 409 Q165 385 146.5 348 Q128 311 126 272 L443 272 Q442 311 424.5 348 Q407 385 371.5 409 Q336 433 284 433 Z M253 556 L401 700 L479 700 L310 556 L253 556 Z " />
<glyph glyph-name="ebreve" unicode="&#x115;" horiz-adv-x="563" d="M47 242 Q47 311 78 369 Q109 427 163 461 Q217 495 285 495 Q356 495 408.5 461 Q461 427 489 368 Q517 309 517 236 L517 217 L126 217 Q131 146 178 98 Q225 50 300 50 Q342 50 381.5 66 Q421 82 449 111 L485 62 Q411 -12 293 -12 Q222 -12 166 20 Q110 52 78.5 110 Q47 168 47 242 Z M284 433 Q235 433 200 409 Q165 385 146.5 348 Q128 311 126 272 L443 272 Q442 311 424.5 348 Q407 385 371.5 409 Q336 433 284 433 Z M284 550 Q231 550 185 573.5 Q139 597 108 638 L145 670 Q170 636 205.5 617 Q241 598 284 598 Q327 598 362.5 617 Q398 636 422 670 L459 638 Q428 597 382.5 573.5 Q337 550 284 550 Z " />
<glyph glyph-name="ecircumflex" unicode="&#xea;" horiz-adv-x="563" d="M47 242 Q47 311 78 369 Q109 427 163 461 Q217 495 285 495 Q356 495 408.5 461 Q461 427 489 368 Q517 309 517 236 L517 217 L126 217 Q131 146 178 98 Q225 50 300 50 Q342 50 381.5 66 Q421 82 449 111 L485 62 Q411 -12 293 -12 Q222 -12 166 20 Q110 52 78.5 110 Q47 168 47 242 Z M284 433 Q235 433 200 409 Q165 385 146.5 348 Q128 311 126 272 L443 272 Q442 311 424.5 348 Q407 385 371.5 409 Q336 433 284 433 Z M284 662 L204 556 L153 556 L248 700 L320 700 L418 556 L367 556 L284 662 Z " />
<glyph glyph-name="edieresis" unicode="&#xeb;" horiz-adv-x="563" d="M47 242 Q47 311 78 369 Q109 427 163 461 Q217 495 285 495 Q356 495 408.5 461 Q461 427 489 368 Q517 309 517 236 L517 217 L126 217 Q131 146 178 98 Q225 50 300 50 Q342 50 381.5 66 Q421 82 449 111 L485 62 Q411 -12 293 -12 Q222 -12 166 20 Q110 52 78.5 110 Q47 168 47 242 Z M284 433 Q235 433 200 409 Q165 385 146.5 348 Q128 311 126 272 L443 272 Q442 311 424.5 348 Q407 385 371.5 409 Q336 433 284 433 Z M181 566 Q162 566 148.5 580 Q135 594 135 613 Q135 632 148.5 645.5 Q162 659 181 659 Q200 659 213.5 645.5 Q227 632 227 613 Q227 593 213.5 579.5 Q200 566 181 566 Z M388 566 Q369 566 355 580 Q341 594 341 613 Q341 632 355 645.5 Q369 659 388 659 Q407 659 420.5 645.5 Q434 632 434 613 Q434 594 420.5 580 Q407 566 388 566 Z " />
<glyph glyph-name="edotaccent" unicode="&#x117;" horiz-adv-x="563" d="M47 242 Q47 311 78 369 Q109 427 163 461 Q217 495 285 495 Q356 495 408.5 461 Q461 427 489 368 Q517 309 517 236 L517 217 L126 217 Q131 146 178 98 Q225 50 300 50 Q342 50 381.5 66 Q421 82 449 111 L485 62 Q411 -12 293 -12 Q222 -12 166 20 Q110 52 78.5 110 Q47 168 47 242 Z M284 433 Q235 433 200 409 Q165 385 146.5 348 Q128 311 126 272 L443 272 Q442 311 424.5 348 Q407 385 371.5 409 Q336 433 284 433 Z M237 611 Q237 630 251 644 Q265 658 284 658 Q303 658 316.5 644.5 Q330 631 330 611 Q330 591 316.5 577.5 Q303 564 284 564 Q265 564 251 578 Q237 592 237 611 Z " />
<glyph glyph-name="egrave" unicode="&#xe8;" horiz-adv-x="563" d="M47 242 Q47 311 78 369 Q109 427 163 461 Q217 495 285 495 Q356 495 408.5 461 Q461 427 489 368 Q517 309 517 236 L517 217 L126 217 Q131 146 178 98 Q225 50 300 50 Q342 50 381.5 66 Q421 82 449 111 L485 62 Q411 -12 293 -12 Q222 -12 166 20 Q110 52 78.5 110 Q47 168 47 242 Z M284 433 Q235 433 200 409 Q165 385 146.5 348 Q128 311 126 272 L443 272 Q442 311 424.5 348 Q407 385 371.5 409 Q336 433 284 433 Z M86 700 L164 700 L312 556 L255 556 L86 700 Z " />
<glyph glyph-name="emacron" unicode="&#x113;" horiz-adv-x="563" d="M47 242 Q47 311 78 369 Q109 427 163 461 Q217 495 285 495 Q356 495 408.5 461 Q461 427 489 368 Q517 309 517 236 L517 217 L126 217 Q131 146 178 98 Q225 50 300 50 Q342 50 381.5 66 Q421 82 449 111 L485 62 Q411 -12 293 -12 Q222 -12 166 20 Q110 52 78.5 110 Q47 168 47 242 Z M284 433 Q235 433 200 409 Q165 385 146.5 348 Q128 311 126 272 L443 272 Q442 311 424.5 348 Q407 385 371.5 409 Q336 433 284 433 Z M130 620 L437 620 L437 572 L130 572 L130 620 Z " />
<glyph glyph-name="eogonek" unicode="&#x119;" horiz-adv-x="563" d="M293 -12 Q222 -12 166 20 Q110 52 78.5 110 Q47 168 47 242 Q47 311 78 369 Q109 427 163 461 Q217 495 285 495 Q356 495 408.5 461 Q461 427 489 368 Q517 309 517 236 L517 217 L126 217 Q131 146 178 98 Q225 50 300 50 Q342 50 381.5 66 Q421 82 449 111 L485 62 Q430 16 402 -21.5 Q374 -59 374 -89 Q374 -110 386 -121.5 Q398 -133 417 -133 Q435 -133 450 -124 L470 -169 Q443 -186 402 -186 Q362 -186 333 -166.5 Q304 -147 304 -111 Q304 -82 325 -53 Q346 -24 379 0 Q340 -12 293 -12 Z M284 433 Q235 433 200 409 Q165 385 146.5 348 Q128 311 126 272 L443 272 Q442 311 424.5 348 Q407 385 371.5 409 Q336 433 284 433 Z " />
<glyph glyph-name="ecaron" unicode="&#x11b;" horiz-adv-x="563" d="M47 242 Q47 311 78 369 Q109 427 163 461 Q217 495 285 495 Q356 495 408.5 461 Q461 427 489 368 Q517 309 517 236 L517 217 L126 217 Q131 146 178 98 Q225 50 300 50 Q342 50 381.5 66 Q421 82 449 111 L485 62 Q411 -12 293 -12 Q222 -12 166 20 Q110 52 78.5 110 Q47 168 47 242 Z M284 433 Q235 433 200 409 Q165 385 146.5 348 Q128 311 126 272 L443 272 Q442 311 424.5 348 Q407 385 371.5 409 Q336 433 284 433 Z M150 700 L201 700 L284 594 L364 700 L415 700 L320 556 L248 556 L150 700 Z " />
<glyph glyph-name="uni1EB9" unicode="&#x1eb9;" horiz-adv-x="563" d="M47 242 Q47 311 78 369 Q109 427 163 461 Q217 495 285 495 Q356 495 408.5 461 Q461 427 489 368 Q517 309 517 236 L517 217 L126 217 Q131 146 178 98 Q225 50 300 50 Q342 50 381.5 66 Q421 82 449 111 L485 62 Q411 -12 293 -12 Q222 -12 166 20 Q110 52 78.5 110 Q47 168 47 242 Z M284 433 Q235 433 200 409 Q165 385 146.5 348 Q128 311 126 272 L443 272 Q442 311 424.5 348 Q407 385 371.5 409 Q336 433 284 433 Z M237 -129 Q237 -110 251 -96 Q265 -82 284 -82 Q303 -82 316.5 -95.5 Q330 -109 330 -129 Q330 -149 316.5 -162.5 Q303 -176 284 -176 Q265 -176 251 -162 Q237 -148 237 -129 Z " />
<glyph glyph-name="uni1EBB" unicode="&#x1ebb;" horiz-adv-x="563" d="M47 242 Q47 311 78 369 Q109 427 163 461 Q217 495 285 495 Q356 495 408.5 461 Q461 427 489 368 Q517 309 517 236 L517 217 L126 217 Q131 146 178 98 Q225 50 300 50 Q342 50 381.5 66 Q421 82 449 111 L485 62 Q411 -12 293 -12 Q222 -12 166 20 Q110 52 78.5 110 Q47 168 47 242 Z M284 433 Q235 433 200 409 Q165 385 146.5 348 Q128 311 126 272 L443 272 Q442 311 424.5 348 Q407 385 371.5 409 Q336 433 284 433 Z M183 646 Q193 677 218 696.5 Q243 716 278 716 Q317 716 343.5 693.5 Q370 671 370 626 Q370 607 364.5 591 Q359 575 346 557 L295 557 Q324 589 324 625 Q324 650 311.5 662.5 Q299 675 278 675 Q240 675 225 633 L183 646 Z " />
<glyph glyph-name="uni1EBD" unicode="&#x1ebd;" horiz-adv-x="563" d="M47 242 Q47 311 78 369 Q109 427 163 461 Q217 495 285 495 Q356 495 408.5 461 Q461 427 489 368 Q517 309 517 236 L517 217 L126 217 Q131 146 178 98 Q225 50 300 50 Q342 50 381.5 66 Q421 82 449 111 L485 62 Q411 -12 293 -12 Q222 -12 166 20 Q110 52 78.5 110 Q47 168 47 242 Z M284 433 Q235 433 200 409 Q165 385 146.5 348 Q128 311 126 272 L443 272 Q442 311 424.5 348 Q407 385 371.5 409 Q336 433 284 433 Z M268 607 Q255 627 245.5 636.5 Q236 646 221 646 Q200 646 186.5 624.5 Q173 603 173 560 L128 560 Q128 620 153.5 657 Q179 694 225 694 Q251 694 266.5 680.5 Q282 667 300 641 Q315 620 324 611 Q333 602 348 602 Q369 602 382.5 623.5 Q396 645 396 688 L441 688 Q441 628 415.5 591 Q390 554 344 554 Q317 554 301.5 567.5 Q286 581 268 607 Z " />
<glyph glyph-name="uni1EBF" unicode="&#x1ebf;" horiz-adv-x="563" d="M47 242 Q47 311 78 369 Q109 427 163 461 Q217 495 285 495 Q356 495 408.5 461 Q461 427 489 368 Q517 309 517 236 L517 217 L126 217 Q131 146 178 98 Q225 50 300 50 Q342 50 381.5 66 Q421 82 449 111 L485 62 Q411 -12 293 -12 Q222 -12 166 20 Q110 52 78.5 110 Q47 168 47 242 Z M284 433 Q235 433 200 409 Q165 385 146.5 348 Q128 311 126 272 L443 272 Q442 311 424.5 348 Q407 385 371.5 409 Q336 433 284 433 Z M284 662 L204 556 L153 556 L248 700 L320 700 L418 556 L367 556 L284 662 Z M386 656 L534 800 L612 800 L443 656 L386 656 Z " />
<glyph glyph-name="uni1EC1" unicode="&#x1ec1;" horiz-adv-x="563" d="M47 242 Q47 311 78 369 Q109 427 163 461 Q217 495 285 495 Q356 495 408.5 461 Q461 427 489 368 Q517 309 517 236 L517 217 L126 217 Q131 146 178 98 Q225 50 300 50 Q342 50 381.5 66 Q421 82 449 111 L485 62 Q411 -12 293 -12 Q222 -12 166 20 Q110 52 78.5 110 Q47 168 47 242 Z M284 433 Q235 433 200 409 Q165 385 146.5 348 Q128 311 126 272 L443 272 Q442 311 424.5 348 Q407 385 371.5 409 Q336 433 284 433 Z M284 662 L204 556 L153 556 L248 700 L320 700 L418 556 L367 556 L284 662 Z M-40 800 L38 800 L186 656 L129 656 L-40 800 Z " />
<glyph glyph-name="uni1EC3" unicode="&#x1ec3;" horiz-adv-x="563" d="M47 242 Q47 311 78 369 Q109 427 163 461 Q217 495 285 495 Q356 495 408.5 461 Q461 427 489 368 Q517 309 517 236 L517 217 L126 217 Q131 146 178 98 Q225 50 300 50 Q342 50 381.5 66 Q421 82 449 111 L485 62 Q411 -12 293 -12 Q222 -12 166 20 Q110 52 78.5 110 Q47 168 47 242 Z M284 433 Q235 433 200 409 Q165 385 146.5 348 Q128 311 126 272 L443 272 Q442 311 424.5 348 Q407 385 371.5 409 Q336 433 284 433 Z M284 662 L204 556 L153 556 L248 700 L320 700 L418 556 L367 556 L284 662 Z M274 745 Q284 776 309 795.5 Q334 815 369 815 Q408 815 434.5 792.5 Q461 770 461 725 Q461 706 455.5 690 Q450 674 437 656 L386 656 Q415 688 415 724 Q415 749 402.5 761.5 Q390 774 369 774 Q331 774 316 732 L274 745 Z " />
<glyph glyph-name="uni1EC5" unicode="&#x1ec5;" horiz-adv-x="563" d="M47 242 Q47 311 78 369 Q109 427 163 461 Q217 495 285 495 Q356 495 408.5 461 Q461 427 489 368 Q517 309 517 236 L517 217 L126 217 Q131 146 178 98 Q225 50 300 50 Q342 50 381.5 66 Q421 82 449 111 L485 62 Q411 -12 293 -12 Q222 -12 166 20 Q110 52 78.5 110 Q47 168 47 242 Z M284 433 Q235 433 200 409 Q165 385 146.5 348 Q128 311 126 272 L443 272 Q442 311 424.5 348 Q407 385 371.5 409 Q336 433 284 433 Z M284 662 L204 556 L153 556 L248 700 L320 700 L418 556 L367 556 L284 662 Z M268 769 Q255 789 245.5 798.5 Q236 808 221 808 Q200 808 186.5 786.5 Q173 765 173 722 L128 722 Q128 782 153.5 819 Q179 856 225 856 Q251 856 266.5 842.5 Q282 829 300 803 Q315 782 324 773 Q333 764 348 764 Q369 764 382.5 785.5 Q396 807 396 850 L441 850 Q441 790 415.5 753 Q390 716 344 716 Q317 716 301.5 729.5 Q286 743 268 769 Z " />
<glyph glyph-name="uni1EC7" unicode="&#x1ec7;" horiz-adv-x="563" d="M47 242 Q47 311 78 369 Q109 427 163 461 Q217 495 285 495 Q356 495 408.5 461 Q461 427 489 368 Q517 309 517 236 L517 217 L126 217 Q131 146 178 98 Q225 50 300 50 Q342 50 381.5 66 Q421 82 449 111 L485 62 Q411 -12 293 -12 Q222 -12 166 20 Q110 52 78.5 110 Q47 168 47 242 Z M284 433 Q235 433 200 409 Q165 385 146.5 348 Q128 311 126 272 L443 272 Q442 311 424.5 348 Q407 385 371.5 409 Q336 433 284 433 Z M237 -129 Q237 -110 251 -96 Q265 -82 284 -82 Q303 -82 316.5 -95.5 Q330 -109 330 -129 Q330 -149 316.5 -162.5 Q303 -176 284 -176 Q265 -176 251 -162 Q237 -148 237 -129 Z M284 662 L204 556 L153 556 L248 700 L320 700 L418 556 L367 556 L284 662 Z " />
<glyph glyph-name="f_f" unicode="&#xfb00;" horiz-adv-x="566" d="M96 417 L16 417 L16 483 L96 483 L96 520 Q96 594 134 635.5 Q172 677 236 677 Q282 677 309 660 L290 604 Q271 615 247 615 Q210 615 190.5 590.5 Q171 566 171 520 L171 483 L269 483 L269 417 L171 417 L171 0 L96 0 L96 417 Z M379 417 L299 417 L299 483 L379 483 L379 520 Q379 594 417 635.5 Q455 677 519 677 Q565 677 592 660 L573 604 Q554 615 530 615 Q493 615 473.5 590.5 Q454 566 454 520 L454 483 L552 483 L552 417 L454 417 L454 0 L379 0 L379 417 Z " />
<glyph glyph-name="fi" unicode="&#xfb01;" horiz-adv-x="509" d="M96 417 L16 417 L16 483 L96 483 L96 520 Q96 594 134 635.5 Q172 677 236 677 Q282 677 309 660 L290 603 Q271 615 247 615 Q210 615 190.5 590.5 Q171 566 171 520 L171 483 L269 483 L269 417 L171 417 L171 0 L96 0 L96 417 Z M395 561 Q375 561 360 575.5 Q345 590 345 611 Q345 632 360 647 Q375 662 395 662 Q416 662 431 647 Q446 632 446 611 Q446 590 431 575.5 Q416 561 395 561 Z M358 483 L433 483 L433 0 L358 0 L358 483 Z " />
<glyph glyph-name="f_j" unicode="&#xe005;" horiz-adv-x="509" d="M96 417 L16 417 L16 483 L96 483 L96 520 Q96 594 134 635.5 Q172 677 236 677 Q282 677 309 660 L290 603 Q271 615 247 615 Q210 615 190.5 590.5 Q171 566 171 520 L171 483 L269 483 L269 417 L171 417 L171 0 L96 0 L96 417 Z M395 561 Q375 561 360 575.5 Q345 590 345 611 Q345 632 360 647 Q375 662 395 662 Q416 662 431 647 Q446 632 446 611 Q446 590 431 575.5 Q416 561 395 561 Z M433 -47 Q433 -118 396 -157 Q359 -196 291 -196 Q259 -196 237 -189 L247 -126 Q259 -131 283 -131 Q358 -131 358 -47 L358 483 L433 483 L433 -47 Z " />
<glyph glyph-name="fl" unicode="&#xfb02;" horiz-adv-x="509" d="M96 417 L16 417 L16 483 L96 483 L96 520 Q96 594 134 635.5 Q172 677 236 677 Q282 677 309 660 L290 603 Q271 615 247 615 Q210 615 190.5 590.5 Q171 566 171 520 L171 483 L269 483 L269 417 L171 417 L171 0 L96 0 L96 417 Z M358 667 L433 667 L433 0 L358 0 L358 667 Z " />
<glyph glyph-name="f_f_i" unicode="&#xfb03;" horiz-adv-x="792" d="M96 417 L16 417 L16 483 L96 483 L96 520 Q96 594 134 635.5 Q172 677 236 677 Q282 677 309 660 L290 604 Q271 615 247 615 Q210 615 190.5 590.5 Q171 566 171 520 L171 483 L269 483 L269 417 L171 417 L171 0 L96 0 L96 417 Z M379 417 L299 417 L299 483 L379 483 L379 520 Q379 594 417 635.5 Q455 677 519 677 Q565 677 592 660 L573 603 Q554 615 530 615 Q493 615 473.5 590.5 Q454 566 454 520 L454 483 L552 483 L552 417 L454 417 L454 0 L379 0 L379 417 Z M678 561 Q658 561 643 575.5 Q628 590 628 611 Q628 632 643 647 Q658 662 678 662 Q699 662 714 647 Q729 632 729 611 Q729 590 714 575.5 Q699 561 678 561 Z M641 483 L716 483 L716 0 L641 0 L641 483 Z " />
<glyph glyph-name="f_f_j" unicode="&#xe004;" horiz-adv-x="792" d="M96 417 L16 417 L16 483 L96 483 L96 520 Q96 594 134 635.5 Q172 677 236 677 Q282 677 309 660 L290 604 Q271 615 247 615 Q210 615 190.5 590.5 Q171 566 171 520 L171 483 L269 483 L269 417 L171 417 L171 0 L96 0 L96 417 Z M379 417 L299 417 L299 483 L379 483 L379 520 Q379 594 417 635.5 Q455 677 519 677 Q565 677 592 660 L573 603 Q554 615 530 615 Q493 615 473.5 590.5 Q454 566 454 520 L454 483 L552 483 L552 417 L454 417 L454 0 L379 0 L379 417 Z M678 561 Q658 561 643 575.5 Q628 590 628 611 Q628 632 643 647 Q658 662 678 662 Q699 662 714 647 Q729 632 729 611 Q729 590 714 575.5 Q699 561 678 561 Z M716 -47 Q716 -118 679 -157 Q642 -196 574 -196 Q542 -196 520 -189 L530 -126 Q542 -131 566 -131 Q641 -131 641 -47 L641 483 L716 483 L716 -47 Z " />
<glyph glyph-name="f_f_l" unicode="&#xfb04;" horiz-adv-x="792" d="M96 417 L16 417 L16 483 L96 483 L96 520 Q96 594 134 635.5 Q172 677 236 677 Q282 677 309 660 L290 604 Q271 615 247 615 Q210 615 190.5 590.5 Q171 566 171 520 L171 483 L269 483 L269 417 L171 417 L171 0 L96 0 L96 417 Z M379 417 L299 417 L299 483 L379 483 L379 520 Q379 594 417 635.5 Q455 677 519 677 Q565 677 592 660 L573 603 Q554 615 530 615 Q493 615 473.5 590.5 Q454 566 454 520 L454 483 L552 483 L552 417 L454 417 L454 0 L379 0 L379 417 Z M641 667 L716 667 L716 0 L641 0 L641 667 Z " />
<glyph glyph-name="uni1E1F" unicode="&#x1e1f;" horiz-adv-x="283" d="M96 417 L16 417 L16 483 L96 483 L96 520 Q96 594 134 635.5 Q172 677 236 677 Q282 677 309 660 L290 604 Q271 615 247 615 Q210 615 190.5 590.5 Q171 566 171 520 L171 483 L269 483 L269 417 L171 417 L171 0 L96 0 L96 417 Z M166 778 Q166 797 180 811 Q194 825 213 825 Q232 825 245.5 811.5 Q259 798 259 778 Q259 758 245.5 744.5 Q232 731 213 731 Q194 731 180 745 Q166 759 166 778 Z " />
<glyph glyph-name="gcircumflex" unicode="&#x11d;" horiz-adv-x="574" d="M112 -68 Q141 -103 178.5 -118.5 Q216 -134 269 -134 Q336 -134 380 -98.5 Q424 -63 424 11 L424 80 Q397 42 354 18 Q311 -6 262 -6 Q199 -6 150.5 24 Q102 54 74.5 110.5 Q47 167 47 244 Q47 320 74 377 Q101 434 150 464.5 Q199 495 262 495 Q310 495 352 472.5 Q394 450 424 410 L424 483 L499 483 L499 14 Q499 -97 434 -146.5 Q369 -196 269 -196 Q205 -196 160 -180.5 Q115 -165 74 -124 L112 -68 Z M424 350 Q404 383 364 405.5 Q324 428 280 428 Q208 428 166.5 377 Q125 326 125 244 Q125 163 167 111.5 Q209 60 280 60 Q323 60 363.5 83 Q404 106 424 139 L424 350 Z M290 662 L210 556 L159 556 L254 700 L326 700 L424 556 L373 556 L290 662 Z " />
<glyph glyph-name="gbreve" unicode="&#x11f;" horiz-adv-x="574" d="M112 -68 Q141 -103 178.5 -118.5 Q216 -134 269 -134 Q336 -134 380 -98.5 Q424 -63 424 11 L424 80 Q397 42 354 18 Q311 -6 262 -6 Q199 -6 150.5 24 Q102 54 74.5 110.5 Q47 167 47 244 Q47 320 74 377 Q101 434 150 464.5 Q199 495 262 495 Q310 495 352 472.5 Q394 450 424 410 L424 483 L499 483 L499 14 Q499 -97 434 -146.5 Q369 -196 269 -196 Q205 -196 160 -180.5 Q115 -165 74 -124 L112 -68 Z M424 350 Q404 383 364 405.5 Q324 428 280 428 Q208 428 166.5 377 Q125 326 125 244 Q125 163 167 111.5 Q209 60 280 60 Q323 60 363.5 83 Q404 106 424 139 L424 350 Z M290 550 Q237 550 191 573.5 Q145 597 114 638 L151 670 Q176 636 211.5 617 Q247 598 290 598 Q333 598 368.5 617 Q404 636 428 670 L465 638 Q434 597 388.5 573.5 Q343 550 290 550 Z " />
<glyph glyph-name="gdotaccent" unicode="&#x121;" horiz-adv-x="574" d="M112 -68 Q141 -103 178.5 -118.5 Q216 -134 269 -134 Q336 -134 380 -98.5 Q424 -63 424 11 L424 80 Q397 42 354 18 Q311 -6 262 -6 Q199 -6 150.5 24 Q102 54 74.5 110.5 Q47 167 47 244 Q47 320 74 377 Q101 434 150 464.5 Q199 495 262 495 Q310 495 352 472.5 Q394 450 424 410 L424 483 L499 483 L499 14 Q499 -97 434 -146.5 Q369 -196 269 -196 Q205 -196 160 -180.5 Q115 -165 74 -124 L112 -68 Z M424 350 Q404 383 364 405.5 Q324 428 280 428 Q208 428 166.5 377 Q125 326 125 244 Q125 163 167 111.5 Q209 60 280 60 Q323 60 363.5 83 Q404 106 424 139 L424 350 Z M243 611 Q243 630 257 644 Q271 658 290 658 Q309 658 322.5 644.5 Q336 631 336 611 Q336 591 322.5 577.5 Q309 564 290 564 Q271 564 257 578 Q243 592 243 611 Z " />
<glyph glyph-name="uni0123" unicode="&#x123;" horiz-adv-x="574" d="M340 734 Q318 719 301 695.5 Q284 672 283 650 Q283 650 284.5 650.5 Q286 651 288 651 Q305 651 319.5 637.5 Q334 624 334 606 Q334 588 320 574 Q306 560 286 560 Q267 560 252.5 575.5 Q238 591 238 620 Q238 663 257.5 701.5 Q277 740 307 761 L340 734 Z M112 -68 Q141 -103 178.5 -118.5 Q216 -134 269 -134 Q336 -134 380 -98.5 Q424 -63 424 11 L424 80 Q397 42 354 18 Q311 -6 262 -6 Q199 -6 150.5 24 Q102 54 74.5 110.5 Q47 167 47 244 Q47 320 74 377 Q101 434 150 464.5 Q199 495 262 495 Q310 495 352 472.5 Q394 450 424 410 L424 483 L499 483 L499 14 Q499 -97 434 -146.5 Q369 -196 269 -196 Q205 -196 160 -180.5 Q115 -165 74 -124 L112 -68 Z M424 350 Q404 383 364 405.5 Q324 428 280 428 Q208 428 166.5 377 Q125 326 125 244 Q125 163 167 111.5 Q209 60 280 60 Q323 60 363.5 83 Q404 106 424 139 L424 350 Z " />
<glyph glyph-name="hbar" unicode="&#x127;" horiz-adv-x="554" d="M325 495 Q479 495 479 341 L479 0 L404 0 L404 318 Q404 378 376 403 Q348 428 295 428 Q254 428 214.5 406 Q175 384 152 353 L152 0 L77 0 L77 535 L9 535 L9 583 L77 583 L77 667 L152 667 L152 583 L309 583 L309 535 L152 535 L152 413 Q180 446 227 470.5 Q274 495 325 495 Z " />
<glyph glyph-name="hcircumflex" unicode="&#x125;" horiz-adv-x="552" d="M402 318 Q402 378 374 403 Q346 428 293 428 Q252 428 212.5 406 Q173 384 150 353 L150 0 L75 0 L75 667 L150 667 L150 413 Q178 446 225 470.5 Q272 495 323 495 Q477 495 477 341 L477 0 L402 0 L402 318 Z M276 829 L196 723 L145 723 L240 867 L312 867 L410 723 L359 723 L276 829 Z " />
<glyph glyph-name="uni1E23" unicode="&#x1e23;" horiz-adv-x="552" d="M402 318 Q402 378 374 403 Q346 428 293 428 Q252 428 212.5 406 Q173 384 150 353 L150 0 L75 0 L75 667 L150 667 L150 413 Q178 446 225 470.5 Q272 495 323 495 Q477 495 477 341 L477 0 L402 0 L402 318 Z M229 778 Q229 797 243 811 Q257 825 276 825 Q295 825 308.5 811.5 Q322 798 322 778 Q322 758 308.5 744.5 Q295 731 276 731 Q257 731 243 745 Q229 759 229 778 Z " />
<glyph glyph-name="dotlessi" unicode="&#x131;" horiz-adv-x="225" d="M75 483 L150 483 L150 0 L75 0 L75 483 Z " />
<glyph glyph-name="iacute" unicode="&#xed;" horiz-adv-x="225" d="M75 483 L150 483 L150 0 L75 0 L75 483 Z M81 556 L229 700 L307 700 L138 556 L81 556 Z " />
<glyph glyph-name="ibreve" unicode="&#x12d;" horiz-adv-x="225" d="M75 483 L150 483 L150 0 L75 0 L75 483 Z M112 550 Q59 550 13 573.5 Q-33 597 -64 638 L-27 670 Q-2 636 33.5 617 Q69 598 112 598 Q155 598 190.5 617 Q226 636 250 670 L287 638 Q256 597 210.5 573.5 Q165 550 112 550 Z " />
<glyph glyph-name="icircumflex" unicode="&#xee;" horiz-adv-x="225" d="M75 483 L150 483 L150 0 L75 0 L75 483 Z M112 662 L32 556 L-19 556 L76 700 L148 700 L246 556 L195 556 L112 662 Z " />
<glyph glyph-name="idieresis" unicode="&#xef;" horiz-adv-x="225" d="M75 483 L150 483 L150 0 L75 0 L75 483 Z M9 566 Q-10 566 -23.5 580 Q-37 594 -37 613 Q-37 632 -23.5 645.5 Q-10 659 9 659 Q28 659 41.5 645.5 Q55 632 55 613 Q55 593 41.5 579.5 Q28 566 9 566 Z M216 566 Q197 566 183 580 Q169 594 169 613 Q169 632 183 645.5 Q197 659 216 659 Q235 659 248.5 645.5 Q262 632 262 613 Q262 594 248.5 580 Q235 566 216 566 Z " />
<glyph glyph-name="igrave" unicode="&#xec;" horiz-adv-x="225" d="M75 483 L150 483 L150 0 L75 0 L75 483 Z M-85 700 L-7 700 L141 556 L84 556 L-85 700 Z " />
<glyph glyph-name="imacron" unicode="&#x12b;" horiz-adv-x="225" d="M75 483 L150 483 L150 0 L75 0 L75 483 Z M-42 620 L265 620 L265 572 L-42 572 L-42 620 Z " />
<glyph glyph-name="iogonek" unicode="&#x12f;" horiz-adv-x="225" d="M112 561 Q92 561 77 575.5 Q62 590 62 611 Q62 632 77 647 Q92 662 112 662 Q133 662 148 647 Q163 632 163 611 Q163 590 148 575.5 Q133 561 112 561 Z M75 483 L150 483 L150 0 L75 0 L75 483 Z M150 -169 Q123 -186 82 -186 Q42 -186 13 -166.5 Q-16 -147 -16 -111 Q-16 -76 16.5 -45.5 Q49 -15 101 6 L150 0 Q106 -19 81 -43 Q56 -67 56 -94 Q56 -112 68 -122.5 Q80 -133 98 -133 Q115 -133 130 -124 L150 -169 Z " />
<glyph glyph-name="itilde" unicode="&#x129;" horiz-adv-x="225" d="M75 483 L150 483 L150 0 L75 0 L75 483 Z M96 607 Q83 627 73.5 636.5 Q64 646 49 646 Q28 646 14.5 624.5 Q1 603 1 560 L-44 560 Q-44 620 -18.5 657 Q7 694 53 694 Q79 694 94.5 680.5 Q110 667 128 641 Q143 620 152 611 Q161 602 176 602 Q197 602 210.5 623.5 Q224 645 224 688 L269 688 Q269 628 243.5 591 Q218 554 172 554 Q145 554 129.5 567.5 Q114 581 96 607 Z " />
<glyph glyph-name="uni1EC9" unicode="&#x1ec9;" horiz-adv-x="225" d="M75 483 L150 483 L150 0 L75 0 L75 483 Z M11 646 Q21 677 46 696.5 Q71 716 106 716 Q145 716 171.5 693.5 Q198 671 198 626 Q198 607 192.5 591 Q187 575 174 557 L123 557 Q152 589 152 625 Q152 650 139.5 662.5 Q127 675 106 675 Q68 675 53 633 L11 646 Z " />
<glyph glyph-name="uni1ECB" unicode="&#x1ecb;" horiz-adv-x="225" d="M112 561 Q92 561 77 575.5 Q62 590 62 611 Q62 632 77 647 Q92 662 112 662 Q133 662 148 647 Q163 632 163 611 Q163 590 148 575.5 Q133 561 112 561 Z M75 483 L150 483 L150 0 L75 0 L75 483 Z M65 -129 Q65 -110 79 -96 Q93 -82 112 -82 Q131 -82 144.5 -95.5 Q158 -109 158 -129 Q158 -149 144.5 -162.5 Q131 -176 112 -176 Q93 -176 79 -162 Q65 -148 65 -129 Z " />
<glyph glyph-name="ij" unicode="&#x133;" horiz-adv-x="451" d="M112 561 Q92 561 77 575.5 Q62 590 62 611 Q62 632 77 647 Q92 662 112 662 Q133 662 148 647 Q163 632 163 611 Q163 590 148 575.5 Q133 561 112 561 Z M75 483 L150 483 L150 0 L75 0 L75 483 Z M337 561 Q317 561 302 575.5 Q287 590 287 611 Q287 632 302 647 Q317 662 337 662 Q358 662 373 647 Q388 632 388 611 Q388 590 373 575.5 Q358 561 337 561 Z M375 -47 Q375 -118 338 -157 Q301 -196 233 -196 Q201 -196 179 -189 L189 -126 Q201 -131 225 -131 Q300 -131 300 -47 L300 483 L375 483 L375 -47 Z " />
<glyph glyph-name="uni0237" unicode="&#x237;" horiz-adv-x="225" d="M-36 -126 Q-24 -131 0 -131 Q75 -131 75 -47 L75 483 L150 483 L150 -47 Q150 -118 113 -157 Q76 -196 8 -196 Q-24 -196 -46 -189 L-36 -126 Z " />
<glyph glyph-name="jcircumflex" unicode="&#x135;" horiz-adv-x="225" d="M-36 -126 Q-24 -131 0 -131 Q75 -131 75 -47 L75 483 L150 483 L150 -47 Q150 -118 113 -157 Q76 -196 8 -196 Q-24 -196 -46 -189 L-36 -126 Z M112 662 L32 556 L-19 556 L76 700 L148 700 L246 556 L195 556 L112 662 Z " />
<glyph glyph-name="uni0137" unicode="&#x137;" horiz-adv-x="514" d="M230 217 L150 138 L150 0 L75 0 L75 667 L150 667 L150 226 L404 483 L499 483 L285 264 L500 0 L404 0 L230 217 Z M210 -246 Q233 -231 249.5 -206.5 Q266 -182 268 -160 Q266 -162 257 -162 Q239 -162 227 -149.5 Q215 -137 215 -118 Q215 -98 228.5 -84.5 Q242 -71 261 -71 Q283 -71 298.5 -89 Q314 -107 314 -138 Q314 -177 294 -213 Q274 -249 243 -272 L210 -246 Z " />
<glyph glyph-name="kgreenlandic" unicode="&#x138;" horiz-adv-x="514" d="M230 217 L150 138 L150 0 L75 0 L75 483 L150 483 L150 226 L404 483 L499 483 L285 264 L500 0 L404 0 L230 217 Z " />
<glyph glyph-name="lacute" unicode="&#x13a;" horiz-adv-x="225" d="M75 667 L150 667 L150 0 L75 0 L75 667 Z M81 723 L229 867 L307 867 L138 723 L81 723 Z " />
<glyph glyph-name="uni013C" unicode="&#x13c;" horiz-adv-x="225" d="M75 667 L150 667 L150 0 L75 0 L75 667 Z M62 -246 Q85 -231 101.5 -206.5 Q118 -182 120 -160 Q118 -162 109 -162 Q91 -162 79 -149.5 Q67 -137 67 -118 Q67 -98 80.5 -84.5 Q94 -71 113 -71 Q135 -71 150.5 -89 Q166 -107 166 -138 Q166 -177 146 -213 Q126 -249 95 -272 L62 -246 Z " />
<glyph glyph-name="lcaron" unicode="&#x13e;" horiz-adv-x="291" d="M75 667 L150 667 L150 0 L75 0 L75 667 Z M194 505 Q217 520 233.5 544.5 Q250 569 252 591 Q250 589 241 589 Q223 589 211 601.5 Q199 614 199 633 Q199 653 212.5 666.5 Q226 680 245 680 Q267 680 282.5 662 Q298 644 298 613 Q298 574 278 538 Q258 502 227 479 L194 505 Z " />
<glyph glyph-name="ldot" unicode="&#x140;" horiz-adv-x="307" d="M75 667 L150 667 L150 0 L75 0 L75 667 Z M266 190 Q244 190 227.5 206 Q211 222 211 244 Q211 267 227.5 283 Q244 299 266 299 Q289 299 305 283 Q321 267 321 244 Q321 222 304.5 206 Q288 190 266 190 Z " />
<glyph glyph-name="lslash" unicode="&#x142;" horiz-adv-x="287" d="M276 380 L181 326 L181 0 L106 0 L106 283 L10 228 L10 288 L106 343 L106 667 L181 667 L181 386 L276 440 L276 380 Z " />
<glyph glyph-name="nacute" unicode="&#x144;" horiz-adv-x="551" d="M401 316 Q401 377 373 402.5 Q345 428 293 428 Q251 428 211.5 406 Q172 384 150 353 L150 0 L75 0 L75 483 L150 483 L150 413 Q178 446 225 470.5 Q272 495 322 495 Q476 495 476 339 L476 0 L401 0 L401 316 Z M245 556 L393 700 L471 700 L302 556 L245 556 Z " />
<glyph glyph-name="napostrophe" unicode="&#x149;" horiz-adv-x="551" d="M401 316 Q401 377 373 402.5 Q345 428 293 428 Q251 428 211.5 406 Q172 384 150 353 L150 0 L75 0 L75 483 L150 483 L150 413 Q178 446 225 470.5 Q272 495 322 495 Q476 495 476 339 L476 0 L401 0 L401 316 Z M56 568 Q79 583 95.5 607.5 Q112 632 114 654 Q112 652 103 652 Q85 652 73 664.5 Q61 677 61 696 Q61 716 74.5 729.5 Q88 743 107 743 Q129 743 144.5 725 Q160 707 160 676 Q160 637 140 601 Q120 565 89 542 L56 568 Z " />
<glyph glyph-name="ncaron" unicode="&#x148;" horiz-adv-x="551" d="M401 316 Q401 377 373 402.5 Q345 428 293 428 Q251 428 211.5 406 Q172 384 150 353 L150 0 L75 0 L75 483 L150 483 L150 413 Q178 446 225 470.5 Q272 495 322 495 Q476 495 476 339 L476 0 L401 0 L401 316 Z M142 700 L193 700 L276 594 L356 700 L407 700 L312 556 L240 556 L142 700 Z " />
<glyph glyph-name="uni0146" unicode="&#x146;" horiz-adv-x="551" d="M401 316 Q401 377 373 402.5 Q345 428 293 428 Q251 428 211.5 406 Q172 384 150 353 L150 0 L75 0 L75 483 L150 483 L150 413 Q178 446 225 470.5 Q272 495 322 495 Q476 495 476 339 L476 0 L401 0 L401 316 Z M225 -246 Q248 -231 264.5 -206.5 Q281 -182 283 -160 Q281 -162 272 -162 Q254 -162 242 -149.5 Q230 -137 230 -118 Q230 -98 243.5 -84.5 Q257 -71 276 -71 Q298 -71 313.5 -89 Q329 -107 329 -138 Q329 -177 309 -213 Q289 -249 258 -272 L225 -246 Z " />
<glyph glyph-name="ntilde" unicode="&#xf1;" horiz-adv-x="551" d="M401 316 Q401 377 373 402.5 Q345 428 293 428 Q251 428 211.5 406 Q172 384 150 353 L150 0 L75 0 L75 483 L150 483 L150 413 Q178 446 225 470.5 Q272 495 322 495 Q476 495 476 339 L476 0 L401 0 L401 316 Z M260 607 Q247 627 237.5 636.5 Q228 646 213 646 Q192 646 178.5 624.5 Q165 603 165 560 L120 560 Q120 620 145.5 657 Q171 694 217 694 Q243 694 258.5 680.5 Q274 667 292 641 Q307 620 316 611 Q325 602 340 602 Q361 602 374.5 623.5 Q388 645 388 688 L433 688 Q433 628 407.5 591 Q382 554 336 554 Q309 554 293.5 567.5 Q278 581 260 607 Z " />
<glyph glyph-name="eng" unicode="&#x14b;" horiz-adv-x="551" d="M476 -47 Q476 -118 439 -157 Q402 -196 334 -196 Q302 -196 280 -189 L290 -126 Q303 -131 326 -131 Q401 -131 401 -47 L401 316 Q401 377 373 402.5 Q345 428 293 428 Q251 428 211.5 406 Q172 384 150 353 L150 0 L75 0 L75 483 L150 483 L150 413 Q178 446 225 470.5 Q272 495 322 495 Q476 495 476 339 L476 -47 Z " />
<glyph glyph-name="oacute" unicode="&#xf3;" horiz-adv-x="572" d="M286 -12 Q214 -12 160 22 Q106 56 76.5 114 Q47 172 47 242 Q47 312 76.5 370 Q106 428 160 461.5 Q214 495 286 495 Q358 495 412 461.5 Q466 428 495.5 370 Q525 312 525 242 Q525 172 495.5 114 Q466 56 412 22 Q358 -12 286 -12 Z M286 55 Q336 55 372 80.5 Q408 106 427 149 Q446 192 446 242 Q446 292 427 334.5 Q408 377 372 402.5 Q336 428 286 428 Q236 428 199.5 402.5 Q163 377 144 334.5 Q125 292 125 242 Q125 192 144 149 Q163 106 199.5 80.5 Q236 55 286 55 Z M255 556 L403 700 L481 700 L312 556 L255 556 Z " />
<glyph glyph-name="obreve" unicode="&#x14f;" horiz-adv-x="572" d="M286 -12 Q214 -12 160 22 Q106 56 76.5 114 Q47 172 47 242 Q47 312 76.5 370 Q106 428 160 461.5 Q214 495 286 495 Q358 495 412 461.5 Q466 428 495.5 370 Q525 312 525 242 Q525 172 495.5 114 Q466 56 412 22 Q358 -12 286 -12 Z M286 55 Q336 55 372 80.5 Q408 106 427 149 Q446 192 446 242 Q446 292 427 334.5 Q408 377 372 402.5 Q336 428 286 428 Q236 428 199.5 402.5 Q163 377 144 334.5 Q125 292 125 242 Q125 192 144 149 Q163 106 199.5 80.5 Q236 55 286 55 Z M286 550 Q233 550 187 573.5 Q141 597 110 638 L147 670 Q172 636 207.5 617 Q243 598 286 598 Q329 598 364.5 617 Q400 636 424 670 L461 638 Q430 597 384.5 573.5 Q339 550 286 550 Z " />
<glyph glyph-name="ocircumflex" unicode="&#xf4;" horiz-adv-x="572" d="M286 -12 Q214 -12 160 22 Q106 56 76.5 114 Q47 172 47 242 Q47 312 76.5 370 Q106 428 160 461.5 Q214 495 286 495 Q358 495 412 461.5 Q466 428 495.5 370 Q525 312 525 242 Q525 172 495.5 114 Q466 56 412 22 Q358 -12 286 -12 Z M286 55 Q336 55 372 80.5 Q408 106 427 149 Q446 192 446 242 Q446 292 427 334.5 Q408 377 372 402.5 Q336 428 286 428 Q236 428 199.5 402.5 Q163 377 144 334.5 Q125 292 125 242 Q125 192 144 149 Q163 106 199.5 80.5 Q236 55 286 55 Z M286 662 L206 556 L155 556 L250 700 L322 700 L420 556 L369 556 L286 662 Z " />
<glyph glyph-name="odieresis" unicode="&#xf6;" horiz-adv-x="572" d="M286 -12 Q214 -12 160 22 Q106 56 76.5 114 Q47 172 47 242 Q47 312 76.5 370 Q106 428 160 461.5 Q214 495 286 495 Q358 495 412 461.5 Q466 428 495.5 370 Q525 312 525 242 Q525 172 495.5 114 Q466 56 412 22 Q358 -12 286 -12 Z M286 55 Q336 55 372 80.5 Q408 106 427 149 Q446 192 446 242 Q446 292 427 334.5 Q408 377 372 402.5 Q336 428 286 428 Q236 428 199.5 402.5 Q163 377 144 334.5 Q125 292 125 242 Q125 192 144 149 Q163 106 199.5 80.5 Q236 55 286 55 Z M182 566 Q163 566 149.5 580 Q136 594 136 613 Q136 632 149.5 645.5 Q163 659 182 659 Q201 659 214.5 645.5 Q228 632 228 613 Q228 593 214.5 579.5 Q201 566 182 566 Z M389 566 Q370 566 356 580 Q342 594 342 613 Q342 632 356 645.5 Q370 659 389 659 Q408 659 421.5 645.5 Q435 632 435 613 Q435 594 421.5 580 Q408 566 389 566 Z " />
<glyph glyph-name="ograve" unicode="&#xf2;" horiz-adv-x="572" d="M286 -12 Q214 -12 160 22 Q106 56 76.5 114 Q47 172 47 242 Q47 312 76.5 370 Q106 428 160 461.5 Q214 495 286 495 Q358 495 412 461.5 Q466 428 495.5 370 Q525 312 525 242 Q525 172 495.5 114 Q466 56 412 22 Q358 -12 286 -12 Z M286 55 Q336 55 372 80.5 Q408 106 427 149 Q446 192 446 242 Q446 292 427 334.5 Q408 377 372 402.5 Q336 428 286 428 Q236 428 199.5 402.5 Q163 377 144 334.5 Q125 292 125 242 Q125 192 144 149 Q163 106 199.5 80.5 Q236 55 286 55 Z M88 700 L166 700 L314 556 L257 556 L88 700 Z " />
<glyph glyph-name="ohungarumlaut" unicode="&#x151;" horiz-adv-x="572" d="M286 -12 Q214 -12 160 22 Q106 56 76.5 114 Q47 172 47 242 Q47 312 76.5 370 Q106 428 160 461.5 Q214 495 286 495 Q358 495 412 461.5 Q466 428 495.5 370 Q525 312 525 242 Q525 172 495.5 114 Q466 56 412 22 Q358 -12 286 -12 Z M286 55 Q336 55 372 80.5 Q408 106 427 149 Q446 192 446 242 Q446 292 427 334.5 Q408 377 372 402.5 Q336 428 286 428 Q236 428 199.5 402.5 Q163 377 144 334.5 Q125 292 125 242 Q125 192 144 149 Q163 106 199.5 80.5 Q236 55 286 55 Z M187 556 L281 700 L350 700 L235 556 L187 556 Z M329 556 L423 700 L492 700 L377 556 L329 556 Z " />
<glyph glyph-name="omacron" unicode="&#x14d;" horiz-adv-x="572" d="M286 -12 Q214 -12 160 22 Q106 56 76.5 114 Q47 172 47 242 Q47 312 76.5 370 Q106 428 160 461.5 Q214 495 286 495 Q358 495 412 461.5 Q466 428 495.5 370 Q525 312 525 242 Q525 172 495.5 114 Q466 56 412 22 Q358 -12 286 -12 Z M286 55 Q336 55 372 80.5 Q408 106 427 149 Q446 192 446 242 Q446 292 427 334.5 Q408 377 372 402.5 Q336 428 286 428 Q236 428 199.5 402.5 Q163 377 144 334.5 Q125 292 125 242 Q125 192 144 149 Q163 106 199.5 80.5 Q236 55 286 55 Z M132 620 L439 620 L439 572 L132 572 L132 620 Z " />
<glyph glyph-name="oslash" unicode="&#xf8;" horiz-adv-x="572" d="M455 426 Q489 391 507 344 Q525 297 525 242 Q525 172 495.5 114 Q466 56 412 22 Q358 -12 286 -12 Q205 -12 144 33 L118 0 L64 0 L112 61 Q80 96 63.5 142.5 Q47 189 47 242 Q47 312 76.5 370 Q106 428 160 461.5 Q214 495 286 495 Q365 495 423 454 L446 483 L500 483 L455 426 Z M125 242 Q125 173 160 121 L378 398 Q340 428 286 428 Q236 428 199.5 402.5 Q163 377 144 334.5 Q125 292 125 242 Z M286 55 Q336 55 372 80.5 Q408 106 427 149 Q446 192 446 242 Q446 315 408 367 L188 89 Q230 55 286 55 Z " />
<glyph glyph-name="oslashacute" unicode="&#x1ff;" horiz-adv-x="572" d="M455 426 Q489 391 507 344 Q525 297 525 242 Q525 172 495.5 114 Q466 56 412 22 Q358 -12 286 -12 Q205 -12 144 33 L118 0 L64 0 L112 61 Q80 96 63.5 142.5 Q47 189 47 242 Q47 312 76.5 370 Q106 428 160 461.5 Q214 495 286 495 Q365 495 423 454 L446 483 L500 483 L455 426 Z M125 242 Q125 173 160 121 L378 398 Q340 428 286 428 Q236 428 199.5 402.5 Q163 377 144 334.5 Q125 292 125 242 Z M286 55 Q336 55 372 80.5 Q408 106 427 149 Q446 192 446 242 Q446 315 408 367 L188 89 Q230 55 286 55 Z M255 556 L403 700 L481 700 L312 556 L255 556 Z " />
<glyph glyph-name="otilde" unicode="&#xf5;" horiz-adv-x="572" d="M286 -12 Q214 -12 160 22 Q106 56 76.5 114 Q47 172 47 242 Q47 312 76.5 370 Q106 428 160 461.5 Q214 495 286 495 Q358 495 412 461.5 Q466 428 495.5 370 Q525 312 525 242 Q525 172 495.5 114 Q466 56 412 22 Q358 -12 286 -12 Z M286 55 Q336 55 372 80.5 Q408 106 427 149 Q446 192 446 242 Q446 292 427 334.5 Q408 377 372 402.5 Q336 428 286 428 Q236 428 199.5 402.5 Q163 377 144 334.5 Q125 292 125 242 Q125 192 144 149 Q163 106 199.5 80.5 Q236 55 286 55 Z M270 607 Q257 627 247.5 636.5 Q238 646 223 646 Q202 646 188.5 624.5 Q175 603 175 560 L130 560 Q130 620 155.5 657 Q181 694 227 694 Q253 694 268.5 680.5 Q284 667 302 641 Q317 620 326 611 Q335 602 350 602 Q371 602 384.5 623.5 Q398 645 398 688 L443 688 Q443 628 417.5 591 Q392 554 346 554 Q319 554 303.5 567.5 Q288 581 270 607 Z " />
<glyph glyph-name="uni1ECD" unicode="&#x1ecd;" horiz-adv-x="572" d="M286 -12 Q214 -12 160 22 Q106 56 76.5 114 Q47 172 47 242 Q47 312 76.5 370 Q106 428 160 461.5 Q214 495 286 495 Q358 495 412 461.5 Q466 428 495.5 370 Q525 312 525 242 Q525 172 495.5 114 Q466 56 412 22 Q358 -12 286 -12 Z M286 55 Q336 55 372 80.5 Q408 106 427 149 Q446 192 446 242 Q446 292 427 334.5 Q408 377 372 402.5 Q336 428 286 428 Q236 428 199.5 402.5 Q163 377 144 334.5 Q125 292 125 242 Q125 192 144 149 Q163 106 199.5 80.5 Q236 55 286 55 Z M239 -129 Q239 -110 253 -96 Q267 -82 286 -82 Q305 -82 318.5 -95.5 Q332 -109 332 -129 Q332 -149 318.5 -162.5 Q305 -176 286 -176 Q267 -176 253 -162 Q239 -148 239 -129 Z " />
<glyph glyph-name="uni1ECF" unicode="&#x1ecf;" horiz-adv-x="572" d="M286 -12 Q214 -12 160 22 Q106 56 76.5 114 Q47 172 47 242 Q47 312 76.5 370 Q106 428 160 461.5 Q214 495 286 495 Q358 495 412 461.5 Q466 428 495.5 370 Q525 312 525 242 Q525 172 495.5 114 Q466 56 412 22 Q358 -12 286 -12 Z M286 55 Q336 55 372 80.5 Q408 106 427 149 Q446 192 446 242 Q446 292 427 334.5 Q408 377 372 402.5 Q336 428 286 428 Q236 428 199.5 402.5 Q163 377 144 334.5 Q125 292 125 242 Q125 192 144 149 Q163 106 199.5 80.5 Q236 55 286 55 Z M185 646 Q195 677 220 696.5 Q245 716 280 716 Q319 716 345.5 693.5 Q372 671 372 626 Q372 607 366.5 591 Q361 575 348 557 L297 557 Q326 589 326 625 Q326 650 313.5 662.5 Q301 675 280 675 Q242 675 227 633 L185 646 Z " />
<glyph glyph-name="uni1ED1" unicode="&#x1ed1;" horiz-adv-x="572" d="M286 -12 Q214 -12 160 22 Q106 56 76.5 114 Q47 172 47 242 Q47 312 76.5 370 Q106 428 160 461.5 Q214 495 286 495 Q358 495 412 461.5 Q466 428 495.5 370 Q525 312 525 242 Q525 172 495.5 114 Q466 56 412 22 Q358 -12 286 -12 Z M286 55 Q336 55 372 80.5 Q408 106 427 149 Q446 192 446 242 Q446 292 427 334.5 Q408 377 372 402.5 Q336 428 286 428 Q236 428 199.5 402.5 Q163 377 144 334.5 Q125 292 125 242 Q125 192 144 149 Q163 106 199.5 80.5 Q236 55 286 55 Z M286 662 L206 556 L155 556 L250 700 L322 700 L420 556 L369 556 L286 662 Z M387 656 L535 800 L613 800 L444 656 L387 656 Z " />
<glyph glyph-name="uni1ED3" unicode="&#x1ed3;" horiz-adv-x="572" d="M286 -12 Q214 -12 160 22 Q106 56 76.5 114 Q47 172 47 242 Q47 312 76.5 370 Q106 428 160 461.5 Q214 495 286 495 Q358 495 412 461.5 Q466 428 495.5 370 Q525 312 525 242 Q525 172 495.5 114 Q466 56 412 22 Q358 -12 286 -12 Z M286 55 Q336 55 372 80.5 Q408 106 427 149 Q446 192 446 242 Q446 292 427 334.5 Q408 377 372 402.5 Q336 428 286 428 Q236 428 199.5 402.5 Q163 377 144 334.5 Q125 292 125 242 Q125 192 144 149 Q163 106 199.5 80.5 Q236 55 286 55 Z M286 662 L206 556 L155 556 L250 700 L322 700 L420 556 L369 556 L286 662 Z M-38 800 L40 800 L188 656 L131 656 L-38 800 Z " />
<glyph glyph-name="uni1ED5" unicode="&#x1ed5;" horiz-adv-x="572" d="M286 -12 Q214 -12 160 22 Q106 56 76.5 114 Q47 172 47 242 Q47 312 76.5 370 Q106 428 160 461.5 Q214 495 286 495 Q358 495 412 461.5 Q466 428 495.5 370 Q525 312 525 242 Q525 172 495.5 114 Q466 56 412 22 Q358 -12 286 -12 Z M286 55 Q336 55 372 80.5 Q408 106 427 149 Q446 192 446 242 Q446 292 427 334.5 Q408 377 372 402.5 Q336 428 286 428 Q236 428 199.5 402.5 Q163 377 144 334.5 Q125 292 125 242 Q125 192 144 149 Q163 106 199.5 80.5 Q236 55 286 55 Z M286 662 L206 556 L155 556 L250 700 L322 700 L420 556 L369 556 L286 662 Z M276 745 Q286 776 311 795.5 Q336 815 371 815 Q410 815 436.5 792.5 Q463 770 463 725 Q463 706 457.5 690 Q452 674 439 656 L388 656 Q417 688 417 724 Q417 749 404.5 761.5 Q392 774 371 774 Q333 774 318 732 L276 745 Z " />
<glyph glyph-name="uni1ED7" unicode="&#x1ed7;" horiz-adv-x="572" d="M286 -12 Q214 -12 160 22 Q106 56 76.5 114 Q47 172 47 242 Q47 312 76.5 370 Q106 428 160 461.5 Q214 495 286 495 Q358 495 412 461.5 Q466 428 495.5 370 Q525 312 525 242 Q525 172 495.5 114 Q466 56 412 22 Q358 -12 286 -12 Z M286 55 Q336 55 372 80.5 Q408 106 427 149 Q446 192 446 242 Q446 292 427 334.5 Q408 377 372 402.5 Q336 428 286 428 Q236 428 199.5 402.5 Q163 377 144 334.5 Q125 292 125 242 Q125 192 144 149 Q163 106 199.5 80.5 Q236 55 286 55 Z M286 662 L206 556 L155 556 L250 700 L322 700 L420 556 L369 556 L286 662 Z M270 769 Q257 789 247.5 798.5 Q238 808 223 808 Q202 808 188.5 786.5 Q175 765 175 722 L130 722 Q130 782 155.5 819 Q181 856 227 856 Q253 856 268.5 842.5 Q284 829 302 803 Q317 782 326 773 Q335 764 350 764 Q371 764 384.5 785.5 Q398 807 398 850 L443 850 Q443 790 417.5 753 Q392 716 346 716 Q319 716 303.5 729.5 Q288 743 270 769 Z " />
<glyph glyph-name="uni1ED9" unicode="&#x1ed9;" horiz-adv-x="572" d="M286 -12 Q214 -12 160 22 Q106 56 76.5 114 Q47 172 47 242 Q47 312 76.5 370 Q106 428 160 461.5 Q214 495 286 495 Q358 495 412 461.5 Q466 428 495.5 370 Q525 312 525 242 Q525 172 495.5 114 Q466 56 412 22 Q358 -12 286 -12 Z M286 55 Q336 55 372 80.5 Q408 106 427 149 Q446 192 446 242 Q446 292 427 334.5 Q408 377 372 402.5 Q336 428 286 428 Q236 428 199.5 402.5 Q163 377 144 334.5 Q125 292 125 242 Q125 192 144 149 Q163 106 199.5 80.5 Q236 55 286 55 Z M239 -129 Q239 -110 253 -96 Q267 -82 286 -82 Q305 -82 318.5 -95.5 Q332 -109 332 -129 Q332 -149 318.5 -162.5 Q305 -176 286 -176 Q267 -176 253 -162 Q239 -148 239 -129 Z M286 662 L206 556 L155 556 L250 700 L322 700 L420 556 L369 556 L286 662 Z " />
<glyph glyph-name="ohorn" unicode="&#x1a1;" horiz-adv-x="572" d="M527 530 Q527 496 511 464 Q495 432 469 411 Q496 377 510.5 334 Q525 291 525 242 Q525 172 495.5 114 Q466 56 412 22 Q358 -12 286 -12 Q214 -12 160 22 Q106 56 76.5 114 Q47 172 47 242 Q47 312 76.5 370 Q106 428 160 461.5 Q214 495 286 495 Q380 495 443 438 Q460 453 471.5 472.5 Q483 492 485 510 L474 509 Q457 509 445.5 520.5 Q434 532 434 550 Q434 567 446.5 580 Q459 593 477 593 Q498 593 512.5 576 Q527 559 527 530 Z M286 55 Q336 55 372 80.5 Q408 106 427 149 Q446 192 446 242 Q446 292 427 334.5 Q408 377 372 402.5 Q336 428 286 428 Q236 428 199.5 402.5 Q163 377 144 334.5 Q125 292 125 242 Q125 192 144 149 Q163 106 199.5 80.5 Q236 55 286 55 Z " />
<glyph glyph-name="uni1EDB" unicode="&#x1edb;" horiz-adv-x="572" d="M527 530 Q527 496 511 464 Q495 432 469 411 Q496 377 510.5 334 Q525 291 525 242 Q525 172 495.5 114 Q466 56 412 22 Q358 -12 286 -12 Q214 -12 160 22 Q106 56 76.5 114 Q47 172 47 242 Q47 312 76.5 370 Q106 428 160 461.5 Q214 495 286 495 Q380 495 443 438 Q460 453 471.5 472.5 Q483 492 485 510 L474 509 Q457 509 445.5 520.5 Q434 532 434 550 Q434 567 446.5 580 Q459 593 477 593 Q498 593 512.5 576 Q527 559 527 530 Z M286 55 Q336 55 372 80.5 Q408 106 427 149 Q446 192 446 242 Q446 292 427 334.5 Q408 377 372 402.5 Q336 428 286 428 Q236 428 199.5 402.5 Q163 377 144 334.5 Q125 292 125 242 Q125 192 144 149 Q163 106 199.5 80.5 Q236 55 286 55 Z M255 556 L403 700 L481 700 L312 556 L255 556 Z " />
<glyph glyph-name="uni1EDD" unicode="&#x1edd;" horiz-adv-x="572" d="M527 530 Q527 496 511 464 Q495 432 469 411 Q496 377 510.5 334 Q525 291 525 242 Q525 172 495.5 114 Q466 56 412 22 Q358 -12 286 -12 Q214 -12 160 22 Q106 56 76.5 114 Q47 172 47 242 Q47 312 76.5 370 Q106 428 160 461.5 Q214 495 286 495 Q380 495 443 438 Q460 453 471.5 472.5 Q483 492 485 510 L474 509 Q457 509 445.5 520.5 Q434 532 434 550 Q434 567 446.5 580 Q459 593 477 593 Q498 593 512.5 576 Q527 559 527 530 Z M286 55 Q336 55 372 80.5 Q408 106 427 149 Q446 192 446 242 Q446 292 427 334.5 Q408 377 372 402.5 Q336 428 286 428 Q236 428 199.5 402.5 Q163 377 144 334.5 Q125 292 125 242 Q125 192 144 149 Q163 106 199.5 80.5 Q236 55 286 55 Z M88 700 L166 700 L314 556 L257 556 L88 700 Z " />
<glyph glyph-name="uni1EDF" unicode="&#x1edf;" horiz-adv-x="572" d="M527 530 Q527 496 511 464 Q495 432 469 411 Q496 377 510.5 334 Q525 291 525 242 Q525 172 495.5 114 Q466 56 412 22 Q358 -12 286 -12 Q214 -12 160 22 Q106 56 76.5 114 Q47 172 47 242 Q47 312 76.5 370 Q106 428 160 461.5 Q214 495 286 495 Q380 495 443 438 Q460 453 471.5 472.5 Q483 492 485 510 L474 509 Q457 509 445.5 520.5 Q434 532 434 550 Q434 567 446.5 580 Q459 593 477 593 Q498 593 512.5 576 Q527 559 527 530 Z M286 55 Q336 55 372 80.5 Q408 106 427 149 Q446 192 446 242 Q446 292 427 334.5 Q408 377 372 402.5 Q336 428 286 428 Q236 428 199.5 402.5 Q163 377 144 334.5 Q125 292 125 242 Q125 192 144 149 Q163 106 199.5 80.5 Q236 55 286 55 Z M185 646 Q195 677 220 696.5 Q245 716 280 716 Q319 716 345.5 693.5 Q372 671 372 626 Q372 607 366.5 591 Q361 575 348 557 L297 557 Q326 589 326 625 Q326 650 313.5 662.5 Q301 675 280 675 Q242 675 227 633 L185 646 Z " />
<glyph glyph-name="uni1EE1" unicode="&#x1ee1;" horiz-adv-x="572" d="M527 530 Q527 496 511 464 Q495 432 469 411 Q496 377 510.5 334 Q525 291 525 242 Q525 172 495.5 114 Q466 56 412 22 Q358 -12 286 -12 Q214 -12 160 22 Q106 56 76.5 114 Q47 172 47 242 Q47 312 76.5 370 Q106 428 160 461.5 Q214 495 286 495 Q380 495 443 438 Q460 453 471.5 472.5 Q483 492 485 510 L474 509 Q457 509 445.5 520.5 Q434 532 434 550 Q434 567 446.5 580 Q459 593 477 593 Q498 593 512.5 576 Q527 559 527 530 Z M286 55 Q336 55 372 80.5 Q408 106 427 149 Q446 192 446 242 Q446 292 427 334.5 Q408 377 372 402.5 Q336 428 286 428 Q236 428 199.5 402.5 Q163 377 144 334.5 Q125 292 125 242 Q125 192 144 149 Q163 106 199.5 80.5 Q236 55 286 55 Z M270 607 Q257 627 247.5 636.5 Q238 646 223 646 Q202 646 188.5 624.5 Q175 603 175 560 L130 560 Q130 620 155.5 657 Q181 694 227 694 Q253 694 268.5 680.5 Q284 667 302 641 Q317 620 326 611 Q335 602 350 602 Q371 602 384.5 623.5 Q398 645 398 688 L443 688 Q443 628 417.5 591 Q392 554 346 554 Q319 554 303.5 567.5 Q288 581 270 607 Z " />
<glyph glyph-name="uni1EE3" unicode="&#x1ee3;" horiz-adv-x="572" d="M527 530 Q527 496 511 464 Q495 432 469 411 Q496 377 510.5 334 Q525 291 525 242 Q525 172 495.5 114 Q466 56 412 22 Q358 -12 286 -12 Q214 -12 160 22 Q106 56 76.5 114 Q47 172 47 242 Q47 312 76.5 370 Q106 428 160 461.5 Q214 495 286 495 Q380 495 443 438 Q460 453 471.5 472.5 Q483 492 485 510 L474 509 Q457 509 445.5 520.5 Q434 532 434 550 Q434 567 446.5 580 Q459 593 477 593 Q498 593 512.5 576 Q527 559 527 530 Z M286 55 Q336 55 372 80.5 Q408 106 427 149 Q446 192 446 242 Q446 292 427 334.5 Q408 377 372 402.5 Q336 428 286 428 Q236 428 199.5 402.5 Q163 377 144 334.5 Q125 292 125 242 Q125 192 144 149 Q163 106 199.5 80.5 Q236 55 286 55 Z M239 -129 Q239 -110 253 -96 Q267 -82 286 -82 Q305 -82 318.5 -95.5 Q332 -109 332 -129 Q332 -149 318.5 -162.5 Q305 -176 286 -176 Q267 -176 253 -162 Q239 -148 239 -129 Z " />
<glyph glyph-name="oe" unicode="&#x153;" horiz-adv-x="962" d="M526 217 Q531 146 577.5 98 Q624 50 699 50 Q741 50 780.5 66 Q820 82 849 111 L885 62 Q809 -12 693 -12 Q610 -12 560 29.5 Q510 71 485 126 Q460 71 413 29.5 Q366 -12 286 -12 Q214 -12 160 22 Q106 56 76.5 114 Q47 172 47 242 Q47 312 76.5 370 Q106 428 160 461.5 Q214 495 286 495 Q366 495 414.5 452.5 Q463 410 486 357 Q508 409 557.5 452 Q607 495 684 495 Q755 495 807.5 461 Q860 427 888 368 Q916 309 916 236 L916 217 L526 217 Z M843 272 Q842 311 824 348 Q806 385 770.5 409 Q735 433 683 433 Q634 433 599 409 Q564 385 545.5 348 Q527 311 525 272 L843 272 Z M286 428 Q237 428 200.5 403 Q164 378 144.5 335.5 Q125 293 125 242 Q125 190 144.5 147.5 Q164 105 200.5 79.5 Q237 54 286 54 Q335 54 371.5 79.5 Q408 105 427 147.5 Q446 190 446 242 Q446 293 427 335.5 Q408 378 371.5 403 Q335 428 286 428 Z " />
<glyph glyph-name="uni1E57" unicode="&#x1e57;" horiz-adv-x="574" d="M75 -184 L75 483 L150 483 L150 411 Q177 449 220 472 Q263 495 313 495 Q376 495 425 464.5 Q474 434 501 376.5 Q528 319 528 242 Q528 165 501 107.5 Q474 50 425 19 Q376 -12 313 -12 Q264 -12 221.5 10 Q179 32 150 73 L150 -184 L75 -184 Z M449 242 Q449 324 407 376 Q365 428 294 428 Q251 428 210.5 405.5 Q170 383 150 351 L150 133 Q170 100 210.5 77.5 Q251 55 294 55 Q365 55 407 107.5 Q449 160 449 242 Z M260 611 Q260 630 274 644 Q288 658 307 658 Q326 658 339.5 644.5 Q353 631 353 611 Q353 591 339.5 577.5 Q326 564 307 564 Q288 564 274 578 Q260 592 260 611 Z " />
<glyph glyph-name="racute" unicode="&#x155;" horiz-adv-x="330" d="M75 483 L150 483 L150 405 Q181 445 222.5 469 Q264 493 311 493 L311 416 Q297 419 281 419 Q247 419 207 395 Q167 371 150 342 L150 0 L75 0 L75 483 Z M160 556 L308 700 L386 700 L217 556 L160 556 Z " />
<glyph glyph-name="rcaron" unicode="&#x159;" horiz-adv-x="330" d="M75 483 L150 483 L150 405 Q181 445 222.5 469 Q264 493 311 493 L311 416 Q297 419 281 419 Q247 419 207 395 Q167 371 150 342 L150 0 L75 0 L75 483 Z M57 700 L108 700 L191 594 L271 700 L322 700 L227 556 L155 556 L57 700 Z " />
<glyph glyph-name="uni0157" unicode="&#x157;" horiz-adv-x="330" d="M75 483 L150 483 L150 405 Q181 445 222.5 469 Q264 493 311 493 L311 416 Q297 419 281 419 Q247 419 207 395 Q167 371 150 342 L150 0 L75 0 L75 483 Z M63 -246 Q86 -231 102.5 -206.5 Q119 -182 121 -160 Q119 -162 110 -162 Q92 -162 80 -149.5 Q68 -137 68 -118 Q68 -98 81.5 -84.5 Q95 -71 114 -71 Q136 -71 151.5 -89 Q167 -107 167 -138 Q167 -177 147 -213 Q127 -249 96 -272 L63 -246 Z " />
<glyph glyph-name="sacute" unicode="&#x15b;" horiz-adv-x="465" d="M72 118 Q97 89 140.5 69 Q184 49 231 49 Q285 49 315 71 Q345 93 345 129 Q345 165 314 182.5 Q283 200 221 215 Q165 228 130.5 241 Q96 254 71 282 Q46 310 46 356 Q46 394 67.5 425.5 Q89 457 129.5 476 Q170 495 226 495 Q335 495 405 425 L370 373 Q347 400 309 417 Q271 434 226 434 Q177 434 148 414 Q119 394 119 361 Q119 329 148.5 313.5 Q178 298 237 284 Q293 271 329.5 257 Q366 243 392 213.5 Q418 184 418 134 Q418 70 368 29 Q318 -12 228 -12 Q105 -12 33 64 L72 118 Z M195 556 L343 700 L421 700 L252 556 L195 556 Z " />
<glyph glyph-name="scaron" unicode="&#x161;" horiz-adv-x="465" d="M72 118 Q97 89 140.5 69 Q184 49 231 49 Q285 49 315 71 Q345 93 345 129 Q345 165 314 182.5 Q283 200 221 215 Q165 228 130.5 241 Q96 254 71 282 Q46 310 46 356 Q46 394 67.5 425.5 Q89 457 129.5 476 Q170 495 226 495 Q335 495 405 425 L370 373 Q347 400 309 417 Q271 434 226 434 Q177 434 148 414 Q119 394 119 361 Q119 329 148.5 313.5 Q178 298 237 284 Q293 271 329.5 257 Q366 243 392 213.5 Q418 184 418 134 Q418 70 368 29 Q318 -12 228 -12 Q105 -12 33 64 L72 118 Z M92 700 L143 700 L226 594 L306 700 L357 700 L262 556 L190 556 L92 700 Z " />
<glyph glyph-name="scircumflex" unicode="&#x15d;" horiz-adv-x="465" d="M72 118 Q97 89 140.5 69 Q184 49 231 49 Q285 49 315 71 Q345 93 345 129 Q345 165 314 182.5 Q283 200 221 215 Q165 228 130.5 241 Q96 254 71 282 Q46 310 46 356 Q46 394 67.5 425.5 Q89 457 129.5 476 Q170 495 226 495 Q335 495 405 425 L370 373 Q347 400 309 417 Q271 434 226 434 Q177 434 148 414 Q119 394 119 361 Q119 329 148.5 313.5 Q178 298 237 284 Q293 271 329.5 257 Q366 243 392 213.5 Q418 184 418 134 Q418 70 368 29 Q318 -12 228 -12 Q105 -12 33 64 L72 118 Z M226 662 L146 556 L95 556 L190 700 L262 700 L360 556 L309 556 L226 662 Z " />
<glyph glyph-name="uni015F" unicode="&#x15f;" horiz-adv-x="465" d="M418 134 Q418 74 373.5 33.5 Q329 -7 247 -11 L230 -55 Q246 -44 267 -44 Q296 -44 314.5 -62 Q333 -80 333 -109 Q333 -146 303 -168.5 Q273 -191 229 -191 Q198 -191 171 -182.5 Q144 -174 128 -161 L147 -123 Q182 -152 227 -152 Q253 -152 270.5 -140.5 Q288 -129 288 -108 Q288 -93 278.5 -84 Q269 -75 251 -75 Q241 -75 230.5 -79.5 Q220 -84 213 -92 L180 -73 L203 -11 Q97 -3 33 64 L72 118 Q97 89 140.5 69 Q184 49 231 49 Q285 49 315 71 Q345 93 345 129 Q345 165 314 182.5 Q283 200 221 215 Q165 228 130.5 241 Q96 254 71 282 Q46 310 46 356 Q46 394 67.5 425.5 Q89 457 129.5 476 Q170 495 226 495 Q335 495 405 425 L370 373 Q347 400 309 417 Q271 434 226 434 Q177 434 148 414 Q119 394 119 361 Q119 329 148.5 313.5 Q178 298 237 284 Q293 271 329.5 257 Q366 243 392 213.5 Q418 184 418 134 Z " />
<glyph glyph-name="uni0219" unicode="&#x219;" horiz-adv-x="465" d="M72 118 Q97 89 140.5 69 Q184 49 231 49 Q285 49 315 71 Q345 93 345 129 Q345 165 314 182.5 Q283 200 221 215 Q165 228 130.5 241 Q96 254 71 282 Q46 310 46 356 Q46 394 67.5 425.5 Q89 457 129.5 476 Q170 495 226 495 Q335 495 405 425 L370 373 Q347 400 309 417 Q271 434 226 434 Q177 434 148 414 Q119 394 119 361 Q119 329 148.5 313.5 Q178 298 237 284 Q293 271 329.5 257 Q366 243 392 213.5 Q418 184 418 134 Q418 70 368 29 Q318 -12 228 -12 Q105 -12 33 64 L72 118 Z M175 -246 Q198 -231 214.5 -206.5 Q231 -182 233 -160 Q231 -162 222 -162 Q204 -162 192 -149.5 Q180 -137 180 -118 Q180 -98 193.5 -84.5 Q207 -71 226 -71 Q248 -71 263.5 -89 Q279 -107 279 -138 Q279 -177 259 -213 Q239 -249 208 -272 L175 -246 Z " />
<glyph glyph-name="uni1E61" unicode="&#x1e61;" horiz-adv-x="465" d="M72 118 Q97 89 140.5 69 Q184 49 231 49 Q285 49 315 71 Q345 93 345 129 Q345 165 314 182.5 Q283 200 221 215 Q165 228 130.5 241 Q96 254 71 282 Q46 310 46 356 Q46 394 67.5 425.5 Q89 457 129.5 476 Q170 495 226 495 Q335 495 405 425 L370 373 Q347 400 309 417 Q271 434 226 434 Q177 434 148 414 Q119 394 119 361 Q119 329 148.5 313.5 Q178 298 237 284 Q293 271 329.5 257 Q366 243 392 213.5 Q418 184 418 134 Q418 70 368 29 Q318 -12 228 -12 Q105 -12 33 64 L72 118 Z M179 611 Q179 630 193 644 Q207 658 226 658 Q245 658 258.5 644.5 Q272 631 272 611 Q272 591 258.5 577.5 Q245 564 226 564 Q207 564 193 578 Q179 592 179 611 Z " />
<glyph glyph-name="germandbls" unicode="&#xdf;" horiz-adv-x="597" d="M392 -12 Q326 -12 284.5 8 Q243 28 206 66 L244 118 Q267 88 305.5 68.5 Q344 49 392 49 Q446 49 475.5 73.5 Q505 98 505 133 Q505 157 489.5 172.5 Q474 188 450.5 197 Q427 206 385 217 Q333 230 299 243 Q265 256 241.5 283.5 Q218 311 218 356 Q218 397 241 423 Q264 449 305 475 Q336 496 350 509.5 Q364 523 364 542 Q364 574 334 592 Q304 610 265 610 Q216 610 183 579.5 Q150 549 150 499 L150 0 L75 0 L75 499 Q75 548 98.5 588.5 Q122 629 165.5 653 Q209 677 266 677 Q338 677 389.5 642.5 Q441 608 441 551 Q441 512 419.5 488.5 Q398 465 357 438 Q324 416 307.5 399 Q291 382 291 357 Q291 327 318.5 312.5 Q346 298 404 285 Q458 272 493 258 Q528 244 553 214.5 Q578 185 578 135 Q578 95 557 61.5 Q536 28 494 8 Q452 -12 392 -12 Z " />
<glyph glyph-name="longs" unicode="&#x17f;" horiz-adv-x="283" d="M96 417 L16 417 L16 483 L96 483 L96 520 Q96 594 134 635.5 Q172 677 236 677 Q282 677 309 660 L290 604 Q271 615 247 615 Q210 615 190.5 590.5 Q171 566 171 520 L171 0 L96 0 L96 417 Z " />
<glyph glyph-name="tbar" unicode="&#x167;" horiz-adv-x="294" d="M287 19 Q254 -12 197 -12 Q144 -12 117 17 Q90 46 90 101 L90 226 L10 226 L10 274 L90 274 L90 417 L10 417 L10 483 L90 483 L90 615 L165 615 L165 483 L263 483 L263 417 L165 417 L165 274 L235 274 L235 226 L165 226 L165 117 Q165 89 177.5 72 Q190 55 214 55 Q229 55 243 60.5 Q257 66 265 75 L287 19 Z " />
<glyph glyph-name="tcaron" unicode="&#x165;" horiz-adv-x="313" d="M197 -12 Q144 -12 117 17 Q90 46 90 101 L90 417 L10 417 L10 483 L90 483 L90 615 L165 615 L165 483 L263 483 L263 417 L165 417 L165 117 Q165 89 177.5 72 Q190 55 214 55 Q229 55 243 60.5 Q257 66 265 75 L287 19 Q254 -12 197 -12 Z M221 568 Q244 583 260.5 607.5 Q277 632 279 654 Q277 652 268 652 Q250 652 238 664.5 Q226 677 226 696 Q226 716 239.5 729.5 Q253 743 272 743 Q294 743 309.5 725 Q325 707 325 676 Q325 637 305 601 Q285 565 254 542 L221 568 Z " />
<glyph glyph-name="uni0163" unicode="&#x163;" horiz-adv-x="294" d="M197 -12 Q144 -12 117 17 Q90 46 90 101 L90 417 L10 417 L10 483 L90 483 L90 615 L165 615 L165 483 L263 483 L263 417 L165 417 L165 117 Q165 89 177.5 72 Q190 55 214 55 Q229 55 243 60.5 Q257 66 265 75 L287 19 Q254 -12 197 -12 Z M99 -246 Q122 -231 138.5 -206.5 Q155 -182 157 -160 Q155 -162 146 -162 Q128 -162 116 -149.5 Q104 -137 104 -118 Q104 -98 117.5 -84.5 Q131 -71 150 -71 Q172 -71 187.5 -89 Q203 -107 203 -138 Q203 -177 183 -213 Q163 -249 132 -272 L99 -246 Z " />
<glyph glyph-name="uni021B" unicode="&#x21b;" horiz-adv-x="294" d="M197 -12 Q144 -12 117 17 Q90 46 90 101 L90 417 L10 417 L10 483 L90 483 L90 615 L165 615 L165 483 L263 483 L263 417 L165 417 L165 117 Q165 89 177.5 72 Q190 55 214 55 Q229 55 243 60.5 Q257 66 265 75 L287 19 Q254 -12 197 -12 Z M99 -246 Q122 -231 138.5 -206.5 Q155 -182 157 -160 Q155 -162 146 -162 Q128 -162 116 -149.5 Q104 -137 104 -118 Q104 -98 117.5 -84.5 Q131 -71 150 -71 Q172 -71 187.5 -89 Q203 -107 203 -138 Q203 -177 183 -213 Q163 -249 132 -272 L99 -246 Z " />
<glyph glyph-name="uni1E6B" unicode="&#x1e6b;" horiz-adv-x="294" d="M197 -12 Q144 -12 117 17 Q90 46 90 101 L90 417 L10 417 L10 483 L90 483 L90 615 L165 615 L165 483 L263 483 L263 417 L165 417 L165 117 Q165 89 177.5 72 Q190 55 214 55 Q229 55 243 60.5 Q257 66 265 75 L287 19 Q254 -12 197 -12 Z M81 778 Q81 797 95 811 Q109 825 128 825 Q147 825 160.5 811.5 Q174 798 174 778 Q174 758 160.5 744.5 Q147 731 128 731 Q109 731 95 745 Q81 759 81 778 Z " />
<glyph glyph-name="uacute" unicode="&#xfa;" horiz-adv-x="551" d="M401 68 Q371 34 325.5 11 Q280 -12 229 -12 Q75 -12 75 142 L75 483 L150 483 L150 165 Q150 105 177.5 80 Q205 55 258 55 Q300 55 339.5 76 Q379 97 401 128 L401 483 L476 483 L476 0 L401 0 L401 68 Z M244 556 L392 700 L470 700 L301 556 L244 556 Z " />
<glyph glyph-name="ubreve" unicode="&#x16d;" horiz-adv-x="551" d="M401 68 Q371 34 325.5 11 Q280 -12 229 -12 Q75 -12 75 142 L75 483 L150 483 L150 165 Q150 105 177.5 80 Q205 55 258 55 Q300 55 339.5 76 Q379 97 401 128 L401 483 L476 483 L476 0 L401 0 L401 68 Z M275 550 Q222 550 176 573.5 Q130 597 99 638 L136 670 Q161 636 196.5 617 Q232 598 275 598 Q318 598 353.5 617 Q389 636 413 670 L450 638 Q419 597 373.5 573.5 Q328 550 275 550 Z " />
<glyph glyph-name="ucircumflex" unicode="&#xfb;" horiz-adv-x="551" d="M401 68 Q371 34 325.5 11 Q280 -12 229 -12 Q75 -12 75 142 L75 483 L150 483 L150 165 Q150 105 177.5 80 Q205 55 258 55 Q300 55 339.5 76 Q379 97 401 128 L401 483 L476 483 L476 0 L401 0 L401 68 Z M275 662 L195 556 L144 556 L239 700 L311 700 L409 556 L358 556 L275 662 Z " />
<glyph glyph-name="udieresis" unicode="&#xfc;" horiz-adv-x="551" d="M401 68 Q371 34 325.5 11 Q280 -12 229 -12 Q75 -12 75 142 L75 483 L150 483 L150 165 Q150 105 177.5 80 Q205 55 258 55 Q300 55 339.5 76 Q379 97 401 128 L401 483 L476 483 L476 0 L401 0 L401 68 Z M172 566 Q153 566 139.5 580 Q126 594 126 613 Q126 632 139.5 645.5 Q153 659 172 659 Q191 659 204.5 645.5 Q218 632 218 613 Q218 593 204.5 579.5 Q191 566 172 566 Z M379 566 Q360 566 346 580 Q332 594 332 613 Q332 632 346 645.5 Q360 659 379 659 Q398 659 411.5 645.5 Q425 632 425 613 Q425 594 411.5 580 Q398 566 379 566 Z " />
<glyph glyph-name="ugrave" unicode="&#xf9;" horiz-adv-x="551" d="M401 68 Q371 34 325.5 11 Q280 -12 229 -12 Q75 -12 75 142 L75 483 L150 483 L150 165 Q150 105 177.5 80 Q205 55 258 55 Q300 55 339.5 76 Q379 97 401 128 L401 483 L476 483 L476 0 L401 0 L401 68 Z M78 700 L156 700 L304 556 L247 556 L78 700 Z " />
<glyph glyph-name="uhungarumlaut" unicode="&#x171;" horiz-adv-x="551" d="M401 68 Q371 34 325.5 11 Q280 -12 229 -12 Q75 -12 75 142 L75 483 L150 483 L150 165 Q150 105 177.5 80 Q205 55 258 55 Q300 55 339.5 76 Q379 97 401 128 L401 483 L476 483 L476 0 L401 0 L401 68 Z M177 556 L271 700 L340 700 L225 556 L177 556 Z M319 556 L413 700 L482 700 L367 556 L319 556 Z " />
<glyph glyph-name="umacron" unicode="&#x16b;" horiz-adv-x="551" d="M401 68 Q371 34 325.5 11 Q280 -12 229 -12 Q75 -12 75 142 L75 483 L150 483 L150 165 Q150 105 177.5 80 Q205 55 258 55 Q300 55 339.5 76 Q379 97 401 128 L401 483 L476 483 L476 0 L401 0 L401 68 Z M121 620 L428 620 L428 572 L121 572 L121 620 Z " />
<glyph glyph-name="uogonek" unicode="&#x173;" horiz-adv-x="551" d="M476 483 L476 0 Q432 -19 407 -43 Q382 -67 382 -94 Q382 -112 394 -122.5 Q406 -133 424 -133 Q441 -133 456 -124 L476 -169 Q449 -186 408 -186 Q368 -186 339 -166.5 Q310 -147 310 -111 Q310 -79 338.5 -50 Q367 -21 413 0 L401 0 L401 68 Q371 34 325.5 11 Q280 -12 229 -12 Q75 -12 75 142 L75 483 L150 483 L150 165 Q150 105 177.5 80 Q205 55 258 55 Q300 55 339.5 76 Q379 97 401 128 L401 483 L476 483 Z " />
<glyph glyph-name="uring" unicode="&#x16f;" horiz-adv-x="551" d="M401 68 Q371 34 325.5 11 Q280 -12 229 -12 Q75 -12 75 142 L75 483 L150 483 L150 165 Q150 105 177.5 80 Q205 55 258 55 Q300 55 339.5 76 Q379 97 401 128 L401 483 L476 483 L476 0 L401 0 L401 68 Z M178 641 Q178 682 207 711 Q236 740 276 740 Q316 740 345 711 Q374 682 374 641 Q374 601 345.5 572 Q317 543 276 543 Q236 543 207 572 Q178 601 178 641 Z M334 641 Q334 666 317.5 683 Q301 700 276 700 Q252 700 235 683 Q218 666 218 641 Q218 617 235 599.5 Q252 582 276 582 Q300 582 317 599.5 Q334 617 334 641 Z " />
<glyph glyph-name="utilde" unicode="&#x169;" horiz-adv-x="551" d="M401 68 Q371 34 325.5 11 Q280 -12 229 -12 Q75 -12 75 142 L75 483 L150 483 L150 165 Q150 105 177.5 80 Q205 55 258 55 Q300 55 339.5 76 Q379 97 401 128 L401 483 L476 483 L476 0 L401 0 L401 68 Z M259 607 Q246 627 236.5 636.5 Q227 646 212 646 Q191 646 177.5 624.5 Q164 603 164 560 L119 560 Q119 620 144.5 657 Q170 694 216 694 Q242 694 257.5 680.5 Q273 667 291 641 Q306 620 315 611 Q324 602 339 602 Q360 602 373.5 623.5 Q387 645 387 688 L432 688 Q432 628 406.5 591 Q381 554 335 554 Q308 554 292.5 567.5 Q277 581 259 607 Z " />
<glyph glyph-name="uni1EE5" unicode="&#x1ee5;" horiz-adv-x="551" d="M401 68 Q371 34 325.5 11 Q280 -12 229 -12 Q75 -12 75 142 L75 483 L150 483 L150 165 Q150 105 177.5 80 Q205 55 258 55 Q300 55 339.5 76 Q379 97 401 128 L401 483 L476 483 L476 0 L401 0 L401 68 Z M228 -129 Q228 -110 242 -96 Q256 -82 275 -82 Q294 -82 307.5 -95.5 Q321 -109 321 -129 Q321 -149 307.5 -162.5 Q294 -176 275 -176 Q256 -176 242 -162 Q228 -148 228 -129 Z " />
<glyph glyph-name="uhorn" unicode="&#x1b0;" horiz-adv-x="551" d="M570 536 Q570 493 544.5 454.5 Q519 416 476 393 L476 0 L401 0 L401 68 Q371 34 325.5 11 Q280 -12 229 -12 Q75 -12 75 142 L75 483 L150 483 L150 165 Q150 105 177.5 80 Q205 55 258 55 Q300 55 339.5 76 Q379 97 401 128 L401 483 L476 483 L476 435 Q498 451 512 473 Q526 495 527 516 L516 515 Q499 515 487.5 526.5 Q476 538 476 556 Q476 573 488.5 586 Q501 599 519 599 Q540 599 555 582 Q570 565 570 536 Z " />
<glyph glyph-name="uni1EE7" unicode="&#x1ee7;" horiz-adv-x="551" d="M401 68 Q371 34 325.5 11 Q280 -12 229 -12 Q75 -12 75 142 L75 483 L150 483 L150 165 Q150 105 177.5 80 Q205 55 258 55 Q300 55 339.5 76 Q379 97 401 128 L401 483 L476 483 L476 0 L401 0 L401 68 Z M174 646 Q184 677 209 696.5 Q234 716 269 716 Q308 716 334.5 693.5 Q361 671 361 626 Q361 607 355.5 591 Q350 575 337 557 L286 557 Q315 589 315 625 Q315 650 302.5 662.5 Q290 675 269 675 Q231 675 216 633 L174 646 Z " />
<glyph glyph-name="uni1EE9" unicode="&#x1ee9;" horiz-adv-x="551" d="M570 536 Q570 493 544.5 454.5 Q519 416 476 393 L476 0 L401 0 L401 68 Q371 34 325.5 11 Q280 -12 229 -12 Q75 -12 75 142 L75 483 L150 483 L150 165 Q150 105 177.5 80 Q205 55 258 55 Q300 55 339.5 76 Q379 97 401 128 L401 483 L476 483 L476 435 Q498 451 512 473 Q526 495 527 516 L516 515 Q499 515 487.5 526.5 Q476 538 476 556 Q476 573 488.5 586 Q501 599 519 599 Q540 599 555 582 Q570 565 570 536 Z M244 556 L392 700 L470 700 L301 556 L244 556 Z " />
<glyph glyph-name="uni1EEB" unicode="&#x1eeb;" horiz-adv-x="551" d="M570 536 Q570 493 544.5 454.5 Q519 416 476 393 L476 0 L401 0 L401 68 Q371 34 325.5 11 Q280 -12 229 -12 Q75 -12 75 142 L75 483 L150 483 L150 165 Q150 105 177.5 80 Q205 55 258 55 Q300 55 339.5 76 Q379 97 401 128 L401 483 L476 483 L476 435 Q498 451 512 473 Q526 495 527 516 L516 515 Q499 515 487.5 526.5 Q476 538 476 556 Q476 573 488.5 586 Q501 599 519 599 Q540 599 555 582 Q570 565 570 536 Z M78 700 L156 700 L304 556 L247 556 L78 700 Z " />
<glyph glyph-name="uni1EED" unicode="&#x1eed;" horiz-adv-x="551" d="M570 536 Q570 493 544.5 454.5 Q519 416 476 393 L476 0 L401 0 L401 68 Q371 34 325.5 11 Q280 -12 229 -12 Q75 -12 75 142 L75 483 L150 483 L150 165 Q150 105 177.5 80 Q205 55 258 55 Q300 55 339.5 76 Q379 97 401 128 L401 483 L476 483 L476 435 Q498 451 512 473 Q526 495 527 516 L516 515 Q499 515 487.5 526.5 Q476 538 476 556 Q476 573 488.5 586 Q501 599 519 599 Q540 599 555 582 Q570 565 570 536 Z M174 646 Q184 677 209 696.5 Q234 716 269 716 Q308 716 334.5 693.5 Q361 671 361 626 Q361 607 355.5 591 Q350 575 337 557 L286 557 Q315 589 315 625 Q315 650 302.5 662.5 Q290 675 269 675 Q231 675 216 633 L174 646 Z " />
<glyph glyph-name="uni1EEF" unicode="&#x1eef;" horiz-adv-x="551" d="M570 536 Q570 493 544.5 454.5 Q519 416 476 393 L476 0 L401 0 L401 68 Q371 34 325.5 11 Q280 -12 229 -12 Q75 -12 75 142 L75 483 L150 483 L150 165 Q150 105 177.5 80 Q205 55 258 55 Q300 55 339.5 76 Q379 97 401 128 L401 483 L476 483 L476 435 Q498 451 512 473 Q526 495 527 516 L516 515 Q499 515 487.5 526.5 Q476 538 476 556 Q476 573 488.5 586 Q501 599 519 599 Q540 599 555 582 Q570 565 570 536 Z M259 607 Q246 627 236.5 636.5 Q227 646 212 646 Q191 646 177.5 624.5 Q164 603 164 560 L119 560 Q119 620 144.5 657 Q170 694 216 694 Q242 694 257.5 680.5 Q273 667 291 641 Q306 620 315 611 Q324 602 339 602 Q360 602 373.5 623.5 Q387 645 387 688 L432 688 Q432 628 406.5 591 Q381 554 335 554 Q308 554 292.5 567.5 Q277 581 259 607 Z " />
<glyph glyph-name="uni1EF1" unicode="&#x1ef1;" horiz-adv-x="551" d="M570 536 Q570 493 544.5 454.5 Q519 416 476 393 L476 0 L401 0 L401 68 Q371 34 325.5 11 Q280 -12 229 -12 Q75 -12 75 142 L75 483 L150 483 L150 165 Q150 105 177.5 80 Q205 55 258 55 Q300 55 339.5 76 Q379 97 401 128 L401 483 L476 483 L476 435 Q498 451 512 473 Q526 495 527 516 L516 515 Q499 515 487.5 526.5 Q476 538 476 556 Q476 573 488.5 586 Q501 599 519 599 Q540 599 555 582 Q570 565 570 536 Z M228 611 Q228 630 242 644 Q256 658 275 658 Q294 658 307.5 644.5 Q321 631 321 611 Q321 591 307.5 577.5 Q294 564 275 564 Q256 564 242 578 Q228 592 228 611 Z " />
<glyph glyph-name="wacute" unicode="&#x1e83;" horiz-adv-x="734" d="M367 388 L241 0 L166 0 L12 483 L90 483 L208 98 L335 483 L399 483 L526 98 L644 483 L722 483 L568 0 L493 0 L367 388 Z M336 556 L484 700 L562 700 L393 556 L336 556 Z " />
<glyph glyph-name="wcircumflex" unicode="&#x175;" horiz-adv-x="734" d="M367 388 L241 0 L166 0 L12 483 L90 483 L208 98 L335 483 L399 483 L526 98 L644 483 L722 483 L568 0 L493 0 L367 388 Z M367 662 L287 556 L236 556 L331 700 L403 700 L501 556 L450 556 L367 662 Z " />
<glyph glyph-name="wdieresis" unicode="&#x1e85;" horiz-adv-x="734" d="M367 388 L241 0 L166 0 L12 483 L90 483 L208 98 L335 483 L399 483 L526 98 L644 483 L722 483 L568 0 L493 0 L367 388 Z M264 566 Q245 566 231.5 580 Q218 594 218 613 Q218 632 231.5 645.5 Q245 659 264 659 Q283 659 296.5 645.5 Q310 632 310 613 Q310 593 296.5 579.5 Q283 566 264 566 Z M471 566 Q452 566 438 580 Q424 594 424 613 Q424 632 438 645.5 Q452 659 471 659 Q490 659 503.5 645.5 Q517 632 517 613 Q517 594 503.5 580 Q490 566 471 566 Z " />
<glyph glyph-name="wgrave" unicode="&#x1e81;" horiz-adv-x="734" d="M367 388 L241 0 L166 0 L12 483 L90 483 L208 98 L335 483 L399 483 L526 98 L644 483 L722 483 L568 0 L493 0 L367 388 Z M169 700 L247 700 L395 556 L338 556 L169 700 Z " />
<glyph glyph-name="yacute" unicode="&#xfd;" horiz-adv-x="490" d="M60 -121 Q78 -129 101 -129 Q127 -129 144 -118 Q161 -107 173 -78 L205 -5 L3 483 L84 483 L245 87 L405 483 L487 483 L245 -98 Q224 -149 188.5 -172 Q153 -195 103 -196 Q73 -196 48 -189 L60 -121 Z M214 556 L362 700 L440 700 L271 556 L214 556 Z " />
<glyph glyph-name="ycircumflex" unicode="&#x177;" horiz-adv-x="490" d="M60 -121 Q78 -129 101 -129 Q127 -129 144 -118 Q161 -107 173 -78 L205 -5 L3 483 L84 483 L245 87 L405 483 L487 483 L245 -98 Q224 -149 188.5 -172 Q153 -195 103 -196 Q73 -196 48 -189 L60 -121 Z M245 662 L165 556 L114 556 L209 700 L281 700 L379 556 L328 556 L245 662 Z " />
<glyph glyph-name="ydieresis" unicode="&#xff;" horiz-adv-x="490" d="M60 -121 Q78 -129 101 -129 Q127 -129 144 -118 Q161 -107 173 -78 L205 -5 L3 483 L84 483 L245 87 L405 483 L487 483 L245 -98 Q224 -149 188.5 -172 Q153 -195 103 -196 Q73 -196 48 -189 L60 -121 Z M142 566 Q123 566 109.5 580 Q96 594 96 613 Q96 632 109.5 645.5 Q123 659 142 659 Q161 659 174.5 645.5 Q188 632 188 613 Q188 593 174.5 579.5 Q161 566 142 566 Z M349 566 Q330 566 316 580 Q302 594 302 613 Q302 632 316 645.5 Q330 659 349 659 Q368 659 381.5 645.5 Q395 632 395 613 Q395 594 381.5 580 Q368 566 349 566 Z " />
<glyph glyph-name="ygrave" unicode="&#x1ef3;" horiz-adv-x="490" d="M60 -121 Q78 -129 101 -129 Q127 -129 144 -118 Q161 -107 173 -78 L205 -5 L3 483 L84 483 L245 87 L405 483 L487 483 L245 -98 Q224 -149 188.5 -172 Q153 -195 103 -196 Q73 -196 48 -189 L60 -121 Z M47 700 L125 700 L273 556 L216 556 L47 700 Z " />
<glyph glyph-name="uni1EF5" unicode="&#x1ef5;" horiz-adv-x="490" d="M60 -121 Q78 -129 101 -129 Q127 -129 144 -118 Q161 -107 173 -78 L205 -5 L3 483 L84 483 L245 87 L405 483 L487 483 L245 -98 Q224 -149 188.5 -172 Q153 -195 103 -196 Q73 -196 48 -189 L60 -121 Z M198 -247 Q198 -228 212 -214 Q226 -200 245 -200 Q264 -200 277.5 -213.5 Q291 -227 291 -247 Q291 -267 277.5 -280.5 Q264 -294 245 -294 Q226 -294 212 -280 Q198 -266 198 -247 Z " />
<glyph glyph-name="uni1EF7" unicode="&#x1ef7;" horiz-adv-x="490" d="M60 -121 Q78 -129 101 -129 Q127 -129 144 -118 Q161 -107 173 -78 L205 -5 L3 483 L84 483 L245 87 L405 483 L487 483 L245 -98 Q224 -149 188.5 -172 Q153 -195 103 -196 Q73 -196 48 -189 L60 -121 Z M144 646 Q154 677 179 696.5 Q204 716 239 716 Q278 716 304.5 693.5 Q331 671 331 626 Q331 607 325.5 591 Q320 575 307 557 L256 557 Q285 589 285 625 Q285 650 272.5 662.5 Q260 675 239 675 Q201 675 186 633 L144 646 Z " />
<glyph glyph-name="uni1EF9" unicode="&#x1ef9;" horiz-adv-x="490" d="M60 -121 Q78 -129 101 -129 Q127 -129 144 -118 Q161 -107 173 -78 L205 -5 L3 483 L84 483 L245 87 L405 483 L487 483 L245 -98 Q224 -149 188.5 -172 Q153 -195 103 -196 Q73 -196 48 -189 L60 -121 Z M229 607 Q216 627 206.5 636.5 Q197 646 182 646 Q161 646 147.5 624.5 Q134 603 134 560 L89 560 Q89 620 114.5 657 Q140 694 186 694 Q212 694 227.5 680.5 Q243 667 261 641 Q276 620 285 611 Q294 602 309 602 Q330 602 343.5 623.5 Q357 645 357 688 L402 688 Q402 628 376.5 591 Q351 554 305 554 Q278 554 262.5 567.5 Q247 581 229 607 Z " />
<glyph glyph-name="zacute" unicode="&#x17a;" horiz-adv-x="472" d="M52 58 L318 417 L52 417 L52 483 L416 483 L416 426 L148 65 L420 65 L420 0 L52 0 L52 58 Z M205 556 L353 700 L431 700 L262 556 L205 556 Z " />
<glyph glyph-name="zcaron" unicode="&#x17e;" horiz-adv-x="472" d="M52 58 L318 417 L52 417 L52 483 L416 483 L416 426 L148 65 L420 65 L420 0 L52 0 L52 58 Z M102 700 L153 700 L236 594 L316 700 L367 700 L272 556 L200 556 L102 700 Z " />
<glyph glyph-name="zdotaccent" unicode="&#x17c;" horiz-adv-x="472" d="M52 58 L318 417 L52 417 L52 483 L416 483 L416 426 L148 65 L420 65 L420 0 L52 0 L52 58 Z M189 611 Q189 630 203 644 Q217 658 236 658 Q255 658 268.5 644.5 Q282 631 282 611 Q282 591 268.5 577.5 Q255 564 236 564 Q217 564 203 578 Q189 592 189 611 Z " />
<glyph glyph-name="eth" unicode="&#xf0;" horiz-adv-x="572" d="M340 594 Q525 435 525 247 Q525 173 495.5 114 Q466 55 412 21.5 Q358 -12 286 -12 Q215 -12 161 20 Q107 52 77 108 Q47 164 47 234 Q47 303 75 359 Q103 415 153.5 447 Q204 479 267 479 Q315 479 354 457.5 Q393 436 425 390 Q376 478 265 561 L122 497 L104 539 L222 591 Q186 615 147 639 L188 701 Q255 660 300 625 L408 673 L425 632 L340 594 Z M286 55 Q336 55 372 79.5 Q408 104 427 145 Q446 186 446 234 Q446 282 427 322.5 Q408 363 372 387.5 Q336 412 286 412 Q236 412 199.5 387.5 Q163 363 144 322.5 Q125 282 125 234 Q125 186 144 145 Q163 104 199.5 79.5 Q236 55 286 55 Z " />
<glyph glyph-name="thorn" unicode="&#xfe;" horiz-adv-x="574" d="M150 -184 L75 -184 L75 667 L150 667 L150 411 Q177 449 220 472 Q263 495 313 495 Q376 495 425 464.5 Q474 434 501 376.5 Q528 319 528 242 Q528 165 501 107.5 Q474 50 425 19 Q376 -12 313 -12 Q264 -12 221.5 10 Q179 32 150 73 L150 -184 Z M449 242 Q449 324 407 376 Q365 428 294 428 Q251 428 210.5 405.5 Q170 383 150 351 L150 133 Q170 100 210.5 77.5 Q251 55 294 55 Q365 55 407 107.5 Q449 160 449 242 Z " />
<glyph glyph-name="acute" unicode="&#xb4;" horiz-adv-x="226" d="M0 556 L148 700 L226 700 L57 556 L0 556 Z " />
<glyph glyph-name="dieresis" unicode="&#xa8;" horiz-adv-x="413" d="M103 566 Q84 566 70.5 580 Q57 594 57 613 Q57 632 70.5 645.5 Q84 659 103 659 Q122 659 135.5 645.5 Q149 632 149 613 Q149 593 135.5 579.5 Q122 566 103 566 Z M310 566 Q291 566 277 580 Q263 594 263 613 Q263 632 277 645.5 Q291 659 310 659 Q329 659 342.5 645.5 Q356 632 356 613 Q356 594 342.5 580 Q329 566 310 566 Z " />
<glyph glyph-name="grave" unicode="&#x60;" horiz-adv-x="226" d="M0 700 L78 700 L226 556 L169 556 L0 700 Z " />
<glyph glyph-name="uni02CB" unicode="&#x2cb;" horiz-adv-x="226" d="M0 700 L78 700 L226 556 L169 556 L0 700 Z " />
<glyph glyph-name="circumflex" unicode="&#x2c6;" horiz-adv-x="265" d="M131 662 L51 556 L0 556 L95 700 L167 700 L265 556 L214 556 L131 662 Z " />
<glyph glyph-name="tilde" unicode="&#x2dc;" horiz-adv-x="313" d="M140 607 Q127 627 117.5 636.5 Q108 646 93 646 Q72 646 58.5 624.5 Q45 603 45 560 L0 560 Q0 620 25.5 657 Q51 694 97 694 Q123 694 138.5 680.5 Q154 667 172 641 Q187 620 196 611 Q205 602 220 602 Q241 602 254.5 623.5 Q268 645 268 688 L313 688 Q313 628 287.5 591 Q262 554 216 554 Q189 554 173.5 567.5 Q158 581 140 607 Z " />
<glyph glyph-name="overscore" unicode="&#xaf;" horiz-adv-x="363" d="M28 620 L335 620 L335 572 L28 572 L28 620 Z " />
<glyph glyph-name="uni203E" unicode="&#x203e;" horiz-adv-x="363" d="M28 620 L335 620 L335 572 L28 572 L28 620 Z " />
<glyph glyph-name="breve" unicode="&#x2d8;" horiz-adv-x="351" d="M176 550 Q123 550 77 573.5 Q31 597 0 638 L37 670 Q62 636 97.5 617 Q133 598 176 598 Q219 598 254.5 617 Q290 636 314 670 L351 638 Q320 597 274.5 573.5 Q229 550 176 550 Z " />
<glyph glyph-name="dotaccent" unicode="&#x2d9;" horiz-adv-x="127" d="M17 611 Q17 630 31 644 Q45 658 64 658 Q83 658 96.5 644.5 Q110 631 110 611 Q110 591 96.5 577.5 Q83 564 64 564 Q45 564 31 578 Q17 592 17 611 Z " />
<glyph glyph-name="ring" unicode="&#x2da;" horiz-adv-x="236" d="M20 641 Q20 682 49 711 Q78 740 118 740 Q158 740 187 711 Q216 682 216 641 Q216 601 187.5 572 Q159 543 118 543 Q78 543 49 572 Q20 601 20 641 Z M176 641 Q176 666 159.5 683 Q143 700 118 700 Q94 700 77 683 Q60 666 60 641 Q60 617 77 599.5 Q94 582 118 582 Q142 582 159 599.5 Q176 617 176 641 Z " />
<glyph glyph-name="cedilla" unicode="&#xb8;" horiz-adv-x="205" d="M19 -123 Q54 -152 99 -152 Q125 -152 142.5 -140.5 Q160 -129 160 -108 Q160 -93 150.5 -84 Q141 -75 123 -75 Q113 -75 102.5 -79.5 Q92 -84 85 -92 L52 -73 L83 11 L128 11 L102 -55 Q118 -44 139 -44 Q168 -44 186.5 -62 Q205 -80 205 -109 Q205 -146 175 -168.5 Q145 -191 101 -191 Q70 -191 43 -182.5 Q16 -174 0 -161 L19 -123 Z " />
<glyph glyph-name="hungarumlaut" unicode="&#x2dd;" horiz-adv-x="305" d="M0 556 L94 700 L163 700 L48 556 L0 556 Z M142 556 L236 700 L305 700 L190 556 L142 556 Z " />
<glyph glyph-name="ogonek" unicode="&#x2db;" horiz-adv-x="194" d="M180 -169 Q153 -186 112 -186 Q72 -186 43 -166.5 Q14 -147 14 -111 Q14 -76 46.5 -45.5 Q79 -15 131 6 L180 0 Q136 -19 111 -43 Q86 -67 86 -94 Q86 -112 98 -122.5 Q110 -133 128 -133 Q145 -133 160 -124 L180 -169 Z " />
<glyph glyph-name="caron" unicode="&#x2c7;" horiz-adv-x="265" d="M0 700 L51 700 L134 594 L214 700 L265 700 L170 556 L98 556 L0 700 Z " />
<glyph glyph-name="uniF6C3" unicode="&#xf6c3;" d="M-167 -246 Q-144 -231 -127.5 -206.5 Q-111 -182 -109 -160 Q-111 -162 -120 -162 Q-138 -162 -150 -149.5 Q-162 -137 -162 -118 Q-162 -98 -148.5 -84.5 Q-135 -71 -116 -71 Q-94 -71 -78.5 -89 Q-63 -107 -63 -138 Q-63 -177 -83 -213 Q-103 -249 -134 -272 L-167 -246 Z " />
<glyph glyph-name="uni02C9" unicode="&#x2c9;" horiz-adv-x="363" d="M28 639 L335 639 L335 591 L28 591 L28 639 Z " />
<glyph glyph-name="uni0309" unicode="&#x309;" d="M-187 646 Q-177 677 -152 696.5 Q-127 716 -92 716 Q-53 716 -26.5 693.5 Q0 671 0 626 Q0 607 -5.5 591 Q-11 575 -24 557 L-75 557 Q-46 589 -46 625 Q-46 650 -58.5 662.5 Q-71 675 -92 675 Q-130 675 -145 633 L-187 646 Z " />
<glyph glyph-name="Alpha" unicode="&#x391;" horiz-adv-x="658" d="M498 148 L160 148 L101 0 L9 0 L277 667 L380 667 L649 0 L557 0 L498 148 Z M184 222 L473 222 L329 593 L184 222 Z " />
<glyph glyph-name="Beta" unicode="&#x392;" horiz-adv-x="629" d="M78 667 L375 667 Q461 667 511.5 620 Q562 573 562 497 Q562 437 528 395.5 Q494 354 445 344 Q480 339 510 315 Q540 291 557.5 255 Q575 219 575 180 Q575 99 523.5 49.5 Q472 0 382 0 L78 0 L78 667 Z M361 378 Q416 378 446 408 Q476 438 476 485 Q476 532 445.5 562.5 Q415 593 361 593 L161 593 L161 378 L361 378 Z M365 74 Q423 74 456 105 Q489 136 489 189 Q489 238 456.5 271 Q424 304 365 304 L161 304 L161 74 L365 74 Z " />
<glyph glyph-name="Gamma" unicode="&#x393;" horiz-adv-x="550" d="M78 667 L515 667 L515 593 L161 593 L161 0 L78 0 L78 667 Z " />
<glyph glyph-name="uni0394" unicode="&#x394;" horiz-adv-x="658" d="M277 667 L380 667 L649 0 L9 0 L277 667 Z M128 74 L530 74 L329 581 L128 74 Z " />
<glyph glyph-name="uni2206" unicode="&#x2206;" horiz-adv-x="658" d="M277 667 L380 667 L649 0 L9 0 L277 667 Z M128 74 L530 74 L329 581 L128 74 Z " />
<glyph glyph-name="Epsilon" unicode="&#x395;" horiz-adv-x="569" d="M78 667 L515 667 L515 593 L161 593 L161 378 L508 378 L508 304 L161 304 L161 74 L515 74 L515 0 L78 0 L78 667 Z " />
<glyph glyph-name="Zeta" unicode="&#x396;" horiz-adv-x="585" d="M48 69 L423 593 L48 593 L48 667 L529 667 L529 598 L154 74 L536 74 L536 0 L48 0 L48 69 Z " />
<glyph glyph-name="Eta" unicode="&#x397;" horiz-adv-x="712" d="M551 306 L161 306 L161 0 L78 0 L78 667 L161 667 L161 380 L551 380 L551 667 L634 667 L634 0 L551 0 L551 306 Z " />
<glyph glyph-name="Theta" unicode="&#x398;" horiz-adv-x="765" d="M51 333 Q51 431 92.5 509.5 Q134 588 209.5 633 Q285 678 382 678 Q479 678 554 633 Q629 588 671 509.5 Q713 431 713 333 Q713 235 671 156.5 Q629 78 554 33 Q479 -12 382 -12 Q285 -12 209.5 33 Q134 78 92.5 156.5 Q51 235 51 333 Z M627 333 Q627 411 596.5 472.5 Q566 534 510.5 569 Q455 604 382 604 Q308 604 252.5 569 Q197 534 167 472.5 Q137 411 137 333 Q137 256 167 194 Q197 132 253 97 Q309 62 382 62 Q455 62 510.5 97 Q566 132 596.5 194 Q627 256 627 333 Z M196 378 L569 378 L569 304 L196 304 L196 378 Z " />
<glyph glyph-name="Iota" unicode="&#x399;" horiz-adv-x="239" d="M78 667 L161 667 L161 0 L78 0 L78 667 Z " />
<glyph glyph-name="Kappa" unicode="&#x39a;" horiz-adv-x="601" d="M228 300 L161 224 L161 0 L78 0 L78 667 L161 667 L161 322 L456 667 L560 667 L282 350 L584 0 L481 0 L228 300 Z " />
<glyph glyph-name="Lambda" unicode="&#x39b;" horiz-adv-x="658" d="M329 581 L104 0 L9 0 L277 667 L380 667 L649 0 L554 0 L329 581 Z " />
<glyph glyph-name="Mu" unicode="&#x39c;" horiz-adv-x="809" d="M648 555 L421 0 L387 0 L161 555 L161 0 L78 0 L78 667 L197 667 L404 159 L612 667 L731 667 L731 0 L648 0 L648 555 Z " />
<glyph glyph-name="Nu" unicode="&#x39d;" horiz-adv-x="708" d="M161 538 L161 0 L78 0 L78 667 L163 667 L547 140 L547 667 L630 667 L630 0 L550 0 L161 538 Z " />
<glyph glyph-name="Xi" unicode="&#x39e;" horiz-adv-x="615" d="M55 667 L560 667 L560 593 L55 593 L55 667 Z M62 378 L554 378 L554 304 L62 304 L62 378 Z M54 74 L560 74 L560 0 L54 0 L54 74 Z " />
<glyph glyph-name="Omicron" unicode="&#x39f;" horiz-adv-x="765" d="M51 333 Q51 431 92.5 509.5 Q134 588 209.5 633 Q285 678 382 678 Q479 678 554 633 Q629 588 671 509.5 Q713 431 713 333 Q713 235 671 156.5 Q629 78 554 33 Q479 -12 382 -12 Q285 -12 209.5 33 Q134 78 92.5 156.5 Q51 235 51 333 Z M627 333 Q627 411 596.5 472.5 Q566 534 510.5 569 Q455 604 382 604 Q308 604 252.5 569 Q197 534 167 472.5 Q137 411 137 333 Q137 256 167 194 Q197 132 253 97 Q309 62 382 62 Q455 62 510.5 97 Q566 132 596.5 194 Q627 256 627 333 Z " />
<glyph glyph-name="Pi" unicode="&#x3a0;" horiz-adv-x="712" d="M551 593 L161 593 L161 0 L78 0 L78 667 L634 667 L634 0 L551 0 L551 593 Z " />
<glyph glyph-name="Rho" unicode="&#x3a1;" horiz-adv-x="587" d="M78 667 L346 667 Q411 667 458.5 640 Q506 613 530.5 567 Q555 521 555 466 Q555 411 530 365 Q505 319 457.5 292 Q410 265 346 265 L161 265 L161 0 L78 0 L78 667 Z M469 466 Q469 522 432 557.5 Q395 593 336 593 L161 593 L161 339 L336 339 Q395 339 432 374.5 Q469 410 469 466 Z " />
<glyph glyph-name="Sigma" unicode="&#x3a3;" horiz-adv-x="575" d="M521 74 L521 0 L54 0 L54 74 L285 342 L55 593 L55 667 L521 667 L521 593 L157 593 L386 343 L154 74 L521 74 Z " />
<glyph glyph-name="Tau" unicode="&#x3a4;" horiz-adv-x="570" d="M243 593 L32 593 L32 667 L538 667 L538 593 L326 593 L326 0 L243 0 L243 593 Z " />
<glyph glyph-name="Upsilon" unicode="&#x3a5;" horiz-adv-x="626" d="M272 282 L9 667 L106 667 L313 357 L520 667 L617 667 L355 282 L355 0 L272 0 L272 282 Z " />
<glyph glyph-name="Phi" unicode="&#x3a6;" horiz-adv-x="806" d="M755 333 Q755 258 717.5 199.5 Q680 141 610 106 Q540 71 444 65 L444 0 L361 0 L361 65 Q266 71 196 106.5 Q126 142 88.5 200 Q51 258 51 333 Q51 407 88.5 465.5 Q126 524 196 559.5 Q266 595 361 601 L361 667 L444 667 L444 601 Q539 595 609.5 559.5 Q680 524 717.5 466 Q755 408 755 333 Z M137 333 Q137 253 196.5 200.5 Q256 148 361 140 L361 526 Q255 518 196 466 Q137 414 137 333 Z M444 140 Q549 148 609 200.5 Q669 253 669 333 Q669 414 609 466 Q549 518 444 526 L444 140 Z " />
<glyph glyph-name="Chi" unicode="&#x3a7;" horiz-adv-x="652" d="M326 284 L113 0 L12 0 L272 342 L27 667 L128 667 L326 400 L523 667 L624 667 L380 343 L639 0 L539 0 L326 284 Z " />
<glyph glyph-name="Psi" unicode="&#x3a8;" horiz-adv-x="796" d="M718 667 L718 396 Q718 277 647 206 Q576 135 440 126 L440 0 L357 0 L357 125 Q220 135 149 206 Q78 277 78 395 L78 667 L161 667 L161 397 Q161 311 211.5 260 Q262 209 357 201 L357 667 L440 667 L440 201 Q535 209 584.5 260 Q634 311 634 397 L634 667 L718 667 Z " />
<glyph glyph-name="uni03A9" unicode="&#x3a9;" horiz-adv-x="765" d="M204 74 Q134 116 92.5 185 Q51 254 51 348 Q51 443 92.5 518 Q134 593 209.5 635.5 Q285 678 382 678 Q479 678 554.5 635.5 Q630 593 671.5 518 Q713 443 713 348 Q713 254 672 185 Q631 116 562 74 L696 74 L696 0 L456 0 L456 74 Q501 85 540 119.5 Q579 154 603 209 Q627 264 627 334 Q627 409 598.5 470 Q570 531 514.5 567 Q459 603 382 603 Q305 603 249.5 567 Q194 531 165.5 470 Q137 409 137 334 Q137 264 161 209 Q185 154 224.5 119.5 Q264 85 309 74 L309 0 L69 0 L69 74 L204 74 Z " />
<glyph glyph-name="uni2126" unicode="&#x2126;" horiz-adv-x="765" d="M204 74 Q134 116 92.5 185 Q51 254 51 348 Q51 443 92.5 518 Q134 593 209.5 635.5 Q285 678 382 678 Q479 678 554.5 635.5 Q630 593 671.5 518 Q713 443 713 348 Q713 254 672 185 Q631 116 562 74 L696 74 L696 0 L456 0 L456 74 Q501 85 540 119.5 Q579 154 603 209 Q627 264 627 334 Q627 409 598.5 470 Q570 531 514.5 567 Q459 603 382 603 Q305 603 249.5 567 Q194 531 165.5 470 Q137 409 137 334 Q137 264 161 209 Q185 154 224.5 119.5 Q264 85 309 74 L309 0 L69 0 L69 74 L204 74 Z " />
<glyph glyph-name="alpha" unicode="&#x3b1;" horiz-adv-x="589" d="M571 -8 Q551 -12 532 -12 Q486 -12 460 11 Q434 34 428 77 Q402 38 357.5 13 Q313 -12 262 -12 Q199 -12 150.5 18.5 Q102 49 74.5 106.5 Q47 164 47 241 Q47 317 74 374.5 Q101 432 150 463.5 Q199 495 262 495 Q310 495 352.5 472.5 Q395 450 424 410 L424 483 L500 483 L500 113 Q500 86 512 70.5 Q524 55 546 55 Q556 55 566 57 L571 -8 Z M425 350 Q404 383 363.5 405.5 Q323 428 280 428 Q209 428 167 375.5 Q125 323 125 241 Q125 159 167 107 Q209 55 280 55 Q324 55 364 77 Q404 99 425 131 L425 350 Z " />
<glyph glyph-name="beta" unicode="&#x3b2;" horiz-adv-x="575" d="M75 -184 L75 455 Q75 529 107.5 579 Q140 629 191.5 653 Q243 677 303 677 Q395 677 454 629.5 Q513 582 513 499 Q513 433 470.5 393.5 Q428 354 374 344 Q408 341 443.5 321.5 Q479 302 503.5 264 Q528 226 528 173 Q528 119 501 77 Q474 35 427 11.5 Q380 -12 321 -12 Q266 -12 222 10.5 Q178 33 150 72 L150 -184 L75 -184 Z M150 131 Q172 98 212.5 76.5 Q253 55 299 55 Q371 55 410.5 90 Q450 125 450 184 Q450 245 406 276.5 Q362 308 293 308 L258 308 L258 375 L291 375 Q354 375 394 405 Q434 435 434 492 Q434 546 396.5 578 Q359 610 303 610 Q238 610 194 569.5 Q150 529 150 455 L150 131 Z " />
<glyph glyph-name="gamma" unicode="&#x3b3;" horiz-adv-x="490" d="M208 -49 Q208 102 147.5 246 Q87 390 -7 483 L81 483 Q147 417 198 304 Q249 191 260 93 Q315 170 351 277 Q387 384 387 483 L462 483 Q462 367 413 238 Q364 109 283 5 L283 -184 L208 -184 L208 -49 Z " />
<glyph glyph-name="delta" unicode="&#x3b4;" horiz-adv-x="572" d="M293 465 Q364 443 410.5 420 Q457 397 491 348.5 Q525 300 525 220 Q525 160 496 106.5 Q467 53 413.5 20.5 Q360 -12 289 -12 Q217 -12 162 21 Q107 54 77 108 Q47 162 47 223 Q47 297 85.5 350.5 Q124 404 188 431 Q148 450 127 475 Q106 500 106 540 Q106 578 127 610 Q148 642 188.5 660.5 Q229 679 285 679 Q396 679 464 609 L429 557 Q406 584 368.5 601 Q331 618 285 618 Q236 618 207 596.5 Q178 575 178 542 Q178 513 205 498 Q232 483 293 465 Z M287 55 Q337 55 374.5 79.5 Q412 104 432 142 Q452 180 452 220 Q452 276 427 311 Q402 346 365 364.5 Q328 383 270 402 Q200 381 162.5 334 Q125 287 125 223 Q125 182 144.5 143 Q164 104 201 79.5 Q238 55 287 55 Z " />
<glyph glyph-name="epsilon" unicode="&#x3b5;" horiz-adv-x="485" d="M252 -12 Q155 -12 100.5 27.5 Q46 67 46 129 Q46 183 86.5 213 Q127 243 175 247 Q129 253 92.5 284 Q56 315 56 365 Q56 425 110 459.5 Q164 494 254 494 Q374 494 446 415 L406 369 Q377 402 340.5 417.5 Q304 433 255 433 Q202 433 168 411.5 Q134 390 134 356 Q134 316 168.5 295.5 Q203 275 260 275 L343 275 L343 214 L260 214 Q125 214 125 134 Q125 96 159 73 Q193 50 252 50 Q345 50 413 118 L455 66 Q380 -12 252 -12 Z " />
<glyph glyph-name="zeta" unicode="&#x3b6;" horiz-adv-x="489" d="M314 0 Q192 0 119.5 55 Q47 110 47 211 Q47 327 126 425.5 Q205 524 347 601 L63 601 L63 667 L445 667 L445 610 Q125 426 125 216 Q125 141 177.5 104 Q230 67 323 67 Q450 67 450 -34 Q450 -80 406 -157 L325 -157 Q371 -86 371 -48 Q371 -26 357 -13 Q343 0 314 0 Z " />
<glyph glyph-name="eta" unicode="&#x3b7;" horiz-adv-x="551" d="M401 316 Q401 377 373 402.5 Q345 428 293 428 Q251 428 211.5 406 Q172 384 150 353 L150 0 L75 0 L75 483 L150 483 L150 413 Q178 446 225 470.5 Q272 495 322 495 Q476 495 476 339 L476 -184 L401 -184 L401 316 Z " />
<glyph glyph-name="theta" unicode="&#x3b8;" horiz-adv-x="572" d="M286 679 Q364 679 417.5 633.5 Q471 588 498 510 Q525 432 525 334 Q525 236 498 157.5 Q471 79 417.5 33.5 Q364 -12 286 -12 Q208 -12 154.5 33.5 Q101 79 74 157.5 Q47 236 47 334 Q47 432 74 510 Q101 588 154.5 633.5 Q208 679 286 679 Z M286 612 Q209 612 170 545.5 Q131 479 126 368 L446 368 Q441 480 402.5 546 Q364 612 286 612 Z M286 55 Q364 55 402.5 122 Q441 189 446 302 L126 302 Q131 189 169.5 122 Q208 55 286 55 Z " />
<glyph glyph-name="iota" unicode="&#x3b9;" horiz-adv-x="239" d="M75 483 L150 483 L150 113 Q150 86 162 70.5 Q174 55 197 55 Q208 55 216 57 L222 -8 Q200 -12 182 -12 Q129 -12 102 17 Q75 46 75 101 L75 483 Z " />
<glyph glyph-name="kappa" unicode="&#x3ba;" horiz-adv-x="514" d="M230 217 L150 138 L150 0 L75 0 L75 483 L150 483 L150 226 L404 483 L499 483 L285 264 L500 0 L404 0 L230 217 Z " />
<glyph glyph-name="lambda" unicode="&#x3bb;" horiz-adv-x="490" d="M103 679 Q153 678 188.5 655 Q224 632 245 581 L487 0 L405 0 L245 396 L84 0 L3 0 L205 487 L173 560 Q161 589 144 600.5 Q127 612 101 612 Q78 612 60 604 L48 671 Q58 675 74 677 Q90 679 103 679 Z " />
<glyph glyph-name="uni03BC" unicode="&#x3bc;" horiz-adv-x="565" d="M75 -184 L75 483 L150 483 L150 165 Q150 53 260 53 Q301 53 340 75 Q379 97 401 128 L401 483 L476 483 L476 113 Q476 86 488 70.5 Q500 55 523 55 Q534 55 542 57 L548 -8 Q526 -12 508 -12 Q420 -12 404 74 Q377 37 336 12.5 Q295 -12 251 -12 Q176 -12 150 36 L150 -184 L75 -184 Z " />
<glyph glyph-name="uni00B5" unicode="&#xb5;" horiz-adv-x="565" d="M75 -184 L75 483 L150 483 L150 165 Q150 53 260 53 Q301 53 340 75 Q379 97 401 128 L401 483 L476 483 L476 113 Q476 86 488 70.5 Q500 55 523 55 Q534 55 542 57 L548 -8 Q526 -12 508 -12 Q420 -12 404 74 Q377 37 336 12.5 Q295 -12 251 -12 Q176 -12 150 36 L150 -184 L75 -184 Z " />
<glyph glyph-name="nu" unicode="&#x3bd;" horiz-adv-x="490" d="M3 483 L84 483 L248 76 Q312 165 349.5 273 Q387 381 387 483 L462 483 Q462 366 412 235 Q362 104 279 0 L204 0 L3 483 Z " />
<glyph glyph-name="xi" unicode="&#x3be;" horiz-adv-x="489" d="M47 172 Q47 241 89.5 282 Q132 323 184 333 Q136 341 96.5 374 Q57 407 57 463 Q57 507 88 545.5 Q119 584 165 601 L65 601 L65 667 L436 667 L436 601 L249 601 Q200 590 168 555.5 Q136 521 136 481 Q136 430 179.5 402.5 Q223 375 288 375 L431 375 L431 310 L288 310 Q215 310 170 279.5 Q125 249 125 186 Q125 126 176 96 Q227 66 323 66 Q450 66 450 -34 Q450 -80 406 -157 L325 -157 Q343 -129 357 -95.5 Q371 -62 371 -40 Q371 -20 357.5 -10 Q344 0 314 0 Q184 0 115.5 43.5 Q47 87 47 172 Z " />
</font>
</svg>
